<mxfile host="65bd71144e">
    <diagram id="SZqPG-FQx6qi8OcO6LBK" name="Page-1">
        <mxGraphModel dx="1568" dy="1089" grid="1" gridSize="10" guides="1" tooltips="1" connect="1" arrows="1" fold="1" page="1" pageScale="1" pageWidth="850" pageHeight="2000" math="0" shadow="0">
            <root>
                <mxCell id="0"/>
                <mxCell id="1" parent="0"/>
                <mxCell id="9" value="" style="rounded=0;whiteSpace=wrap;html=1;" vertex="1" parent="1">
                    <mxGeometry x="350" y="220" width="460" height="140" as="geometry"/>
                </mxCell>
                <mxCell id="2" value="" style="shape=image;verticalLabelPosition=bottom;labelBackgroundColor=default;verticalAlign=top;aspect=fixed;imageAspect=0;image=data:image/png,iVBORw0KGgoAAAANSUhEUgAABgoAAAGwCAYAAAB4oT5ZAAAMTGlDQ1BJQ0MgUHJvZmlsZQAASImVVwdYU8kWnltSIQQIREBK6E0QkRJASggtgPQiiEpIAoQSY0JQsaOLCq5dRLCiqyAuuroCstiwK4ti74sFBWVdLNiVNyGALvvK9+b75s5//znzzznnztx7BwB6O18qzUE1AciV5Mligv1ZE5KSWaROQAFagAGowJMvkEs5UVHhAJbB9u/l7XWAKNsrDkqtf/b/16IlFMkFACBREKcJ5YJciH8FAG8SSGV5ABClkDefnidV4rUQ68iggxBXKXGGCjcpcZoKX+q3iYvhQvwYALI6ny/LAECjB/KsfEEG1KHDaIGTRCiWQOwHsU9u7lQhxPMhtoE2cE66Up+d9p1Oxt8004Y0+fyMIayKpb+QA8RyaQ5/5v+Zjv9dcnMUg3NYw6qeKQuJUcYM8/Y4e2qYEqtD/F6SFhEJsTYAKC4W9tsrMTNTERKvskdtBHIuzBlgQjxOnhPLG+BjhPyAMIgNIU6X5ESED9gUpouDlDYwf2iZOI8XB7EexFUieWDsgM0x2dSYwXmvp8u4nAG+ky/r90Gp/1WRHc9R6WPamSLegD7mWJAZlwgxFeKAfHFCBMQaEEfIs2PDBmxSCjK5EYM2MkWMMhYLiGUiSbC/Sh8rTZcFxQzY786VD8aOHcsU8yIG8OW8zLgQVa6wxwJ+v/8wFqxHJOHED+qI5BPCB2MRigICVbHjZJEkPlbF43rSPP8Y1VjcTpoTNWCP+4tygpW8GcRx8vzYwbH5eXBxqvTxImleVJzKT7w8ix8apfIH3wfCARcEABZQwJoGpoIsIG7tru+Gd6qeIMAHMpABRMBhgBkckdjfI4HXWFAA/oRIBORD4/z7e0UgH/JfhrFKTjzEqa4OIH2gT6mSDZ5AnAvCQA68V/QrSYY8SACPISP+h0d8WAUwhhxYlf3/nh9kvzEcyIQPMIrBGVn0QUtiIDGAGEIMItriBrgP7oWHw6sfrM44G/cYjOObPeEJoY3wkHCN0E64NUVcKBvm5XjQDvWDBvKT9n1+cCuo6Yr7495QHSrjTNwAOOAucB4O7gtndoUsd8BvZVZYw7T/FsF3T2jAjuJEQSkjKH4Um+EjNew0XIdUlLn+Pj8qX9OG8s0d6hk+P/e77AthGzbcEluCHcDOYMexc1gTVg9Y2FGsAWvBDivx0Ip73L/iBmeL6fcnG+oMXzPfnqwyk3KnGqcup8+qvjzRjDzlZuROlc6UiTMy81gc+MUQsXgSgeMolrOTswsAyu+P6vX2Orr/u4IwW75xC/8AwPtoX1/fb9+40KMA/OIOXwmHvnE2bPhpUQPg7CGBQpav4nDlhQDfHHS4+/SBMTAHNjAeZ+AGvIAfCAShIBLEgSQwGXqfCde5DEwHs8ECUARKwEqwDpSDLWA7qAI/g/2gHjSB4+A0uAAugWvgDlw9HeA56AFvwScEQUgIDWEg+ogJYonYI84IG/FBApFwJAZJQlKRDESCKJDZyEKkBFmNlCPbkGrkF+QQchw5h7Qht5AHSBfyCvmIYqg6qoMaoVboaJSNctAwNA6dhGag09ACdBG6HC1DK9E9aB16HL2AXkPb0edoLwYwNYyJmWIOGBvjYpFYMpaOybC5WDFWilVitVgjfM5XsHasG/uAE3EGzsId4AoOweNxAT4Nn4svw8vxKrwOP4lfwR/gPfhXAo1gSLAneBJ4hAmEDMJ0QhGhlLCTcJBwCu6lDsJbIpHIJFoT3eFeTCJmEWcRlxE3EfcSjxHbiI+IvSQSSZ9kT/ImRZL4pDxSEWkDaQ/pKOkyqYP0nqxGNiE7k4PIyWQJuZBcSt5NPkK+TH5K/kTRpFhSPCmRFCFlJmUFZQelkXKR0kH5RNWiWlO9qXHULOoCahm1lnqKepf6Wk1NzUzNQy1aTaw2X61MbZ/aWbUHah/UtdXt1LnqKeoK9eXqu9SPqd9Sf02j0axofrRkWh5tOa2adoJ2n/Zeg6HhqMHTEGrM06jQqNO4rPGCTqFb0jn0yfQCein9AP0ivVuTommlydXka87VrNA8pHlDs1eLoTVGK1IrV2uZ1m6tc1qd2iRtK+1AbaH2Iu3t2ie0HzEwhjmDyxAwFjJ2ME4xOnSIOtY6PJ0snRKdn3VadXp0tXVddBN0Z+hW6B7WbWdiTCsmj5nDXMHcz7zO/DjCaARnhGjE0hG1Iy6PeKc3Us9PT6RXrLdX75reR32WfqB+tv4q/Xr9ewa4gZ1BtMF0g80Gpwy6R+qM9BopGFk8cv/I24aooZ1hjOEsw+2GLYa9RsZGwUZSow1GJ4y6jZnGfsZZxmuNjxh3mTBMfEzEJmtNjpo8Y+myOKwcVhnrJKvH1NA0xFRhus201fSTmbVZvFmh2V6ze+ZUc7Z5uvla82bzHgsTi/EWsy1qLG5bUizZlpmW6y3PWL6zsrZKtFpsVW/Vaa1nzbMusK6xvmtDs/G1mWZTaXPVlmjLts223WR7yQ61c7XLtKuwu2iP2rvZi+032beNIozyGCUZVTnqhoO6A8ch36HG4YEj0zHcsdCx3vHFaIvRyaNXjT4z+quTq1OO0w6nO2O0x4SOKRzTOOaVs52zwLnC+epY2tigsfPGNox96WLvInLZ7HLTleE63nWxa7PrFzd3N5lbrVuXu4V7qvtG9xtsHXYUexn7rAfBw99jnkeTxwdPN888z/2ef3k5eGV77fbqHGc9TjRux7hH3mbefO9t3u0+LJ9Un60+7b6mvnzfSt+HfuZ+Qr+dfk85tpwszh7OC38nf5n/Qf93XE/uHO6xACwgOKA4oDVQOzA+sDzwfpBZUEZQTVBPsGvwrOBjIYSQsJBVITd4RjwBr5rXE+oeOif0ZJh6WGxYedjDcLtwWXjjeHR86Pg14+9GWEZIIuojQSQvck3kvSjrqGlRv0UTo6OiK6KfxIyJmR1zJpYROyV2d+zbOP+4FXF34m3iFfHNCfSElITqhHeJAYmrE9snjJ4wZ8KFJIMkcVJDMik5IXlncu/EwInrJnakuKYUpVyfZD1pxqRzkw0m50w+PIU+hT/lQCohNTF1d+pnfiS/kt+bxkvbmNYj4ArWC54L/YRrhV0ib9Fq0dN07/TV6Z0Z3hlrMroyfTNLM7vFXHG5+GVWSNaWrHfZkdm7svtyEnP25pJzU3MPSbQl2ZKTU42nzpjaJrWXFknbp3lOWzetRxYm2ylH5JPkDXk68Ee/RWGj+EHxIN8nvyL//fSE6QdmaM2QzGiZaTdz6cynBUEFP83CZwlmNc82nb1g9oM5nDnb5iJz0+Y2zzOft2hex/zg+VULqAuyF/xe6FS4uvDNwsSFjYuMFs1f9OiH4B9qijSKZEU3Fnst3rIEXyJe0rp07NINS78WC4vPlziVlJZ8XiZYdv7HMT+W/di3PH156wq3FZtXEldKVl5f5buqarXW6oLVj9aMX1O3lrW2eO2bdVPWnSt1Kd2ynrpesb69LLysYYPFhpUbPpdnll+r8K/Yu9Fw49KN7zYJN13e7Le5dovRlpItH7eKt97cFrytrtKqsnQ7cXv+9ic7Enac+Yn9U/VOg50lO7/skuxqr4qpOlntXl2923D3ihq0RlHTtSdlz6WfA35uqHWo3baXubdkH9in2Pfsl9Rfru8P2998gH2g9lfLXzceZBwsrkPqZtb11GfWtzckNbQdCj3U3OjVePA3x992NZk2VRzWPbziCPXIoiN9RwuO9h6THus+nnH8UfOU5jsnJpy4ejL6ZOupsFNnTwedPnGGc+boWe+zTec8zx06zz5ff8HtQl2La8vB311/P9jq1lp30f1iwyWPS41t49qOXPa9fPxKwJXTV3lXL1yLuNZ2Pf76zRspN9pvCm923sq59fJ2/u1Pd+bfJdwtvqd5r/S+4f3KP2z/2Nvu1n74QcCDloexD+88Ejx6/lj++HPHoie0J6VPTZ5Wdzp3NnUFdV16NvFZx3Pp80/dRX9q/bnxhc2LX//y+6ulZ0JPx0vZy75Xy17rv971xuVNc29U7/23uW8/vSt+r/++6gP7w5mPiR+ffpr+mfS57Ivtl8avYV/v9uX29Un5Mn7/rwAGlEebdABe7QKAlgQAA54bqRNV58P+gqjOtP0I/CesOkP2FzcAauE/fXQ3/Lu5AcC+HQBYQX16CgBRNADiPAA6duxQHTzL9Z87lYUIzwZbY7+k5aaBf1NUZ9Lv/B7eAqWqCxje/guGuoMmBIwYJwAAAIplWElmTU0AKgAAAAgABAEaAAUAAAABAAAAPgEbAAUAAAABAAAARgEoAAMAAAABAAIAAIdpAAQAAAABAAAATgAAAAAAAACQAAAAAQAAAJAAAAABAAOShgAHAAAAEgAAAHigAgAEAAAAAQAABgqgAwAEAAAAAQAAAbAAAAAAQVNDSUkAAABTY3JlZW5zaG90E4B6CQAAAAlwSFlzAAAWJQAAFiUBSVIk8AAAAddpVFh0WE1MOmNvbS5hZG9iZS54bXAAAAAAADx4OnhtcG1ldGEgeG1sbnM6eD0iYWRvYmU6bnM6bWV0YS8iIHg6eG1wdGs9IlhNUCBDb3JlIDYuMC4wIj4KICAgPHJkZjpSREYgeG1sbnM6cmRmPSJodHRwOi8vd3d3LnczLm9yZy8xOTk5LzAyLzIyLXJkZi1zeW50YXgtbnMjIj4KICAgICAgPHJkZjpEZXNjcmlwdGlvbiByZGY6YWJvdXQ9IiIKICAgICAgICAgICAgeG1sbnM6ZXhpZj0iaHR0cDovL25zLmFkb2JlLmNvbS9leGlmLzEuMC8iPgogICAgICAgICA8ZXhpZjpQaXhlbFlEaW1lbnNpb24+NDMyPC9leGlmOlBpeGVsWURpbWVuc2lvbj4KICAgICAgICAgPGV4aWY6UGl4ZWxYRGltZW5zaW9uPjE1NDY8L2V4aWY6UGl4ZWxYRGltZW5zaW9uPgogICAgICAgICA8ZXhpZjpVc2VyQ29tbWVudD5TY3JlZW5zaG90PC9leGlmOlVzZXJDb21tZW50PgogICAgICA8L3JkZjpEZXNjcmlwdGlvbj4KICAgPC9yZGY6UkRGPgo8L3g6eG1wbWV0YT4K+mhvrAAAABxpRE9UAAAAAgAAAAAAAADYAAAAKAAAANgAAADYAACkEgIOEPYAAEAASURBVHgB7J0HnFxXebdf9d57b1a3umWrW12y5d4wLSFAIEACCR+QAoEEQg0kIYTyEQjhM80Fy7YkN8ndclHvvVuyeu/9O/8zuquzszO7d2Z2dkfe5/XPO7ece+65zz33zuj9n/O+1Ro2bXXZMAhAAAIQgAAEIAABCEAAAhCAAAQgAAEIQAACEIAABKokgWoIBVXyvnPREIAABCAAAQhAAAIQgAAEIAABCEAAAhCAAAQgAAFPAKGAjgABCEAAAhCAAAQgAAEIQAACEIAABCAAAQhAAAIQqMIEEAqq8M3n0iEAAQhAAAIQgAAEIAABCEAAAhCAAAQgAAEIQAACCAX0AQhAAAIQgAAEIAABCEAAAhCAAAQgAAEIQAACEIBAFSaAUFCFbz6XDgEIQAACEIAABCAAAQhAAAIQgAAEIAABCEAAAhBAKKAPQAACEIAABCAAAQhAAAIQgAAEIAABCEAAAhCAAASqMAGEgip887l0CEAAAhCAAAQgAAEIQAACEIAABCAAAQhAAAIQgABCAX0AAhCAAAQgAAEIQAACEIAABCAAAQhAAAIQgAAEIFCFCSAUVOGbz6VDAAIQgAAEIAABCEAAAhCAAAQgAAEIQAACEIAABApKKGjQsJGNGjvB35X1a1bZju1bYt+hAYOHWdt2HezChQv20tynYx9HQQhAAAIQgAAEIAABCEAAAhCAAAQgAAEIQAACEIBAVSZQUELBjaPGWcdOXfz9mPPko3b2zJlY90YCw7QZd/myWzatt2WLF8Q6jkIQgAAEIAABCEAAAhCAAAQgAAEIQAACEIAABCAAgapOoGCEgobO2T/1irN/88b1tnxJfGf/TU5g6OAEhsuXL9vTTz0WW2Co6jef64cABCAAAQhAAAIQgAAEIAABCEAAAhCAAAQgAAEIFIxQMGL0zda+Y+eEs/9J5+w/G282QcNGjW3qrXf6O7l54zonMCzkrkIAAhCAAAQgAAEIQAACEIAABCAAAQhAAAIQgAAEIBCTQEEIBY2cs3/KFWf/pg1rbcXSRTGbbxYKDApXdO7s2djHUhACEIAABCAAAQhAAAIQgAAEIAABCEAAAhCAAAQgUNUJFIRQMHLMBGvXoaOfTTDnCefsPxfP2d+ocRObcssd/h5uXL/GVi5bXNXvJ9cPAQhAAAIQgAAEIAABCEAAAhCAAAQgAAEIQAACEMiIQKULBY2ds39y5Oxf55z9y+M7+0eNnWBt22cuMGREiMIQgAAEIAABCEAAAhCAAAQgAAEIQAACEIAABCAAgfcwgUoXCkaNneic/R38bILZTzxi58+di4W7cZOmNnn67b7shnWrbdXyJbGOoxAEIAABCEAAAhCAAAQgAAEIQAACEIAABCAAAQhAAAJXCVSqUBA6+9evXWWrVyy92rIylkaPm2ht2l0RGGY6geF8PIGhjGrZDQEIQAACEIAABCAAAQhAAAIQgAAEIAABCEAAAhCoUgQqVSgYPW6Sc/a3T8wmmPmwc/afjwW/SdNmNmnabb7s+jVOYFiZXmAYP3m61axZK1a9KnTo0AFbsuBNGzjkBmvdpl3s41Rw3rOzrGHDRjZizPiMjtu8cZ1t3bzxmjpnp85drXe/ARld56K359uRw4cs23tyLZ3zguvLVaEf5NLfq0I/yKW/8w5K/3rRu/Zaeh/k0g+yvU7eQen7T/SdyzsoNaOq9juIflB6P+AdlJqPtvJdlJ6N9uh3P99F6RnxXZSejfZUte+ibH/3Z/uOrozfppVxTt5B6Z8z3kHp2fAOKp1NtJffQRGJ1J+5/g5KXWvFbK00oSB09q9bs9LWrFwW+4pH3+wEhrYJgWHW4w/bhQvpBYa7H/iQVatWLXbdx44e8T/8x02cai1btYl9nAo+/vBD1qx5C5sw5daMjtt4JTfDtXTO3n2vt/4Dh2R0na+/PM/27d1t2d6Ta+mcmuFSFfpBLv29KvSDXPr7tfQ+yKUfZHud19L7IJd+kO118g5K//UUfefyDkrNqKr9DqIflN4PeAel5qOt+t2fLZ/K+F6ojHPyXZS+//BdlJ6N9lS17yJ+D6fuD1E/yPZdyzsoNVdt5R2Uno32RH0v22ezMv59XBnnzPbZrIzfJJVxzlzeQaX30PzurTShYMz4yX7E/sWLF22Oy01w4cKFWFfapGlzN5tghi+7dvUKW7tqeanH9ek/0GrWqFlqmXDniRPHbNuWTdapSzdr0qRZuKvU5cuXL/uZDXXq1rWevfqVWjZ55949u2z/vr3X1Dmbt2hp7Tt0Tr6UUte3bF5vp06etGzvybV0TvXrqtAPcunvVaEf5NLfeQelfp1E79pr6X2QSz/I9jp5B6XuP9oafefyDkrNqKr9DqIflN4PeAel5sN3UWou4Vb97ue7KCRSfJnvouI8kteq2ndRtr/7s31HV8Zv08o4J++g5Cfr6jrvoKssUi3xDkpF5eo2fgddZZFuKdffQenqrYjtlSIUNG3W3CZOveLsd45+Ofzj2pjxU5zA0Nb/8MxEYIhbP+UgAAEIQAACEIAABCAAAQhAAAIQgAAEIAABCEAAAlWJQKUIBWMnTLFWrTN39odTaRSqSCGLMAhAAAIQgAAEIAABCEAAAhCAAAQgAAEIQAACEIAABLInUOFCQejsVxJiJSOOa1F8ME0hYzZBXGqUgwAEIAABCEAAAhCAAAQgAAEIQAACEIAABCAAAQikJ1DhQsG4idNckuDWPnTQ7JmPuM94uQmaNW/pksPe4q9k9QonMKyNLzCkv3z2QAACEIAABCAAAQhAAAIQgAAEIAABCEAAAhCAAASqNoEKFQqUbGf85ISzf9XyJbZh3erY9G+eNM1atGztkx5rNoFmFWAQgAAEIAABCEAAAhCAAAQgAAEIQAACEIAABCAAAQjkRqBChYLxk6db8xatMnb26xgdK1u5fLFtXLcmt6vmaAhAAAIQgAAEIAABCEAAAhCAAAQgAAEIQAACEIAABDyBChMKNBtAswJkK5c5Z//6+M5+zULQbIQLFy6YwhVdusRsAg+SPxCAAAQgAAEIQAACEIAABCAAAQhAAAIQgAAEIACBHAlUmFBQ3Nn/sHP2X4rV9FBgWLF0kW3asDbWcRSCAAQgAAEIQAACEIAABCAAAQhAAAIQgAAEIAABCECgbAIVJhQ0a97CqlevYWfOnLaTJ46X3bIrJerUrWsNGzb2a4cPHYgtMMQ+AQUhAAEIQAACEIAABCAAAQhAAAIQgAAEIAABCEAAAlWYQIUJBVWYMZcOAQhAAAIQgAAEIAABCEAAAhCAAAQgAAEIQAACEChYAggFBXtraBgEIAABCEAAAhCAAAQgAAEIQAACEIAABCAAAQhAIP8EEAryz5gzQAACEIAABCAAAQhAAAIQgAAEIAABCEAAAhCAAAQKlgBCQcHeGhoGAQhAAAIQgAAEIAABCEAAAhCAAAQgAAEIQAACEMg/AYSC/DPmDBCAAAQgAAEIQAACEIAABCAAAQhAAAIQgAAEIACBgiWAUFCwt4aGQQACEIAABCAAAQhAAAIQgAAEIAABCEAAAhCAAATyTwChIP+MOQMEIAABCEAAAhCAAAQgAAEIQAACEIAABCAAAQhAoGAJIBQU7K2hYRCAAAQgAAEIQAACEIAABCAAAQhAAAIQgAAEIACB/BNAKMg/Y84AAQhAAAIQgAAEIAABCEAAAhCAAAQgAAEIQAACEChYAggFBXtraBgEIAABCEAAAhCAAAQgAAEIQAACEIAABCAAAQhAIP8EEAryz5gzQAACEIAABCAAAQhAAAIQgAAEIAABCEAAAhCAAAQKlgBCQcHeGhoGAQhAAAIQgAAEIAABCEAAAhCAAAQgAAEIQAACEMg/AYSC/DPmDBCAAAQgAAEIQAACEIAABCAAAQhAAAIQgAAEIACBgiWAUFCwt4aGQQACEIAABCAAAQhAAAIQgAAEIAABCEAAAhCAAATyTwChIP+My+UMNWrUtGrVzC5cuFAu9RVSJdWr17ABg4e6JlWzM6dP2fq1qzJqXs2aNX35imZTs2Ytu3Tpovv/UkbtVeHatevYuXNnMz6uqhxQq1Ztu3jxQlZsK5JRZfW9irzGa/Fc2Tyb1dwLVu/ZCxfOX4uXTJshAAEIQAACEIAABCAAAQhAAAIQgEBOBApKKGjQsJGNGjvBX9D6Natsx/YtsS9uwOBh1rZdB+9If2nu07GPK61g777XW+eu3UsrUrTvpbnPFDmYBgxybWnfwS5fvmzznp1VVCZakGN80rQZfvWdHdts3eoV0a5iny1btbYevfpa8+YtrV79+n6f6jx4YL9t2rDW3t25o1j50TdPsvr1G9iRw4ds4VuvF9tX2kqPnn2s+3W9Sivi98mBv2Nb4p5Ur17dJk6d4cQLp15csVOnTtqxo0fs+NGjtm/fbjt18mS0q9RPOc1vu/sBX+bM6dP29FOPlVpeO1u0bO3EhWHWpGkz59yr4cuLzfFjR22X47J9yyZTe8rbOnbual1cn2jWoqV39qt+Ofx3vbPd1rr7qPanMt3zvv0HWuu27axps+ZF3M6eOeOZ6n6ediKJrLmre9iNo4qq0XWdOH7Msz3mrm/Pu7uK+lpRoRwXGjVuYiNG31yilvPnz9vx40ftyKFDts0xlfM+2WrVqmXjJ9+SvDnluvpPOiGoa/frTHybuf6uOmUSf/a8u9M2rl9jhw8dLKpz3MRpVqdOHf8sLFn4ZtH2aKFFy1Y2dPhIv7pi6SLbu+ddv9ylaw/r1bd/VMx/iq/Ynzxx3Pbt3VPiuSpW2K1k0/eGjxjj73tyXcnrb81/xfdhPcd6nmU71bdWLU8uWrQevfu04ZUXn7NzZ896fuVxT4pOksXCkBtGmN5hsr2737UVyxalrUXvbl2HbPGCN+3Qwf1py6bbke2zqfe8jm3cpKl/LvVMHjiwz1YuW+zeYSfSnY7tEIAABCAAAQhAAAIQgAAEIAABCEDgPUWgoISCG0eNs46dunjAc5581OSwiWMSGKbNuMsX3bJpvS1bvCDOYWWWGXbTKOcU7lFmORWY84Rr79lEe+Xga9O2vT/u8YcfKnG8RiHfce/7/fadTihY8OZrJcpc5wSCgUNuKLE93JBc9+33POgdhCecw/P5OU+ERUtdHjR0uEksKMvWOGdlJGrIOX/nfR8o9ZBVK5bYxnVrvGBSWsFMhQJxEZ/SbMO61bZq+ZLSimS0T4LI4GE3Wrce6QUVOZxnPvKbEvXWq1ffxk6YYg0bNS6xL9ogR7CEBlnb9h2LBLNof/gp5736zN7du8LNOS03b9HKOfunl1qHnPY6rxz3odWpU9dm3HV/uCnt8vZtm23x228U2y8R5YYRo4ue/WI7r6zIcfzyvGeLdqnvqQ9KFHvx+TlF26OFdh062cgx4/2qzqfzyiTW9L1+kF9O90fPz/xXXvDCQXKZbPve1FvvLPX+R+d5ed4zzkl+wDus9Y7QNeo9qPdhOlM5vVPUL2Y9/gdfLNd7ku5ccbdrZP6d9yXecTpGz8YTj/427btAIlEk7Lz52ku2O6mPlXbebJ9NHXfDTaOtU5duKatXf9f9kPiJQQACEIAABCAAAQhAAAIQgAAEIACB9zqBghEKGjpn/9Qrzv7NG9fb8iXxnf03OYGhgxMY5IzSaPS4AkNZNzcUCtSmi6WE/Vm7erkbbX3RV5mrUNCn3wDrN2Cwr0vXJOf8gf373PplP9paI6LlXC8voaB1m3am/yPr2aefd1TqejZvWBdtds67d/wIbm0IhYKTbtStRorrHmpkukbMR5bs4I22h5+ZCAW6z7rfMrVPsyo0g0Aj+Rs3aeJHButaylso0Gj79h07+/Oqf6l+XVstdx80arpn7wSz5HuikfG33HGfd+Tq4P379tiOrVvs2LEjnpcc2hrNnE4o0Ej4o4cPW8PGjf2IZzGOLDwm2pbtZygUHHSjqfc4EaKa+69+gwZupk5Hq1uvnq9a/fE5J0KFI61Dp7Sc7O++U3ymS9imAwf2+hkR4TbNDohGnmsWyCY3e+DggQNWp25da9WqjV3Xu6+bTXCg3IUCzZA4efK4SagQV92HaIaMrmPeM08VC32US9+TwNSgQUN/2bXdTAg5xmWaKfLuznf8sv5s2ri2aFbKCCd0tHf9Q/bMrMftdIoZMhoFP3n67b6MnsFFb8/3y7neE19JDn/UbrU/tNdenmv73YyNVJaLUJDts6mZBP0HDvHNUb9bvWKpD32mfhAJghJfZs98OK3Akepa2AYBCEAAAhCAAAQgAAEIQAACEIAABK5FAgUjFETOHu/sf9I5+6+Mzi8LqkZpa7SubPPGdU5gWFjWIbH3h0LBLOcsOn/uXKxjcxEKNDJYMwPksEw3olVhf7r16Omud32x9mQ7o6BYJW5FYYDkvC9tZkIoFMhR/7YLmRKZwgGNdCGkFD5F9tbrL9u7u646Q6Ny0WcmQoFGvcupLZHg+aefcM7TRLieqC59ynmqGPdyeJeHhc5YORQV2ipZjKrnrnWoC7Uy/9UXip2ynxu93seNYpdt27LRlix8q9h+rUhYUUz1A/v3+n3hjAKV13GRyVmtUdDiL3vaPStnzqQOdxQdE+czFArkMA3DA6kv3jhyrBfjVNe2rZtsiQsPE1nolJbzPVUooKhs8qfC+Nw8aZrfrJHbr7zwrB8ZH5aTYCDx553tW4s2l8eMAt3HMJyR+oyc7lGYL82e0IyfyMqr7+m5mH77Pb7aLe4ZXpZGFO3cpbufaaGCyf0gapNEPYU6k73pnrPdV56zXO5JVHcun+ovcrgrLJdmF6i/bt28wZYuejtltdkKBbk8m7c6AU8CmH+XOPErCv2lBg4dPsKJOT19W99wMxySZ9GkvAg2QgACEIAABCAAAQhAAAIQgAAEIACBa5hAQQgFjZyzf8oVZ79itSumeFwLBQaF51B87vKyyhAKwtAoEj0kfsS1QhEK1F6NRJ9+W8IZKuf6s25EdDrLRCi4+4EPeRFFjjs58CrClDdDznvZqy4GfGJ2R9lnlugz464HvJNUoo/CwkgIK8tKEwp0rMJhqW/Kkp32fmMWf0oTClRdeI+OHjlsLzw3u+gsuTilI+e7KpvrRvArx0Qcy4dQoPPKuS0ntyx5Vkp59b24QkHIfPeunU4IKNnfx02c6mZjtPHtffKx3zundyKHRC73xFeW45/o/mzfutn3nXYdOnrRYPbMR1LWnK1QkO2zqRwWN09KhNpSGxcvKB4OS7M/pt12t2+rZvUoFBUGAQhAAAIQgAAEIAABCEAAAhCAAATeywQKQigYOWaCyZEkJ6pi/WsUahxTmJspt9zhiyrZqZJPlqdVhlBwy+33Fo1olmNZoS/iWiEJBWrzmPFT3Ejwtr75cizLwZzKQodoWcmM73nfh30VZYkPqc6TzTbN3rjr/g/6Q8tqW3L9odN503ongJWSzDU8tiyhQG3SvdYobT0zqfIihPXFWS5LKFAdkaM8jIWv7dk6pcPjNJsgVeJv1Z/KIkd0LjkKkmcU6DzNmrewCVNu9adMnilTXn0vrlCgRmiGg0bNa9T7k4/9zrcr+qOZHuqb+kwO8RWyzXSWR1R/tp+hE16zHGrXrl2UnFv3OFXM/2yEglyezTC8mxJIJyeG17VHM6tSsc+WDcdBAAIQgAAEIAABCEAAAhCAAAQgAIFCJVDpQkFj5+yfHDn7XeLblcvjO/uj0aSZCgxxb0YoFCgue7rQQ5cuXfRhgqJ6cwk9FDkjk0dtR3WX9lloQoHi9g8YnAiLUlr4oVrOkXj73e/zl1aWMz4UUhSPXXHZ82lh7oxMHa6hM7K0+OzJ7S9LKFD5MeMnF+WVeOqPvy/W/5Lri7NellCgEC0K1SJL7puhU1qhekpLJn7+/LmiWRXNmrd0TvlbfJ3Jo/f9xlL+5Eso6NzVhftxoZ1kyW0qr76XiVAQzjBKdrKHYZskQkmMiizbexIdn8tnmPBZfbOGZtbcmUh2rYTdyq2RbNkIBbk8m0pM3v263r4Z6WayhLkzknOPJLefdQhAAAIQgAAEIAABCEAAAhCAAAQgcK0TqHShYNTYiS6sSwfvPJz9xCNpnfHJoMPY1MkOveSy2a6HQkFpdSjOuUYnR5atUKAkp7e5UDWyvS6Z7PxXX4yqjPVZaEJBpy7dbPiIMb7tmu2hWR/pTGF6ZJcuXXb/X0xXzMIEpCokYWHnO9tsn0uSesAlClaIn/K0Nm3bm+6nLJ2TM935ht04yrp06+F3p3NGpjo2jlAgZ7ac2rJkB3KqOsvaVppQoHujxLRRwus1K5fZujUri6oMndJFG9MshKGbwhkXmYbZyodQoHBZE6fO8KFy1PyX5j7jkyhHl1JefS8ToUD5PiZNu803YdXyJV68iNrTf8AQ693ver/67OyZaRNMR+XTfYb3JF2ZTLZHgko420NhfBTOR6Gl9CwkWzZCQS7PZpgoWiHrknOOqH3RTDctpyujfRgEIAABCEAAAhCAAAQgAAEIQAACEHgvEKhUoSB09it5qpKoxrXR4yZam3ZXBAYX91ojlcvbKlooCEdYp0t8W9o1FppQ0Kp1Wxs7YYpvcmlJW0u7puR9CrNy0+ibrX2HTsm7vNikECKrXD86eeJ4if3ZbOjWo5cNueEmf+jSRW+5hKxXEwvLsdywYeNi1Z46ecIngdbGcETyrMddMuyYfTSOUHD9wKHWq29/f+4wiW2xxmSwEgoFJ901HHHil4tpY/XcTIImTZv7MEeqTvkZXn95rhNzLhXVnq1QEM64ePuNV23XO9uL6ixroTyEAl3LWZcIupoL5SQntpzykaUKZVZefS8ToUDtiZ5rJbt+9cXnoyZ6AUFtTjULJ9t7UlR5lgsNGjayaTPu8kevcTMH1rkZBLJwlkGqBNzZCAW5PJsKL6UwU7InHv1dSnEyfP+XFjrNV8IfCEAAAhCAAAQgAAEIQAACEIAABCBwjROoVKFg9LhJztnfPjGbYKYcqfHi8YejbNevcQLDyvgCQyb3K3QUKZllutwJ586dK+aYznZGQctWrb1zWW3MxrEeORRPOCf58y5UUrYWxeYurR7Fx5ezVpYcyz06bxgapbyS7kZ1q99c16uvaVRxsikU1RtuNoaSkOZqOoecnDIlPFXi08gGDBpmPfv0i1b9Z5gYNXRGholmix2QYiWOUNDv+kHWp/9Af/QC52TfmYGTPcUpLRQKUu3XtiUL3zSFX0q20Cm9d/e7tmbVsuQiRevHjh4tSrjbb8Bgk1ggy1TsKA+hoKhRwYLeQW+7mPX79u4OthZfzLXvZSoURLNH1K+fePS3/n2pWR533Pt+37DNG9fb8iULijUy23tSrJIsVsJZFy88N8eFqTrkawlFQ4Wm2rJpfbHasxEKcnk2NXOkabPmvg3K8SG2yRZx13aEgmQ6rEMAAhCAAAQgAAEIQAACEIAABCDwXiNQaUJB6OxXGBOFM4lrkSNezh2N1L5wIZ7AELf+qFwoFMySkOEEgTgWtU9lU8W2Dp18ium+4M3XfLX16jewW26/xy9rZLySbGZihSYUdOjUxW4aNc5fQnK4mkyuq7SyGuWtkcHt3AyDbj16FoWNkcP3aRdSRIlIczHVO9KF3ZFpxotmvkQWOrqjbaFQcKO79o6OgUw5LuLOcogjFAwdPsK6du/p604OkeM3ZvgnFAokEGlGQa1ataylmxUiUUimkevznptl584WTzYeOqUzyePQtdt1NvTGkb7upYvedrM1NvjlOH/KQyjQCH1dU7369U2iVmRxw35l2/cyFQrCPvjKC8/ZwQP7XLi2jqYcLbLXXppr+13YrdCyvSdhHdksRw745ATASjyseyZmyTMjdJ5shIKQS6bPZjQjTeee7WakpRKBNXOpQ8fOKmLPzPqjnT51yi/zBwIQgAAEIAABCEAAAhCAAAQgAAEIvBcJVJpQECVjlUNpjstNEDe2vMKgTJo2w9+LTGPGZ3oDsxUKoiTLOl9ZQsE727fawrde902TE+3uBz7klw8dPGAvz3vGL8f9U2hCQY+efWzQ0OG++RJDJIrk0+SMvHnS9KKQIpmOUk/VtlDQ2rxxnRu5vTBVMYuSUIdCQf+BLoZ830QM+cjBm/LgpI2hE3jJwrfcKP6r4Y6iosUcne75SXbeR+XifoZCQbLTNRy5rVkaml0TWrZO6Vat27jQVFN9VZk+yxpNL8EtjIMftil0IodJr8PkwMorovwisurVa9iNo8YWhbRKTg4c1p1qOZO+l6lQEAqLUYg2hcNS6J1wlkHYrmzvSVhHpsu1a7scK3cncqzo2COHE2yjepo2S4T60XryDJtshIJcnk0JVBKqZOlEPIVN00wImWZyhOG2/Eb+QAACEIAABCAAAQhAAAIQgAAEIACB9xCBShEKFPJBI09la10cazkJ49qY8VNcUtW2fqR4JgJD3PrDctkKBeFI1FRhLTRSW059WXIugsjZLwHlqT/+PmVIjLCN4XJ0bGkhg8Ly6ZbLK/SQEhkrobGsPEa9p2tvuL1T5642fORYvynZ4R2Wi7tcs2YtF+Ilca9KE29SCQWh87OsZM5he+IIBbfecZ/VdfkDZKnEqLC+OMulCQU6Ppwlkyx6ZOuUVo6H6bclZtAo1M/rL8+L01RfJurrx44e8cmckw9s70aCj3AjwmVh/oN0QoHKaebEDJdMXI75hID5aEazleL2vUyFArVt/OTpPjzU0SOHfRic6W7mkepJN/sh23uic2VrStytBN5xTLOlNGsqsvBZefO1l2z3uzujXWk/c3k2w9lAr7mcG/tdMvRkm+pyLTR0ORckxug9jkEAAhCAAAQgAAEIQAACEIAABCAAgfcygUoRCqKRmpnOJlCIGcV9l+UrlE14s7MVCsLRqnL2J8+WkINXjl5ZctLU0Lme7EwL25ZqOXKeFoJQUKtWbT+6WLMkdJ8V3uPixQupml2u2+TYk4NPFo2+zvUEU2+90xo2SiQtfuYpF4LkdMkQJKmEgtARfurUSXt21uOxmlKWUKC8DHLcy1KFcYl1kqRCZQkFIdfkUfy5OKVn3Hm/1alb17dmzhOP2tmzZ5Jalnr1ltvv9SGD0vX1zl27m2LMyzQDIspXUZpQoLIK56SwTrJM+0/IqLRjsxEKevbuZwMGD/Ptem72TJt2291+OU7eiEzCQflKs/wT5ZzR4RLpkk2zLvq63Boy5dRQbo3IshEKdGy2z2YYFi35Hax6w9kRkTij7RgEIAABCEAAAhCAAAQgAAEIQAACEHivEqhwoSB09isJsZIRx7VxE6day1ZtKmQ2gdqUrVAQOvVCJ2V0naGTKtnR18A5uqddcXTLCfric7NLCA2qp3GTpqbR1KEVilCgkb43jhzj46irfZmMpg+vJ9VyRzdjYN+e3Sljiqt8yL68wh21d3kKRlzJUxCGigrbl0oo0P4wT4FCTOn4ZNMI9tp16tqpkyf8rtKEAjmjx7iQKHI2y8oryWpZQoHOJQZiIXv1xee9SKHlXISC0EG8Y9sWU5igVNa4cRM7duxo0a4odJk2PPXHP5QY+R/mcHh29uOO7Ul/bFlCgYSt2+5+n8/PoJHks4Mk6+XV97IRCho0aFgkDih5eBQ7f47Lw3H2TElxJZd7UgQ5g4UwB0GykBRWE82ESJ4xFfaDuDMKVG+2z6baq/elZpEo98Bzc2YWCy0Uhk3LNH9GeL0sQwACEIAABCAAAQhAAAIQgAAEIACBa4VAhQsF4yZOc87+1hmPMm/WvKWbTXCL51oeIWXi3KBQKJDTWQly09lhl1MgSogZjiSXQ+yN1160A/v2+kSerdu0s5EuCakcknJEPv3UYyUcfQqZotApMokFi53zVLHUVV4CgZyd2p8cciYSCtSOhW+ldrhG7T/kEqJG1yNxIhoxr/06vxxoyfUcd8KERsbLtF/JSWUKyaN7onrk0O3S/TrvaNU+1fH0k48Vc8Jpe7am2QJymm7ZuN62bd1sx53z+NKliz5cTLfretmAQYlR16pfia7Pn4+XgLqs9kQOTpWTo3atS74tx7Xuo4SfG6+EOwpzFKisuGrUc2TiJIe4ZiXImdu2XQcb6PI4bFq/pigEVygUbN6wzvbs2WWNXD2NmzazKK666tu9a6e9+fpLUdU5fcYRCtT3Jk+/3Z9H8edffP5pvxw6pTXDYf3a1Wnbct71B/WXyMRvxl33FyWh3uVGmiscmdhKQGneoqUNHDLcCwEvz3s2OszktI+Ynzh+zORcPu4+FdZL/eD6gUN92eTQRGUJBToozMkQJlrPpe/p/VW7Th3fpnpuRtHQ4Ykkzgq5tHH9Wr9dfw46fskzkKKdYbgpbdN1P//0k9HuYp+53JNiFcVcUT8eNW6iL11aODnlLJETXhaGsAqFAs3GOLB/ny+T6s/ZM6d9bopoX7bP5pAbRvgE6KpHz9LSRW/595WuJRIG9c6d9biEqPzPhoquh08IQAACEIAABCAAAQhAAAIQgAAEIFAZBCpUKJDTb/zkhLN/1fIltmFdeodiMoybJ02zFi1be4eNchPIAZ9vC4WCss6VHCYodEimO1aJcZUgN9nkIB0xZoLPxZC8L1xPJxSEZdIthyPCQ+dduvLavsY5cNddyScRCgXpjtm7+11btGB+CSEkXfk426O44WFZ9QW1J7TkmRrhvmyWNQp8rJvRIpEiMjkR5egObeXyxbZx3ZpwkymxrsSXsGzysaFzNRQKilUUrOjZUfit8kqwGkco0OmjWT1ajvpQ6JTW9tLspJs1odA5oUkEUVLjKOeC9iXzOXRwv0vufVUoUJkobr+WZcnHaFvyjIvwuQyTGatsZOpLmlWgT9UpwenChfM+pJVmdIQWt++FIXLC45OXlcA8FFLC/YOH3mjde/Yu2lRaeKNc70nRSWIuhO/KF5+fU8yRH1bRyuWXGevyzMjC5OChUBCWT7UcilTan+2zqZBXCmUXzc5Jda4wEXaq/WyDAAQgAAEIQAACEIAABCAAAQhAAALvFQIVKhREjj2NzszE2R86MVM5YvN1M8JcA2Wd483XX3ajUt8pVkyjvzVaXI7/0DSSX6NXd+7YFm4usax43hrdrFHSocl5uXXzBlu2eEG42ecEUGztOPbqi88Vjdod5EZs9+iVGOVb2rFhXojq1WvYXfcnZhREx+i+apSzRnG/61iEyUqjMrl+aiR5dzdiXCGoUpnOLwEmikmfqky222rUqOnj12s2R7IwoZkWi9wsDo2oT2VyhivJshJ5J5t4qT8cPLDf7wpHZ0dlNTPj2NGjbgbFEduyaYMpbnp5WjhjZ9UKJ+KlmRUgsU6inSzKjxDGcy+rTelyCugZUU4BiSqhoKL6FFpHYcoUaz80HdO3/yDr2adfuNkvi+niBW/4mTjhzj79BpgS2cpKc2jr2ZOoIItmMOXS96bccoc1crNtyrLSkn6HTnbVk07o0L7yuCeqJ65FCdAlnDz52O/SHhaGKArzduhdqfdtHNPsKl17aNk+m3q3aoZX8vtE72iFCtsTI6ly2A6WIQABCEAAAhCAAAQgAAEIQAACEIDAtUqgwoSC0MGYacx6zULQbAQ5opUUV6FmrhWT01Oj0OUkvOz+O37smI9FL2d/XNPo4KYukbOcbIpjnwi3cynu4e/JcnIMNmjY0Ce0reVyIsjpqNHqqeK15wOAwks1bdbCzrnku3LaR2GcyjqX+oNC+Eg4OOMc4CdOHLMzp0+XdViV2q/npYkTVC665/2kC70lcaE0k2ijEE/6/9zZs/75OOPC0+TLKrvv5eu63iv1ZvNs6t2q51mzDBRGLp/9573CmeuAAAQgAAEIQAACEIAABCAAAQhA4L1FoMKEguLO/odjh0wJBYYVSxfZpg1X43m/t24FVwMBCEAAAhCAAAQgAAEIQAACEIAABCAAAQhAAAIQqHgCFSYUNPMj4mv4kZoaJRzXNMKzYcPGvvjhQwdiCwxx66ccBCAAAQhAAAIQgAAEIAABCEAAAhCAAAQgAAEIQKAqE6gwoaAqQ+baIQABCEAAAhCAAAQgAAEIQAACEIAABCAAAQhAAAKFSgChoFDvDO2CAAQgAAEIQAACEIAABCAAAQhAAAIQgAAEIAABCFQAAYSCCoDMKSAAAQhAAAIQgAAEIAABCEAAAhCAAAQgAAEIQAAChUoAoaBQ7wztggAEIAABCEAAAhCAAAQgAAEIQAACEIAABCAAAQhUAAGEggqAzCkgAAEIQAACEIAABCAAAQhAAAIQgAAEIAABCEAAAoVKAKGgUO8M7YIABCAAAQhAAAIQgAAEIAABCEAAAhCAAAQgAAEIVAABhIIKgMwpIAABCEAAAhCAAAQgAAEIQAACEIAABCAAAQhAAAKFSgChoFDvDO2CAAQgAAEIQAACEIAABCAAAQhAAAIQgAAEIAABCFQAAYSCCoDMKSAAAQhAAAIQgAAEIAABCEAAAhCAAAQgAAEIQAAChUoAoaBQ7wztggAEIAABCEAAAhCAAAQgAAEIQAACEIAABCAAAQhUAAGEggqAzCkgAAEIQAACEIAABCAAAQhAAAIQgAAEIAABCEAAAoVKAKGgUO8M7YIABCAAAQhAAAIQgAAEIAABCEAAAhCAAAQgAAEIVAABhIIKgMwpIAABCEAAAhCAAAQgAAEIQAACEIAABCAAAQhAAAKFSgChoFDvDO2CAAQgAAEIQAACEIAABCAAAQhAAAIQgAAEIAABCFQAAYSCCoDMKSAAAQhAAAIQgAAEIAABCEAAAhCAAAQgAAEIQAAChUqgoISCBg0b2aixEzyr9WtW2Y7tW2JzGzB4mLVt18EuXLhgL819OvZxFIQABCAAAQhAAAIQgAAEIAABCEAAAhCAAAQgAAEIVGUCBSUU3DhqnHXs1MXfjzlPPmpnz5yJdW8kMEybcZcvu2XTelu2eEGs4ygEAQhAAAIQgAAEIAABCEAAAhCAAAQgAAEIQAACEKjqBApGKGjonP1Trzj7N29cb8uXxHf23+QEhg5OYLh8+bI9/dRjsQWGqn7zuX4IQAACEIAABCAAAQhAAAIQgAAEIAABCEAAAhCAQMEIBSNG32ztO3ZOOPufdM7+s/FmEzRs1Nim3nqnv5ObN65zAsNC7ioEIAABCEAAAhCAAAQgAAEIQAACEIAABCAAAQhAAAIxCRSEUNDIOfunXHH2b9qw1lYsXRSz+WahwKBwRefOno19LAUhAAEIQAACEIAABCAAAQhAAAIQgAAEIAABCEAAAlWdQEEIBSPHTLB2HTr62QRznnDO/nPxnP2NGjexKbfc4e/hxvVrbOWyxVX9fnL9EIAABCAAAQhAAAIQgAAEIAABCEAAAhCAAAQgAIGMCFS6UNDYOfsnR87+dc7Zvzy+s3/U2AnWtn3mAkNGhCgMAQhAAAIQgAAEIAABCEAAAhCAAAQgAAEIQAACEHgPE6h0oWDU2InO2d/BzyaY/cQjdv7cuVi4GzdpapOn3+7Lbli32lYtXxLrOApBAAIQgAAEIAABCEAAAhCAAAQgAAEIQAACEIAABCBwlUClCgWhs3/92lW2esXSqy0rY2n0uInWpt0VgWGmExjOxxMYyqiW3RCAAAQgAAEIQAACEIAABCAAAQhAAAIQgAAEIACBKkWgUoWC0eMmOWd/+8RsgpkPO2f/+VjwmzRtZpOm3ebLrl/jBIaV6QWG8ZOnW82atWLVq0KHDh2wJQvetIFDbrDWbdrFPk4F5z07yxo2bGQjxozP6LjNG9fZ1s0br6lzdurc1Xr3G5DRdS56e74dOXzIsr0n19I5L7i+XBX6QS79vSr0g1z6O++g9K8XvWuvpfdBLv0g2+vkHZS+/0TfubyDUjOqar+D6Ael9wPeQan5aCvfRenZaI9+9/NdlJ4R30Xp2WhPVfsuyvZ3f7bv6Mr4bVoZ5+QdlP454x2Ung3voNLZRHv5HRSRSP2Z6++g1LVWzNZKEwpCZ/+6NSttzcplsa949M1OYGibEBhmPf6wXbiQXmC4+4EPWbVq1WLXfezoEf/Df9zEqdayVZvYx6ng4w8/ZM2at7AJU27N6LiNV3IzXEvn7N33eus/cEhG1/n6y/Ns397dlu09uZbOqRkuVaEf5NLfq0I/yKW/X0vvg1z6QbbXeS29D3LpB9leJ++g9F9P0Xcu76DUjKra7yD6Qen9gHdQaj7aqt/92fKpjO+Fyjgn30Xp+w/fRenZaE9V+y7i93Dq/hD1g2zftbyDUnPVVt5B6dloT9T3sn02K+Pfx5Vxzmyfzcr4TVIZ58zlHVR6D83v3koTCsaMn+xH7F+8eNHmuNwEFy5ciHWlTZo2d7MJZviya1evsLWrlpd6XJ/+A61mjZqllgl3njhxzLZt2WSdunSzJk2ahbtKXb58+bKf2VCnbl3r2atfqWWTd+7ds8v279t7TZ2zeYuW1r5D5+RLKXV9y+b1durkScv2nlxL51S/rgr9IJf+XhX6QS79nXdQ6tdJ9K69lt4HufSDbK+Td1Dq/qOt0Xcu76DUjKra7yD6Qen9gHdQaj58F6XmEm7V736+i0IixZf5LirOI3mtqn0XZfu7P9t3dGX8Nq2Mc/IOSn6yrq7zDrrKItUS76BUVK5u43fQVRbplnL9HZSu3orYXilCQdNmzW3i1CvOfufol8M/ro0ZP8UJDG39D89MBIa49VMOAhCAAAQgAAEIQAACEIAABCAAAQhAAAIQgAAEIFCVCFSKUDB2whRr1TpzZ384lUahihSyCIMABCAAAQhAAAIQgAAEIAABCEAAAhCAAAQgAAEIQCB7AhUuFITOfiUhVjLiuBbFB9MUMmYTxKVGOQhAAAIQgAAEIAABCEAAAhCAAAQgAAEIQAACEIBAegIVLhSMmzjNJQlu7UMHzZ75iPuMl5ugWfOWLjnsLf5KVq9wAsPa+AJD+stnDwQgAAEIQAACEIAABCAAAQhAAAIQgAAEIAABCECgahOoUKFAyXbGT044+1ctX2Ib1q2OTf/mSdOsRcvWPumxZhNoVgEGAQhAAAIQgAAEIAABCEAAAhCAAAQgAAEIQAACEIBAbgQqVCgYP3m6NW/RKmNnv47RsbKVyxfbxnVrcrtqjoYABCAAAQhAAAIQgAAEIAABCEAAAhCAAAQgAAEIQMATqDChQLMBNCtAtnKZc/avj+/s1ywEzUa4cOGCKVzRpUvMJvAg+QMBCEAAAhCAAAQgAAEIQAACEIAABCAAAQhAAAIQyJFAhQkFxZ39Dztn/6VYTQ8FhhVLF9mmDWtjHUchCEAAAhCAAAQgAAEIQAACEIAABCAAAQhAAAIQgAAEyiZQYUJBs+YtrHr1GnbmzGk7eeJ42S27UqJO3brWsGFjv3b40IHYAkPsE1AQAhCAAAQgAAEIQAACEIAABCAAAQhAAAIQgAAEIFCFCVSYUFCFGXPpEIAABCAAAQhAAAIQgAAEIAABCEAAAhCAAAQgAIGCJYBQULC3hoZBAAIQgAAEIAABCEAAAhCAAAQgAAEIQAACEIAABPJPAKEg/4w5AwQgAAEIQAACEIAABCAAAQhAAAIQgAAEIAABCECgYAkgFBTsraFhEIAABCAAAQhAAAIQgAAEIAABCEAAAhCAAAQgAIH8E0AoyD9jzgABCEAAAhCAAAQgAAEIQAACEIAABCAAAQhAAAIQKFgCCAUFe2toGAQgAAEIQAACEIAABCAAAQhAAAIQgAAEIAABCEAg/wQQCvLPmDNAAAIQgAAEIAABCEAAAhCAAAQgAAEIQAACEIAABAqWAEJBwd4aGgYBCEAAAhCAAAQgAAEIQAACEIAABCAAAQhAAAIQyD8BhIL8M+YMEIAABCAAAQhAAAIQgAAEIAABCEAAAhCAAAQgAIGCJYBQULC3hoZBAAIQgAAEIAABCEAAAhCAAAQgAAEIQAACEIAABPJPAKEg/4w5AwQgAAEIQAACEIAABCAAAQhAAAIQgAAEIAABCECgYAkgFBTsraFhEIAABCAAAQhAAAIQgAAEIAABCEAAAhCAAAQgAIH8E0AoyD9jzgABCEAAAhCAAAQgAAEIQAACEIAABCAAAQhAAAIQKFgCCAUFe2toGAQgAAEIQAACEIAABCAAAQhAAAIQgAAEIAABCEAg/wQQCvLPmDNAAAIQgAAEIAABCEAAAhCAAAQgAAEIQAACEIAABAqWAEJBwd4aGgYBCEAAAhCAAAQgAAEIQAACEIAABCAAAQhAAAIQyD8BhIL8M+YMEIAABCAAAQhAAAIQgAAEIAABCEAAAhCAAAQgAIGCJYBQULC3hoZBAAIQgAAEIAABCEAAAhCAAAQgAAEIQAACEIAABPJPAKEg/4w5AwQgAAEIQAACEIAABCAAAQhAAAIQgAAEIAABCECgYAkgFBTsraFhEIAABCAAAQhAAAIQgAAEIAABCEAAAhCAAAQgAIH8E0AoyD9jzgABCEAAAhCAAAQgAAEIQAACEIAABCAAAQhAAAIQKFgCCAUFe2toGAQgAAEIQAACEIAABCAAAQhAAAIQgAAEIAABCEAg/wQQCvLPmDNAAAIQgAAEIAABCEAAAhCAAAQgAAEIQAACEIAABAqWAEJBwd4aGgYBCEAAAhCAAAQgAAEIQAACEIAABCAAAQhAAAIQyD8BhIL8M+YMEIAABCAAAQhAAAIQgAAEIAABCEAAAhCAAAQgAIGCJYBQULC3hoZBAAIQgAAEIAABCEAAAhCAAAQgAAEIQAACEIAABPJPAKEg/4w5AwQgAAEIQAACEIAABCAAAQhAAAIQgAAEIAABCECgYAkgFBTsraFhEIAABCAAAQhAAAIQgAAEIAABCEAAAhCAAAQgAIH8E0AoyD9jzgABCEAAAhCAAAQgAAEIQAACEIAABCAAAQhAAAIQKFgCCAUFe2toGAQgAAEIQAACEIAABCAAAQhAAAIQgAAEIAABCEAg/wQQCvLPmDNAAAIQgAAEIAABCEAAAhCAAAQgAAEIQAACEIAABAqWAEJBwd4aGgYBCEAAAhCAAAQgAAEIQAACEIAABCAAAQhAAAIQyD8BhIL8M+YMEIAABCAAAQhAAAIQgAAEIAABCEAAAhCAAAQgAIGCJYBQULC3hoZBAAIQgAAEIAABCEAAAhCAAAQgAAEIQAACEIAABPJPAKEg/4w5AwQgAAEIQAACEIAABCAAAQhAAAIQgAAEIAABCECgYAkgFBTsraFhEIAABCAAAQhAAAIQgAAEIAABCEAAAhCAAAQgAIH8E0AoyD9jzgABCEAAAhCAAAQgAAEIQAACEIAABCAAAQhAAAIQKFgCCAUFe2toGAQgAAEIQAACEIAABCAAAQhAAAIQgAAEIAABCEAg/wQQCvLPmDNAAAIQgAAEIAABCEAAAhCAAAQgAAEIQAACEIAABAqWAEJBwd4aGgYBCEAAAhCAAAQgAAEIQAACEIAABCAAAQhAAAIQyD8BhIL8M+YMEIAABCAAAQhAAAIQgAAEIAABCEAAAhCAAAQgAIGCJYBQULC3hoZBAAIQgAAEIAABCEAAAhCAAAQgAAEIQAACEIAABPJPAKEg/4w5AwQgAAEIQAACEIAABCAAAQhAAAIQgAAEIAABCECgYAkgFBTsraFhEIAABCAAAQhAAAIQgAAEIAABCEAAAhCAAAQgAIH8E0AoyD9jzgABCEAAAhCAAAQgAAEIQAACEIAABCAAAQhAAAIQKFgCCAUFe2toGAQgAAEIQAACEIAABCAAAQhAAAIQgAAEIAABCEAg/wQQCvLPmDNAAAIQgAAEIAABCEAAAhCAAAQgAAEIQAACEIAABAqWAEJBwd4aGgYBCEAAAhCAAAQgAAEIQAACEIAABCAAAQhAAAIQyD8BhIL8M+YMEIAABCAAAQhAAAIQgAAEIAABCEAAAhCAAAQgAIGCJYBQULC3hoZBoPwIfOr9bezj97W2PQfO24xPriu/iqkJAgVAYMSghvbjr3azCxcu27SPr7Ujxy9m1aqRgxva1z/bybp3qmv161a3mjWq2Ue/vNlmvXQ4q/o4CAIQgAAEIAABCEAAAhCAAAQgAAEIXCsEKl0oqFOzmv3DbW2smvvv0YWHbeWuM9cKu2umnR1a1bbdB87ZpcsV0+QWTWraidOX7Oy5SxmfsE3zWnbkxMWsjs34ZNfgAY0b1LAa1avZ4eMXYre+Qb3qtnnuEKvlnrVXFx6zu/9qQ+xjPzWhpbVrUssWbjtls5YdjX0cBfNH4JYBjW1kjwa2/8QF+9G8/fk7USXUPK3/Xda1xXW268gOm73ikdgtqOec+jteHGrVq5vNe/Oove9vNsY+NirYtUMdW/TYAKtWLdqS+PzUP221R549WHwjaxCAAAQgAAEIQKCcCNSsWcv6Xj/Q1/bO9q125PChcqq5Yqpp3aatNW/Rys6ePWtbN8f/d0bFtI6zFBqB3n2vt9p16tj+vXtsz+5dhdY82pOCQM/e/axuvXp2cP8+e3fXOylKlM+mOnXqWpu27a1ho0ZWo2ZNX+kBd87dZZyzst9B7Tp0spatWtuZM6dt47o15QMjy1pqOm59rx/kj96+ZZMdO1Y5PpyGDRtZx85dfTs2bVjrBvTF919leek5HVbNOQFq1qpl58+dy7ieXI7N+GQVdEClCwUtG9W0pV/r7S/3m7P32s9ePpC3S5cDqGebOr7+dw6et9PnM3dkx2lcq6Y17fWf9YtT1OY5x+1nfrDNlx3QvZ499q2efvkP8w7a135R8ovzB3/V2W4b3dSXmfhX62zX/pIduYFzmv30i11tSK8G1tI57SPH17nzl23+yuO+3g3vlK8g838ebGv3TWxuHZ0oIYe07Lwb3bt04yn7wo92WGnn+9pHO/hrautEgujYCxcv2/odZ+xff7vbnn078XKrU7u6rfj19eY0pSI76kSFrbvP2uqtp23my4ds5ZbTRfvKa2HVbwYUtSuq85JTXfa4PrT53bP2vd/sTnl92faD6BzR530Tmttn729jnVrXtnp1nCfU2WUn+uw5dN7+Z/Z++9Fje6OiKT9/9a0edsfEZn7fmA+utrWb4zNa8y99rFHdGvb2llN230+2pqy/PDZW1LNZHm2t7Dp+/bEuNrFvQ//+6vX3a/PanI7umazvnrtD7jk74ISJfNsjn3jZmtZv7oSp1+3LT3w6o9P97vs9bdqYJv6YUe9fbevdOyETC5+T5+cfte/89y57Z/c5Nzvhgl3Kz1dFJs2jLAQgAAEIQOA9SaCBcyaMGjvBX9v6Natsx/Ytsa9zwOBh1rZdB++AeGnu07GPi1tQjrEaNWp6x8G5c2fjHpZxufoNGtr02+72xy1d9PY152wfeuNI69rtOhOj2TPjD/TIGFSOB6ivyc6cPmUXL2Y3+zTHJnC4I3D7PQ9aLeeQ27p5oy1d9BZMrgECt95xnxcKJGQufOv1vLS4XfuONmLMeOe7Cpw97kxxzlnZ76Abbhptnbt2t7NnzticJx8tdz6ZfBfVq1ffbrnjXt+GhW++Zu/s2Fbu7YlToUSCG0eO9UWfmfW4nT51Ms5hFVpGwlS/AYOsRcvW1qhxE9/3LjtH27GjR2zdmpW2653tadtTr359L8i0cCK5jpXp2JMnjtuWTevd+22T+55J+E969Oxj3a/rVVSXth8/dsyOHj1sR48csb0FKJhWKaFATq83/yFxg776xG771ev5Ga3RuU1tW/CL/kUdobSFZc6RPv3z632RcYMb2SPfuM4vz1141D789ZI/lGd+u6eNvL5hovyn15ZwUPdyITPmfL+XNapfI+1pZ88/Yh//Tvk4feXY/6MTN27s2yDt+eTUbnfH0hL7JWjM/tde1rdrvRL7og17nTN80J+u8qu6po0PJ0bbRPuTPx976ZB97j922MVynD6xZ9aQ5NOUWJ/9hmP67eJMs+0HYeX/9tnO9oEpLcJNJZbb3l6SbVSokZuBsHXeEC8WbXHi0PD7Eyyj/WUe/NHUAABAAElEQVR9VpRQUFHPZlnXey3sr0ihYN03+1oDJ069uuGEffDn6b8oy4NbvVr17cnPJP6x8Os3f2y/ffv/ZlRtt46JGQE6aOHKEzb9zzMLsfXS/+tnA3vV96JAmzGLEAcyok9hCEAAAhCAQHYEbhw1zjp26uIPloNFjpY4JqfvtBl3+aL6R/myxQviHJZRmRl33m916ta1Hdu22KK352d0bCaFEQoyoZVdWTna5OyUydEp5yNWOQQQCiqHey5nzbdQUKNGDZtx1wOm0fCyo0cO2+FDiQHE+9zMk51lOLvf60JBJt9FCAXxenrTZs1t7ISpXrRMd8Salcu8YJC8v2WrNjb65kluIEF6n+vL8561QwcT0R8GDR1uEgvSmYSJt+a/YieOH0tXpMK3V7pQUK9WdfuP93fwF/6L1w7awq2n8gahopyRoYNYIXjeWnUi7TW9suyY/fdTiQ6Uq1CgEexL//d6H1dbJ9Rsg5mvHLZF607a9T3q260jm1g/55QvT6HgtZ/0tZ5OnJBpxsLMVw/bi4uPmUIIjR/SyCYMbeyd1Kmc2Wpruxa1/LGnzlzyx77kjm3vZiVMGNrIHd/Y9h1OLRScdOVfWXrMOrsZIu1b1rLmjRNfKqosFBd85Tn+iYQCXd/Tbx7x19PShePp27VusfN+56Hd9h+P7Ck6W7b9IKrg/36pq905NjETQGLLHCdGvOD4aDbDmEGN7C63T0JNKrZRHf/yuU6m/ASyj39li82cl5k49tXb21qHZrXs9U0n7aE3Mjs2akOcz4p6NuO0pdDLPHhjM5vQp6HtcyPd/3Hm7rw2tyKFgoEdb7Dv3/c//nq+/MSn3KyCzP9B/sbv+1vvbvX8jJvuU5baMTcTIq4tf2KgdWxb2066d3bnCUviHkY5CEAAAhCAAASyJKDQBFOvOPs3b1xvy5fEd/bf5ASGDk5g0Ai+p596LLbAkElTM3HOZFJvctlrXSho37GztW7d1s6cPWPrVq9IvryCWEcoKIjb4BuBUFA49yJuS/ItFDRr3sImTLnVN2fF0kWmUDWZWGW/g/I9oyCT76JCEQoaN2lq3XskBmmvWrHUzfw7n8ktzWtZtW3y9NuLziHhWCG1Tp08aRIQunTr4cLptfQigcSC0DT74OZJ04o2aWaUQqidOX3aHdvMuvXo6T5bWDqhYPOGxGDGho0bm/p97dqJiDeq8PWX55qEsUKwShcKKhJCRTkjQwfx4vUnbcYX4sVqzFUo+NWXu9stIxLTXiQO3PGlDSXyEkwe3tg7tx95IXen75iBjeyxbyZmQMjRP8GFQtq+p/i0XAkTv/pyN7vpz4vHarvn5mb2ky909bdfiUfHfnqN7T9SPLRJt3Z17H4Xzuh7LvyQLJxRoFBG49yMisgkSPzy77v5BKTa9vVf7bKfPL4v2p3TZyQUvOvyPAz9s9XF6vrWJzvaR29r5bedPnvJut23vGh/tv1AFUj4WO1CHmnmncIwfeCfNtury44X1a0FhSH6p491sL/9Sfo4gVtcboImjWrY8ZMXreuk9DMPilVcCSsV9WxWwqVd06esSKHg/mEfsT8f+3nP676fjbNjZ45kzG7q6Cb2+x/09Mf99Pd77Ss/TP9sJFe+4smB1sHNBjvq3kcSGTAIQAACEIAABPJLYMTom00OHu/sf9I5+52jOY41bNTYpt56py+6eeM6JzAsjHNYxmUycc5kXHlwwLUuFASXUrCLCAWFc2sQCgrnXsRtSb6FAs0q0+wy2dxnnnJhWY7GbVpBlEMoKIjbELsRo8dNtDYubKFMvx/0OyLZul/X2/82Sc67I0FLDn5Zutlp6s8HD+y30y7MnSycUfDs7JlOkEgMJFeYLeWT6NNvgC93woUten7OE365sv9UilDQv31dG9MrET4nBDB39THbkiLmvsr0alvH7hjUxNzAavuvF/b7XAO3D25iY3s2cLG6L9vbm0/av83d752qYZ2T+jayIZ0ToW1aNKxpHxqZGKGtmOtvuWNC+81bh23P0dyVrmwdxLkIBc1crofVvx1gLs+tZyCHtXIE5NPmuzwMPVwCUNlf/tt2U9ifuLbc5RrQrAPZ3X+/0d4sZdZFVGdpQoHKKMfD3B8mpvRIuLjugeUlhJKorkw+SxMKVM/WxwYV5Q4QdwkGsmz7gY79xd91K8pF8dCzB+yLP47v8NTxMo2O1ihp2QtvHbUH/nqjXy7tT1MX3ul9bsR6sq3Zddpe21j8eYnKaFbQZya29KtPLD1qJ9z13zWkiY+jr/wGK3aetn9/fn+JZ6syns2ozfps07i9jew+3rq36mWtGra1mtVr2p5ju2zJjrfs5Q3PuS+GxH0Mj6ms5T8Z1dzquVwBoR0+ecEeWZjamZ7tPYnes9F5PjOppeNSzfYeu2B/ePtwtNl/vuLCEZXnDLB/vO3fbOx1k+3k2RP2gV9OsXE9p9qQTjdaswYtbfO+dT658btHy34O9r9xg09qvG3XWRt278pibS5tBaGgNDrsgwAEIAABCJQvgUbO2T/lirNfo0c1ijSuhQKDwhWdc0l0y8MUzkg5DyK7ftBQH1pAYQE0ajC0gwf2pUw63KJlK++A0GyJui5WtOLhKzmxystxkMrKEgqaNG3uE2Xq2GMupvH+fSXzkzVweQ7atu/gHBgtrX6DBj50xyF3vp0uxrKEmPI2xZ9ODrugJJClJTrt1KWbHz0pHocPHXSs2ztW7X1856OHD9v2bZtTMs227QoP0aRp4t81Sp7bt3/i30VioqSsoe18Z5uflRK18eiRQ6YkqmVZK5fIuXHjpu7Y0551WL6Vm2XRqnUbP0JV23XNGi2qvlCepvvQtXtioMzud3f6uNjt2nW01m3bubAate3w4YPeEZYqrJdGx2p0rUS6d3fuKNEsOdPq12/gHVt797zr90fPie73KRd3vHvP3m5wWzUfoktJZzu5vtGxczc3C/6ibdu6ycXfThwXVR4KBWtXLfczg1q3aef/7XXAsVGYGY3OLc002ld85bBT0tsjhw6Z2ndgf8lnI6ynS9cePmGp7oXCguha2nXo6BPoKm+FnhmFMktOvKrrU59Xn9IxsujZFjdxKE9Tf23vEuTq+urXb2jVqle3Yy4czxHXL3WPUyVczaUfRG3XaGol5tV7TPdATBWnffpt95R7joLoWdO5W7rnpIMTjWXqE+eChLIKQ5TqvlbGO0iCo+8H7rmpVq26e553u+d+mw0YNKxccxREz5gH4v5k8l2UPKNg3749Fvd9EJ1Pn+oHes7UJy66RMR6Zna5vl5aeJzE81HSz/vO9m3+fRDWn7yc7bOZXE9Z68onMOWWO3wxXVMm+Y2au3wE4ydP98cqr8D8V18s63R+fzqhIDpYuRzUr2QLXF6JskJt+YJ5/lMpQoHCmfz5zSXjrpeWzFjldZxM+QW+fle7EmjePXLexn1no50NHOQP/0VXG3VdgxJlU234yC932Atri4/aTlWurG3ZOohzEQq+8P629oUPJJho5PkD/7iprGbmtF+j2eUgl509d8m63Ls8dn0hHyUj7v3+eFNUyxIK1IBFv+xvHV3SX9n7v7bZXlqSe5yvsoSCMITS1L9Zbys2JZTD8DozmVmitofiw4APrywx20JlyrK/+Ug7+8pfJP6x86Pf7LF/+q+dZR1iw7vVt8c/061EudKSGXdqXtve+IfEj9Ofv3LQ/nR0c6vjQiKFdt7NipjxH1ts7e6rI8Uq49mM2vSlad+0yX2vTjeLtkef7x7ZYZ/67QNOhMxfKLToXHE+t/9rfy8ChmWVjD1dMuNs70n4ng3PlWr59044+NKjxX/4pyoXd9vvPj7XWjZsY2Jfu2Ydvxwee9H9Y+MrT37GFm9/I9xcYnmzm0XT1M2iUQLiVqPiOx02PDvYWrjwbcwoKIGUDRCAAAQgAIFyJzByzATvoJMTe84TztkfM1lw+I/8jevX2Mpli8utbXJUDLtpVKz6lOgwOSTB9Nvv8U7VdBVoZKJyKSQ77ksTCuR4GTthinfEnj9/3l56fo5p1GFoGvk4eNiN4aai5SPOSfzGqy/ZGefILk+7+4EP+TaFdZaVzPi2ux/wQoHCPEjMkJM62d5+49VSE0gmly9tPXS+lFZO+1598XnvjJw4dYZ3jB06eMCFjnimrMN8+Ao52uXIVB2y6tVr2NDhI7zjMFUFWxRma+nCEv0gVdk420LH4KrlS6y3G52qZMGhyfH9ovpOUgzsiJGcwgrhlWwRD4kbr7zwnN+txNWKCZ/KJMJEOUei/TouFEcioUBOaDnektsqh71YRjHqo3r0KbaDb7jR1IZUtm3LRv+MXdI/BFLYHfe+38fB17OoMCP9Bw4pUUrCxvxXXyjaLufwxCkzvKO8aGPSwpOP/a7cEmSHo+uTTuNX9R5QiBI5OUPLpR+onm4uTMyQG24Kq/TL6tvq4wqREiexcIkK0myI3gdpdhdtTnfOin4HyWmumPbJAqnee0ec0NnaiYbllcw4l++iXPuBkvSOHDPeh88pugnBwpKFb5mes1Sm7yoJeMkWJ5lxNs9m8nnirA8YPMx69u7niy56a77t2L4lzmG+zLAbR/mwRFrROyJZBE1XUVlCgQYDTJo2wx8u8en1l+elq6rCtleKUHDLgMb2YTdCVla/djUb1qW+X44rFKjwBRen/fUNJ+2Uc1JP6d/IatVIOCa/PWev/eSlA74+/dF5xvVKCAWN3ejmSDTY6sLIrN9z1Wmpsjo23YwG7Y9roYN49dbT9iffSN/59hw8X5R4Nxeh4Od/29XuGJMYMfH5/9xhv5tb/IsjbtvjlruhTwOfiFjlM3WC3zaqqf3ChQmSKZ+BwurEsThCwQ//uou9b1Kib5VX+KGyhIIdjw+22rUS/U+CiYQTWbb9QMdG5zzs4tD3/UD8UdE6NrInf9zbxgxr5Ffj5ieQg/m797ePqrDRTmTTLJW4QkF04OLtp+wdl4haM340k0e2wOUfuffHW6MilfJsRid/5BMvW9P6zW3n4e22ds8K233kHevcvLsN7TLCGtdt6ovNWfmo/fCFb0SHVOrnf3+kk0sqXMO3QTOkGjqhLq5QEDU8zj2RUPSJQMSd2r+xv//Hz1y0+S5PRWgzlxy1p1fkLsSpTgkDs/9yYVi9rd+7ylbuXGzje08vEg2OnDpk7//FJPfOTJ974PXf9re+Per5uib92VpbtrZ4u4ud5MqKkn5veyHxD4Xdblbb9bevSFWMbRCAAAQgAAEIlAOBxm5E3+QrI/o2rnPO/uXxnf2jxk5wI+c7eidrJgJDnGZr5KTiC0emUdoaSXz61CkXg7j4gJtd7+zwo0mjsvqMHKCagSAn3okTx/yIbuVS0Ih/WSqnVzqhoE3b9j5hoo6TM+rF5+aUGLmskAX9BgxWEe+oVOJljXRu4QQGOa5kCuOhcB7laXIo1qyZcEbLMSRnalyhIGqHGMkJqVH/GlEuUx26r8liSnRMJp8aoakR/TKNrI9GbGokuUYph7Z+7SrvOI6cSDr/zEd+ExYpsVzdjfK+6/4P+u1r3CjoKD9DlFhVO+Q4lPNc/1Ls2KVrUTzq8hS5Qsegb4z7o5kdJ52gpFHBmt0i08hwCTGh5SoUyGktx1Y0Glx1S5TY40a9R7y3bdlkSxa+WXTa6DmJNqgf7Nuz2zujNbpfJv6zZz5sqj+0cROnFc2u0Sh+XdNl5xdq36lz0XWWFo4sckZKMFEIM5me1+NuXRzlDE521IXnjEa3S1jR8QqdJqHjqT/+vsQshLDdmSx37e6EmOEjPQONWj5+7JjLBXnWmjRpVsRU9YUhTLSeSz8I3zUSavSeuuDY6x7q2Y4s1fsr2pfpZx83w6felbrlKBV7mT93EM9+v5IZu/ucbBX5DpJIMuOu+4vEUc0i0X1p065dMYd6eQkFuXwX5dIP9E6/9c77ipJK612pZ7OWu37F7Y+STb/x2ovuGd+VfEt8wt7oPjZyMfgVq1+WiVCQybNZogExNkSDFFR0lt4xweyVsg5XboJI4Nb3Q9zvqbKEAp03Er5OurBEz7nwRJVtlSIUhBfd0oXMWfq13n5TXKFAo5MnfG+TbT94zh/XziWWfesrvbxDa4fbNvrbqRWuioqDHjqIw2tNtRyG7MlFKHjmB71tSK+E4BI3lE+q9sTd9qe3tLTvfrqTL64Evx/91lUHcFl1hLMfMgmrE0co+NIH29nnH0z8KP7DvIP21z8sOYWyrPYl74+c9sk5CuRA//nfXg0RtNuJPkM+sqro8Gz7QSc3I2Khmxkh27r7rI38xJqiOjNZiBK76phBd62wnXsSz0smdaz5lz6m8EGZCAWf+PU79szKhAO5phPwFrhns5V7zmWdv7javVBLtqCins3ozA8O/5hL0DzPCwXRNn3Wq+VmVHxqvtVwo1U0sv0j/3tbuLsgln/9sS4+rFMmQkE290QXW1E5Cvq2G2g/fN/Vf4z910vfsqeW/6GI938++Fvr03aAX9dMj8371xXtS1546LvX2a03J8SeT3x1i/3x+UPJRUqsf97Nvvnyldk3by47Ybf9Rfr6SxzMBghAAAIQgAAEMiIwauxEHybHOwOfeCT2P9TDBIQb1q02jZ7Op2Wao0BOezlo5XhMtnCk5azH5QC9+rs8lVDQzokhI50oIpNT8sW5c/xnWG/duvXsljvu9c4rzTLQCPgwDFPPPv18SAwdI0etHLb5sMgxnolQsGGtu38rrt6/wUNv9CFs1L7kEejl0WY5OxVnXZYurrT2KfTUKBe/Wjb36Se9A9mvpPijsDBRAtaozeF5dE80AyRydsvZOGnabaYRu+r75SV0JTsGw4SYErqUtFMzcWSPP/xQsSvJVSiQQ0uOLc3E0Sho2bxnZ/lnIHKOyfH3vGMZWSgUbN+62RYvuDpbOBzVrhA0a4Pk2OEzIWfyorfnFznqdJ26b3J4y3S+5NkT2h4JBVpONTJfYZYUduedHdtUxI8ev/O+D/hliQQvPDfbL0d/dF6JMQq5FNdpGB2b7lOzLCSe7XChuOS0D02hxSZMucVvShZEcukH0cwRXYOuMXqHSQSZ6PpsaUJn2L5sl8MR9AonlypMVml15/sdpJknvfte75ug/qp+G1n0DGm9vISCqO7oM5Pvolz6wSD3Hu7hQonJkr8z9P6aOuNOL3bqOp+Z9Uc3gz8xQDZqZ/gpkUlsZJkIBSof59lUuWxM70P9lpAlvw/Lqu+W2+/17289l5pFFNeid6HKJwt8UR1RHpBM646OL+/Pa1Io+G8X3uTrs4png5712e422I20Penio/f58tqUnCrKGZmtgzgXoSAMfzPoT1fZXjeaO58WJvH9xaz99pWfXx1lo1wBg6/M4ojasHbbaVOCZdn//VJXu3NsYvbDtx961374yN6oWKmfcYSC909pYf/+2c6+HuU9kGiSq0VCgZIKb9p51lfXsF51n2OhVk2ND0mEX7r3y5uKrlHbsu0HM9yMCyVmlonZbV/c4Jcz/bN69iBr27KWd8y3HLko08N9+UyFgg0umfWk7xf/R8jnp7a2v5naytc34l822C4XIizZKurZTD5vqvUoLJGS6SqpbqFZpkJBtvdE111RQsFdgz9gnx7/dx71c6tn2g/mfq0Ydgk7Hx39Ob/tm09/0V5xOSTS2d9+vL19yf0v+/qPd9oPHyr+XaHtDdzz+1//2M3qupkZPTrVsR6d62qzG61z2cZ9aLVt3H7Gr/MHAhCAAAQgAIHyJRA6+zWKe/WKpbFPECUg9ALDTCcwBM722JVkUDAT50xZ1Sp/gAQSWeRUjo5JFgrOu1H1UWJPOWEVQzkUAKLjBg0Zbj169fGrqZzaGvEup6xCZWhk6Mvzno0OLdfPTJ10coRILFEM+8jCnBWZhoOI6ijtM3TglyYUaETtHfc+6KtassCJKy7GvkwO7GYtWtgBlx9CszZk1/XuawMH3+CXn3j0t95pFs7wePP1l70D2Re48qdzl+52w4jRfm35kgUud8D6cHdWy6FjcL+LR/7aS3OL1SPHnxyAsqdd0vAwDFXk5Mw29FDkaFMoD83GkEXbIqd/svM0FApmO6EwuW9HIWmSj1NccQkeEqR0HclOSo3ClsNbFs7w8Buu/AmFgvmvuNAhV/IuhGXCZeUKuO2uB/wm3XeJE5VtSuSu2QzJ4bGy7QcKA6YcBLJU16icE8OvOHzLc0ZByLGihYJM30FRn031nITvluQ+G15jLsuZfBdl2w80W0DPh0wzgt547aUSTZZYEoXrkjCtPpjOchEK4jyb6c5b1vboHSAxYtbjfyhWXLPjJP5dtcs+J1AkAkaj/jWb6dlZj18tVsZSHKEgEutUVXnOUCqjaWl3X5NCwYM/21YiDMZPPtzRbnfJjt3MM+viRi2nsopyRoYO4u3OcfpPvyw5LSdq3/yVJ+zYycSPpFyEgpUPDbBWLr62rNeDK4rqjM5T3p//5pzxH3BOedlPHt9nCvMT2e//uYdNGNo4WvWfSzecslv+T+KH0P9+pbtNvykxquGf/2eX/XRmvIROcYSCe25uZj/5Qld/ziXrT9qtX8jOyR42PhIKwm3h8hvuHn7465vtpEugHFq2/eC+Cc3tvz7fxVeVi9ix7ulB1soljJbA0WZ0/Cnd4TVkKhT86vVDPodIWMfdQ5vYf34gMY307v9yoz+2nQp3++WKejbDE7dv0sklSe9v+mzVqK2fRaD9I7q5mHwuLNGW/evtL357f3hIQSxnKhRke090sRUlFPzd9G/bxD6JH/Yf+dUMS05afFO3m+0bd/7I8//WM1+yl9en/4fuX36wrf3zXyX623d/8a59z/2fbJ3b1bGlMxMzFKJ9C9xzfNdnNhSFDou28wkBCEAAAhCAQPkRGD1ukk9gm3D2lwwtku5MGmGr0diy9WucwLAyvsCQrs6ytmfinAnrSiS4beLi8Df0IW+0T6P/JRbI3nAJEPe4kCKRhUKBwrBopLpMDtHnZj+RVhAJQ6Io7r2Pb3Ol0sjZ0b5DZ6tTt64fmZzJCMgr1cT6yFQoCOPdRydQ7Pm77k+M3FYoKoWkKk8LnXmlCQU6Z5RrQsmVF7+dGO0eOZcUhkojaWVRUm2NvtYoelk4sj5VaAqJNtEI9eQR4b6CLP6EjkHlzVD+jNBCkUqjxcOwS7kIBeHI10gU0HMdhWyKRJGwnNoVOV1TjdDX/qg/aTkSHbQcOekU2miHRnQH/ryov6sdMoVFUXiUZEt1H5PLJK9H59W1KSeKktfKYZxvU59t3bqdz+ehWShKnitr37GTH9WdHFIs236gEGVjxk/xdacSt8Jn870iFGTyDlLfUh+Q6T27zAl8yRaJWIUmFGTyPghnSOmdJlE0esai50shiKIcJMuXLPRJ0pNZROvZCgXhOzaqqzw/9f7VezjVDLh73vfhEqcKxcxov2aLPT/niRJl022IIxRodlr03T/bDYRQ+yrTrkmhYOS3NtjOpBHz33+gvb3vxsQo9U5fKByhIJP4/bkIBS/9qI/17ZqIHyeHvBzz+bRP393avvrRxI/dP7582D7zg21Fp/u1EwKmXRECoo2hUKDjdLzsl242wpeD2QhR+VSfcYSCzz3Qxv7+w4nRxE++dtg++b1tqarKaFskFMjhvn7HGedQrmbd29cpykvgfjPYZ/99uz360qFi9YZCQSb9oJ+7jy+6+ynb+M4ZG/vp1DNkip0sxcrCR6+37p0SI6W7Tlpqx68IUimKpt2UqVDw9af22H+/erBYfcoh8j9/1tlvSyXyaUdFCgVdWvSwT4z9gg3vmhjNU6yxwcqL6+bYd579+2BLYSxmKhRke090tRUlFPzvR2Zb+6adbeuBjfbJ39xbAvQdgx60v5zwD377p3/3gG3at65EmWjDT7/WzR64JfEP7M99a5v95qmSIx00o+Dn3+huDVxYrd7d6lrrFrX84adOX7IbH1hlylOAQQACEIAABCBQvgRCZ3+qZMClnW30zU5gcGFF5KzTaPQLQQzr0o7LZV+mQoHi7CvZoZx6pVmyMy4UCpKPe+WFZ10i2P3Jm/161L6UO1NsTOW4TlEs402RYzeV4yWsLBopns7ZGDlhUjm3wnqyWc5EKIiuJ3IGhbNgdO5nnvqjnXZ5ICL+mzastRVLE7O3I/Em1WjVqN2R4zmdMzsqF/czdBBL2JDAEZryNCgJq+yluc8USxKci1AQXmM0IjwUBZSb46ZR4/wzG4kHakMkFKQbtdzXxa7ve/0gFfUJluWUD++f31HGn1C8CYtGQkFyHoKwTPJyOIo62qe+vs/Fzl/nwiMdczlAytPkxBxyQ/pk2NG5ov4ZrWfbD5SLRcm3ZUp4feRwcZ+Gtkd9Nt2zqzK5WNR/VEdFhB5Kdx2p3kHh+1kz4DQTLtnGjJ/s86wUmlCQyfsgvAfJ15dqvaz8QtkKBZk8m6naVda2qTPu8vlMQlEzOia6/9G6PkOhIPoOC999Ydl0y3GEgkigTtWudPXmc/s1KRQM+/p623fsQjEu7wWh4KZ+De3J7/b01zV34VE3Sj0xrTG80Jnf7mkjr2/oN4351FoXCueMX37oq91tyvDEKP1P/es2m/nq4fCwcl/WjAHNHJDNX3HC7v3yxpTniJzsoVCgZMNKOizLJL9BHKHgXz/TyT48vaWv+/u/223f//0ev5zLn+gaknMUKHzSz77Y1an7Lo7ahcvW/0Mri83kyFYokBCx68nBvsn7Dp+3gX9S8ssozvU8/8u+Nqx/A1/0/r/eYC++lcgbEOfYqEymQsFXZu62X88v/uOikISCjs262H9/+Imi2QMLt823jftW2+lzp+zshTN+ZsH9wz7iL/8nL3/Hnlj2uwhFwXxmKhRke090wRUhFCgfxDOfTYwKfHL57+3HL327BGuFJVJ4ItmdPx7hEjmnF0Ln/k9fG9ov0e/v+asN9srCsvv9//tOD5sxPiE0v/T2MbvvcxtKtIENEIAABCAAAQjkRiBypsiZOMeFHNHI4DimRJeTpiVmHipmuWKXV4RFjuBU4TiSz6+QKIp9HI28lBPxiJsdoDAv+oe/wnsoPIvsLReSRrkMIgsdUdp25PBBF6O8ua9LDgmFOEgVZily3mkE5sYNZYzAd23YtCH9QIuoLdl8Ro71uEJBOFI/PF/kpKlsoaBTl242fMQY3zTNwlCIof4Dhvi42YrZvnTR235U+e13v8+XedOF6NjtQnXIovjXpY2KjRzl5RUOKnQQL3zztaL4+r5B7k9FCAWdu7qQSjeNLjZzRYl+Nesi2fEVXX86Z23omFcSbo2cD0XGA/v3uednR3R5KT9PnTxpSjibbJFQkJxgOblc8roSmA4cckPRiN9w/+5dO+2t+S/76wy3Z7scJlvV879zx1afaDt6Xyr3iHIpJCc9zbYfhLlMovwSyW0v654ll890PXRSV4RQkMk7KOx7K5Ytsk3rSw7ijGYXFZpQkMn7IAwftnXzRpefpXQB7OD+/cVEx+R7nq1QkOmzmXzestaj3yEq98SjvysWAi86NhQrQ6EgDA8UznaKjkv3GUcoiGY6lPbdka7+fGxHKMgD1WwdxAOvq2/P/3siechLS47Z+79WfDSAmjrre71seN+EEyzMRfDPH+9gn7wzMUr/4RcO2ef+Y3seruxqlS2a1LTVv0mE7ijNmR052UOhQDkM5v4wMWL+nX3nbPjHUs8AuXq2xFIcoUD1qn7Zx7+91Wa/cSRxcA5/o2tIFgpUpfIhKC+CLFn0yLYfqK53Zg425T9QKK2u9y7zsdO1PRP73hc728fuTfSJb/5sl/3b/+7O5HBf9r0mFPzmY89Z60bt7NyFs/alP/65rdm9rBiTu4d80D5189/6bZ97+EO2dveKYvsLYeW9JhT0aNXHfvrBRzzan77yXZu59LclMP/hz1+w5g1auRw0Lu/IT0eV2B9uWDtnUNEMgY7jl9jppJBgYdloOQxFtGvvORt4Z+Hd96itfEIAAhCAAASuRQJh/PDkJKVlXY/CYig8RqYCQ1n1lrU/E6Fg6PCR1rX7db7K5BwE2timXXtT2CVZaULBXheSSLGhNcp3yA03+fLaNt+FK0q2aGRkcrLY5HL5Xn+vCQWaEaKklTLdy8hBrJkgI8eMt7273/UhN6Kkx7NmuhBa5xKzUaM8GuHI+mT+kSCyc8c2W+Ac+7latg5inVeCiISRVLHXtT/qY2Golq7drvPhgcJRtdkIBRLTlHg52a4fNNR69envN0exusP46enCvyTXk2o9Egq2bt7gBZ9UZUrbppwFimOuEEd6J0WmGSWaWZKrhfdSfOa/Mq+EABGJUeUlFCiUTJQTJdW7S9cU9dl04k6u113IQoGS+GokuWydE6qV/yLZxk+ebkpCfS0LBUrKrfebLHnWm9+Y4Z9shYJsn824zdP3ahSiLN2MvXRCgWZIaaaULDmMW2nnL0soCJ/78F1bWp353le1hIJmtezNLyfi1ikZspIi58OydRB3aFXbFv9P4kvx7dUn7M6/KzlKP3SEd7l3eVE87dD5fso5xrrfX/IFVt7XuvHhgSbnvWycC4+zwYXJSbbIyR4KBW7AvG374+Ci0D03fny17XDOubKsLKGgjYvHv+x/r/cj/OVg7/P+8snVEF1DKqGgdq1qtvmRQd6prxBEA/9kpe0/khgdlW0/EId5TvC4/org8c1fv2s/eixewueQ4U0DG9rTP08IMk++cNg++uWSwlNYPtVyhQkFFfBsNqnXzB795Cv+Mh9b/Gv7+Ws/KHbJ1VwQvl/+6VOmWQeyGT+6wc5fTN0vJ02eYlOnTS86ft7c523u888VredzoTKEgjc2nbT3/WxbXi7r1gH32V9P+qqv+4cvfMPmrHy02Hn6thtoP3zfb/y2h976qen/0mz3a8P8u+Wgew57TS8uBJV23KbnB1uzxjXt6PGL1n1KYoZDaeXZBwEIQAACEIBAfAJjJ0zxDrZMnf1h3OR8jDQv7QoioSCOQ1f5EzTyVDkGlHw42cJR0qUJBRqtLkeJLMrnoOVlixfYlk0uD0Fgo8ZOcHkPOnoBRQ5VjdyuDLvWhIJU4TiSuUUjqOUY7ONC4USjPOVoVmiYjevXeGd2tD06PnQIhSNRo/0aCa4QE7JMw29FdSR/hk6mTEYQq57IaZZO2IhGuYbOq/ISCtKJE0r6rbwKyTMRIid/qoTNyUzSrUd1lIczsmWr1qZQU7J0YZTStSPd9vbOWTviirP21RefM82eCE0JynVPNHOpvISCZs1b2oQpt/jTLFn4lm3bUtwHVc/12Vuu9NmqKBQITDR7a5ebpfL2/IQ/IbwvUUiafAsFcb6Lsn0fKEG2EmXLVq1YYhvWxhvMG3IIlwtVKNB3pr47Zen6czqhIBS0NOti6aK3wktOuxx+Lzw7e6abIXSiWFklgo9mHKYLb1XsgApYqVJCQU3nod76vcSUzz8sOGxffOTdvCDOxUG8+6kh3tF9xDmr+nyg+KhWOdg3Oqd0g7rVfaibTncXd4KFeQr+/eE99t3flBxB3qRhDevSto6t2HQq52v/9D0uT8GfdfD1rNxy2qZ8ruR01sjJHgoFOuBrLk/Bp67kKVBbpv5N8R++KqPrHTmgoQ9tpPXShALNcHjqu72sR4c6KmrlOasiuoZUQoHO9a1PdrSP3tZKi/b8gqP2J9/Y4pdz6QdDetW3Z37Q29dzQnHTnZhyKCnclnaOGdjIXl9x3JdL9WfP68O8iLFt11kbdu/KVEVK3VZRQkFFPJvDuoyyb9/9M3+9qUauPzj84/bR0Z/1+/cd320f+mXih18qQF/9p6/bzeMTXzDaP//11+yrX/mHVEXLfVtFCgVvf6WXyx1Qy+eEUW6YfNj/mfLPNq3/3b7qN7e8bF97KnEPtEFhif7zwd9az9aJ9/Y9Px1jJ84eS9uMbh3r2KLHEjOdnn3tiH3wi5vSlk3eseLJgdahTW2EgmQwrEMAAhCAAARyJBA6+5WEWMmI49q4iVOtZas2FT6bQO2LnP8KBfTi8yWd/+E1RMksNcp6ththHjrt5dybcdcDLrFxIidSXKGgVu3aNv22e4qOSw4L0v263jZ42I2+GamEhLB9ciyGbQr35bp8LQgFun45+2RxkmFH4V/ETMdudklMl7skptEI/Gh7cliq0JGUyuFz/UA3Wr5vYmBgeYza1fVk6xjUsX36DbB+AwZrsSj3gl9xf5QTRLlBZPkQClSvRDWJa5HVrFnL7rj3Qb966OABe3neM9EuN9p5grXr0NGvJz8LRYXcQml9vTyFAs1ykKCk8+UiXoRtb9OugxMIJ/pNSprrk5QHBa7r1cfNcBnut5SXUBBeRyqhU/1D/USWzrHqd+bwJ3xuCi30kC4r+i7Qc//UH/8/e2cBH9WV/fGDxEMMSCA4JLgVKe5avLRQ2UJZ2pXqtkt12erW1ipb/be0ZcuW4lLcLUBwdwLBAwmWECAJ8r+/O9zhzst7k5nJJDDJOf008+bae+/7JOH87j1ngvh9ZJsYijpdMCoooUDt35XfRZ6+D3Af9xPh1PB7Cr/HEB7wxo0bOMVc5uwZU43vVqEAx6dWSuF6LhGJ6I15RqyEApx330FDZDJx9MV7CKHRjAZxDavMVC4lZ0IBVhtCHMXYCC8G7hBu77QVK6EAsPd/WI+C/ErSNTHl/Olxx2nV/kvC8WT+AHh6cXQHMZzLX0x1VIL1cVMv5NCshAv2orn/qk3N6oTI73C+//6jw3T4VBbVFklpf/hLDYqrHCjrVm3LoCF/dXSC3StCEv0qQhMpQ5LhzyalyJn+OKbhInb/HwZF04J1F+lJMa437NDkJhQshAsYVhS8/s0xWrvjkrzRX3wohl56tKKsMwoFCKuDvviE7T1yVSQ1tvUNDy1NfduG0xsjKtHV7BuEEEswXShAuKMPx50iJP6tUzVQ5m1QYyFfQO2Ht9MVL13XvISCoICShNUVpUvhD3CihsN20NmL1yg/9wHOd9VX9Sj+VjJiiAWjPj8qhYjr4t6FQPDOE5VkfYX+1rOfJ34ST93bhGM4avvILtp3+IrcdvVHYQkFOJ6CfjaRxPi7YdPlqZ+8cJRGTf4tnc1MJb9S/vRE+xdo8D22fzygwaoDi+hvc0bJtmY/iotQMOmp6tSmlu199I/5Z+iXxPOUdun2H0ZmbNwtwzXBtYFdv3FdcP8zrU1aTpEhZem5LqOpXZztHyiTNv5IYxI+cTr8+H/FU6/2tvu98/DdtMONpO5KKEDSbyT/ZmMCTIAJMAEmwAS8Q0AleMU/fmdPxz+CXftbQp/pauZ09c7RWY+iEr2iBWb6nzh2hBCH38yUAxl1ONakA3vlP/oDAgOlEwBiiTJXhQK0R5gTrMaAYfb6wrkz7E4EOBZ69btfxiuH02LHtk2UJPIQYBuGkBkICYOZishhYBZbWzbM5w9fEApwimrWL+7DtauWEhzRKu67EUGt+LoE546yVSJETqoIBaPi7qty4+oEoyNpbcIyMdv8hGyuh3gxrkRQ43ny6aljEPuqIBzTKoTS6ZSTMiwW+GB1DO473EOwghIKsKoAYsDly5kEhzXihyOEC2z1yiUyzJP8In7oqzHwHG5Ym0A4ZmUhoWWoZlxt8X8dKUAgobHR3BUKQkJCqVO33nTwwB5KTjpof/4Rgqi+SLiMfcHcDadmPC71XU/aDCbIf3HxwnlZrTvTUeAtoQBjQXA0Oxes7IATU1lxFQr0sDwQhdasXCZ/j+Gew2oM9ZwUlFDgzu+i/LwPdOc+klojNBpC28HwbsPv5HiRsyVaiIizpk1Qt4Xppz7WPJFn54q4n52Zu8+ms7HyqlOJ1tEO77sNiQni/X5KCiQIPYcQQ+o9ZFwZVqMWwgK2lrsw9sX7opoIQQhhbfni+eJ3TKpspwsFWPWFfmXCw6mcyH0CcVBZXoK/alcYn4UuFAxvG0XvD7Y5j/M6wdUi3MXD3yTLZr/rVJbe7F9BbnuazBidR/WKphd62H75yMG0H8PHHKFlex2XgWjVLm/qDuK8OmWKMEG1tDBBCJ+zRYTPwWx6ZfhbTzyXdjNLnKsqMUsfs/z19sb+s1df8JpQgPA4M8VMfqxyUGbcH8onibwJzxvyJiB586S/1aIAf+u+p8/lmAoFal/GzyMpWTT0jSTCp7csL6EA+/nqpeo0uFOk3OV8IcSMeO+Qg1CQ17EY7wO0jxJhUJCzonK0v9PuzoSCerWCKOFn26yV5evT6YHnrWeFVwz3o/Vv3BaanO0U4lq90bY4jFWi/GnNX+Jl8/wkzi3oZ7NEiZI0buQ8maNAnduFy+coIjhKfk27dJrKhcbIbYQlQngiK/vb+x9S23bt7dUJq1bSW2+Mtn/35sb2d+tS5K0QX3mN2+UfB+ngmSzy1jVpWjWIZj1f03S3PwvR4LUpt/84N22URyGuydznNtmTS6vmEAywmkAZkkojubQzw3vk+PJmJCbtkSd5BtZOaEi1qwfKfCAVO2xytiuuYwJMgAkwASbABFwkEFW2HHXubgtrsXObCGewd5eLPUk46HoRkojeqVl2YeERMjmt2QEbY1UjmTFWFegGpxGEAhicfnB0wtwRCtBeD0tgTMIJxw1WXSAcjjLst7SYFaqXWSXhVH3c+YQ4AYeIK6aHWVCOeuM5qHFUHPSCCjFldP6r/eLTGJtdv/YQXmZM/lkKMHqsfPSbP3uaTDSLbWW6gwxlcArB9OuBPBQIV+MNy49jEPtXIbbUseB4caw4b8woxnZBCQVqn3D8K2cryqwSPdeMF6tomtlW0aAdjlE9Z3BkKrNaceCuM1IPx4Kx8S66JmZbw6GvDLOvIeDhOLxhyBcAUUkZxsd9h/PD+eIYMOvbm0IBzqdnn0FyP9gv9oP7APvV7W4RCu7EO6hrzz4UEXlb8DXes+CEewArIrxt+vvIOLbxd1F+3wd6HH7sC/cB7nn1u0yVIdG7bnqeHr3cbHvz+rWUfPigQ5W7z6ZDZw++IA8K8qHohvtef4/g2Zv365RcgrK+ykb1N/a1EgpUe/0TjDdvWCtX7Ojld3K70IWCJzqUpbcH2hz+eZ34xuTLdP8Xh2WzJ0W/t271u+edfZSW4TgT5R9DYumRVpEy+Wu1l63/AMXvjyc7lqWnOpcTM1ZLEUKeKPOWUKDnGlBjW31ipnjcUMd8ApglP+b1GlQz1qbg630x8/6JDw9RkgglY2VwwP84uoZ0NBvbIKTRq18fo5mrbMq0sd6T72GC47QP4ql+jSAHgQNjIV/Cq18do8nLzpkODWf4zI/i5UoJ7Xe7bJudc5N+nJtKb42xzcKAGJEkViHodu36TUoXM4BPpGbTTLEy4wsPYvnr45ltK6EA+2g+0vzeiixTmnb/3EgKNOL9QlUHb6VoEXdf5ZwwG1cvM7sPUI/bE/dCj5bh9tUXqh/2s363eS4L1Qaf6yY2pLhqgeIPPZEYudtmyhT3nJlVEiFmEkWoGVcsS6zaiHttt2xaWcsv8Jdpp2jcGsdr3a1eGRr7RFXZdujXyWK2eKbpLgrj2UT+gXcHfGHPQ4ADgVN62b65tGTvHHtooj9PHkE7T2w2PU4UTpg0VczwirbXv/TnP9GWzdbt7Q092Nj7fj0KEatWXLFu/zpI+4VI5q1rgn22rB5Mr/aJoebivaS/L70hFFQIq0Q/CfEG9snit6l/44cpLrqu/I4f58SKD4gEEzZ8by+z2njzmcr0p2G23y3Pv59MP89Ks2pqWj7t89rUqWWYrBv83H5ascE6xJHpAFzIBJgAE2ACTIAJ5CKgkjy66+zHbD70hWGm/IG9tr87c+2ggAvCI6KoTv2GVDG2soOj1+icwWFgZmDL1u0cHJ4oPy5WImDGsRISjCFn9JnSZjHC4bhAXzgtYcaZ1gEBgdSiVVuHmYmyofgB58XJE8fk/s1mWKt27nwaHcvO+i6YM4MyL2XIJqofHERwFBlNCQXuhqcyjuPsO2ZlI/RPsBA6dMe9USjAGCouOWatr16xxD4shC8IYLinkRvCzBCOBLHmdec32mEGPVYZ6OF2zPq7U6bPQscMYMQx1w2huyAmwYyhflAGJyTq9WOFgyxRHCdEKjhHESsfMfNhamY7HKVYIQRDQmSsqtGZqHj7uAenT7LlG0Nblf8BeQJKiolB1WrYVhajDgZn9Kb1ayzDnuCZbNW2g/15sPWy/cQx4fx3bd8qZgdn61VyWzkjXU2IjJUDrdt1koKl7kBUAyPR+NbNG+z3uCrPzyec85ixDKa64dwgMsbXaSBDMF0Sz9VC8Xwpy+99AAczVpGo9wzGxbXDqpkGje8hzLQuKKGgarWa1EK8O2HGGdyy0PBDvUsMxaZfvfUOQgg53OMqma3amX4fF5RQgH25+rsov/cB9gWxE/egCpeHMmVYYXDkcBLt2+MYQlBfVafaWn3quXhUG3efTdUvP5/RMRVlYnYl4utj4R2BXA14p5kZVplAtMRzYTS8FzaJ33FXr9qieTQR4cJqibBhumHyQMbFi3Tx4nk5gSI7y9q/q/crrO1CFwoK68SKwn6wuqB1g1ApGBwQYX3WCaewSpTryvkhFE+HJmWoSVwwHT+TTVsOXKaDx72jdFvtH0mVOzULo5SzObRiS7pbx9skPpg6iuPNuHyddoqwSxv3mjuUrfZd1MuxUqW7EAwCRAJlCEaJuy65FF6psch3sOwnW4z37yafodf+fbSoo3J6fkhajFA3lSOrE3IRHDyzRwiM5uKJ2UD4I2HhkuV2tfnYsaM0YthvzJpymQcEypepQHViGtK+0zspNSPF5RGOLL2HQsXKi+Mp2dRk0HaX+6mGQ3uXpa/fvv0HOUTVTPEu+sNbh2jt1vyvNFP74U8mwASYABNgAsWFAFYDYFUAbMdW4ewXCWBdNd0ZC2fkDTGxwxcMfydidQGcbUhYiPANcLYVhsGRiX3jf8wAhSMCTp3C2n9hnKOv7QNOuwjh2L4p/sO94K1Z597mgHsHggHu2wsiZwBmqxeWwTGOdwVWL5w/Zx0Oyng86FcmLIJCQkOlAIPnDfd8QZh6tuAU9PPzl6tILl1Kp4J07mEGd7i4JqVE3gassCisewf7hVALUQsx8fn94XhH4b6LFEJhSbEyHittrBzJjr188xtEaLwXIJghdBDEqYK85+8UpVKlSgtBNEqumoCgDnHb1fse94Otb5DtvZBxUYYwulPn4q39slDgLZI+OA4SGyOuvruGmf5w5vuKIdGxJ4ZzxLkWBVOzpS8K52fNHhx/PT/XtF37DvTuex/Yh3jumado9y5HRd1eyRuFQqBb63Ca9Kkt/FWf3++ldds9+8fN9+/XpAFdomT4InXgT71zmCbNu51kTZXzJxNgAkyACTABJuCcgKOzf6LlDGHjKLrAsH3LRjq43xbu0tiOvzMBJsAEmAATYAJMgAl4lwALBd7l6VOjHZ/R1COhAKsaGomEvb5gSAyNBNGemMo14Elf7lN0Cbzx1jvUuUtXeYKHkpLod0+MKLonWwzPLEiEOKsvcntUrxRA5cWqrqkLz1GqyJXCxgSYABNgAkyACbhHAAl8EVoEy+9V+BlXRsCM1tBQW5gdzDDGTGM2JsAEmAATYAJMgAkwgYInwEJBwTO+a/fgqVCQdvEaNXzMN4SCFnVDaPY/PRMKFoikxI+LpMRsTEAn8N33Y6lGzZoI2kh//MOTdPDAAb2at5kAE2ACTIAJMAEmwASYABNgAkyACTABJsAEmIDPEWChwOcumfcOuLtI3BkSWMrtAVPE7Np1Ij6+L1iAf0nq3Srco0PddfhKged08OjAuBMTYAJMgAkwASbABJgAE2ACTIAJMAEmwASYABNgAkzAiwRYKPAiTB6KCTABJsAEmAATYAJMgAkwASbABJgAE2ACTIAJMAEmwASYgK8RYKHA164YHy8TYAJMgAkwASbABJgAE2ACTIAJMAEmwASYABNgAkyACTABLxJgocCLMHkoJsAEmAATYAJMgAkwASbABJgAE2ACTIAJMAEmwASYABNgAr5GgIUCX7tifLxMgAkwASbABJgAE2ACTIAJMAEmwASYABNgAkyACTABJsAEvEiAhQIvwuShmAATYAJMgAkwASbABJgAE2ACTIAJMAEmwASYABNgAkyACfgagUITCsKiYiSb9HOnfY0RHy8TYAJMgAkwASbABJgAE2ACTIAJMAEmwASYABNgAkyACTCBIkuAhYIie2n5xJgAE2ACTIAJMAEmwASYABNgAkyACTABJsAEmAATYAJMgAnkTYCFgrwZcQsmwASYABNgAkyACTABJsAEmAATYAJMgAkwASbABJgAE2ACRZYACwVF9tLyiTEBJsAEmAATYAJMgAkwASbABJgAE2ACTIAJMAEmwASYABPImwALBXkz4hZMgAkwASbABJgAE2ACTIAJMAEmwASYABNgAkyACTABJsAEiiwBFgqK7KXlE2MCTIAJMAEmwASYABNgAkyACTABJsAEmAATYAJMgAkwASaQNwEWCvJmVCxblCxRkv7a9XUK9Q+ln7b8j3am7CqWHO70SY9sMYLqlq9DS5OW0fz9Cz0+nOaVmtHQxg9S5fBKFBEYQbi+9/3Y3+PxuCMTYAJMgAkwASbABJgAE2ACTIAJMAEmwASYABNgAkWHAAsFhXQtY0MrU+eq3eTepu2fSFevXXV5z6VLlqZ7K7ahamHVKSwgXPY7eyWNpuyb4PIY7jYc3HAQPd/2WdltwH/vp/SsDMshGgondLtaXenGzRs0JuFTuik+2awJlKASdFP854o91HgoPdX693T9xnW6f9yDTq+D1Xitq7aij3q/n6u687fdc5VxARNgAkyACTABJsAEmAATYAJMgAn4BgE/Pz+q26CxPNjkpAOUkZHuGwfOR1kkCUTHVKCosuUpKyuLDiftd+scAwICKaZCLIWWKUOlSpeWfdNSz9CpE8fcGseqcZ16Dck/IIBST6dQyqkTVs24/C4hUKpUaarfqIk8miOHkyj94oW75MiK/mGwUFBI17hTlW40us3bcm+/mf0ApV4+49KeK4RUpE+7fU1RgWUd2l/IOk9DZw5wKPPWl2C/YJoxfAr5l/KnhQcW0QfL/u506Nd6f0hd6/al7GtZ1O+Llk7bFtfK9nHdqW+jB6l+bFMKEnyPnE2iTUfX0tg1n9PVnCuWWIL8gmj24zOoVMlSNHvvXPrXyo8t21pVfDnwP9Qgpr6sfnfJe7T91A4pOGRfz7bqwuVMgAkwASbABJgAE2ACTIAJMAEmYCBQokQJ6tClJwUIh+MZ4XDctnm9oYX118pVq1O9W079xNUrKCP9onVjF2tCQkKpV7/7ZWuMefL4URd7cjMm4H0Cze5tQ9VrxFF2dhbNnj7J5R1UjK1Mrdt3Jjxfuh07cpg2JCboRR5v9x/8MEFYOywEtS0bEz0ex1c6QhiJrVyVIiKj5CGfP5dGx48m08H9e33iFAICA6nvwCHyWDetW0NHkpN84riLwkGyUFBIV9FToeDDjv+m5hXulUeZdiWVtpzeRDk3cihNCA3/2z22QI7+8WbD6LctHpdjPz5pJB254PyPjbEjZlNsRFXafWobvTBxWIEcky8P2rfREPpTtzdMT+Fw2gF6YdJwupKdaVqPwlEdXqT+9frKeqwqOH/FPSV1+rApFBkUQeuOradX5/3Fcj9cwQSYABNgAkyACTABJsAEmAATYALWBKrXjKNmLdvIBmsTlrs82xkO0D4DHiQ4vy5dyqCFc2ZY78SNGhYK3IDFTQucgCdCQalSpajvoKFU+tYqgosXzhOc2jCIcXBue8OKi1CAd03LNh2ocpVqptiSDx2gzRvufqGEhQLTy1cohSwUFApmourhNalfrYFyb99v/z+6cu2yS3ueN2Q5lSpRijakrKPRK19yqU9+GiEszszhUyksMIx2nd5Nz8x83ulwmOk+7/ktss20ihhxfwAAI8ZJREFUzePom5X/dNq+uFUiLNPHQ8bK076Sc5m+W/UxpWacpgFNHqKW1dvL8k1H1tDr0/9oiSY2LJbGP/yTrB+76SfC/+7YkicXyBUJv+6eRR8nfOZOV27LBJgAE2ACTIAJMAEmwASYABNgAoIAHHB9Bw0hf/8AuiRC/CycO9NlLg4Cw6pldOrkcZf7OmvIQoEzOlxX2AQwgz06ugJdzbpKe3dtd2n3kVFlqUuPPrLt9i0bxYz3PS71c7dRcREK6jdsYg9HhnA9e3fvkKgaNL6H8L6Abd8qOO8rGM5yB174wUKBFyB6OAQLBR6CK4xuZfzDaOqgOXJXX235lGYcmFrgu9Xj2b82fzQlHl3ndJ81RaLdb34zWbZ5f+4rtGL/fKfti1vlG/0+pg4i7BDshYnDxaqLrXK7hEgm/MuTiygqpLz8/tC3Xej85bNy2+zHJ/3+RfeIsEWZYuVB37E2wcmsnVmZEgqm7pxOn6/50qwJlzEBJsAEmAATYAJMgAkwASbABJiAEwI1asXTPS1ayxZrVi2llJOuxTnXBQaEG1o071cne3GvioUC93hx67uPAGa+39u2ozwwPBveCMlldpbFRShQ55mTk0MLZk+XYaDAIzAoSK5qwvaVy5dp3qyC9y9iX54aCwWekst/PxYK8s/QcoTG5ZtSxdDYXPVLjyyS4YNyVYiCRuWbUK2IOFkVFhBBj9UfIbdXHFtKu9JuK7IXsy7SsqOLZZ03f7zccRT1rXufHLLbmF4yia6z8fs0fIBe6P6WbDLix75UvVwc3VO1NdUoG0/HzyfTMiEcbBMhb4qjIRfBzGdsS7r2nd5Jz/3yqB1D/YpN6dOHbq8M+HHNf+iX9WPs9caNBxsOpmfbPi2LR0x+kpIFW1eNhQJXSXE7JsAEmAATYAJMgAkwASbABJhAbgL5cfbXqFVbCAyt5KCrVy6l015MpGoUCrDSoZKY1V22fIxwBmbSWZEM9qiI837jxvXcJyVKQsuEUcVKlSksPIKCg0Po+rVrdOH8OTov/k8Rqx5u3rxp2g+FYIK8C+XEvkJCy8h2V69clv2RK+Gy2L+VIVZ8bCURP13MJg+PiKDMzEsi3MxZOpZ8mHJyCi6XHpLZxsZWofDISHnOON90Id4cTT5kmixVtq9UhTDrPTg4lEqULEnpIjTOhQvn5KqQnGznx1q2XLQMAQM+pcU5X716hS6J/Z0UCXrB2ZlVFPuNKltOxpjHcYLPCcEV1/huMtwDCB+kG7jgHK2sSrUacmUO6stFx8h7Ftt7dm4Tju3bTBGGKC31NKrybcqBjhwF2E8lIVBEx1QU9/gNSks7I0McXb1inT8y3wdQCAMgmXT7zj3knrCiY7c4T2VIeo7VBsqWLZor7yn1/U5+VhA5KmLEtcBziefi9KmT8hnLK0eBfAeJ6xgpnpMyYeGE+w7PCe69TBHizczUvSffc6JthYqxFCP+R/+L58/LXAh5PZt4LsuLlTN4LyDx9oVz4phTTnrtXjU77sIsY6GgAGn/s/Nn1CS6Wa49OEtm/JfWb1Pnqt1y9TEWFFQy44mPjqeY0GhKv5pOA34abNxtru+jerxDvRrYkidtSE6wh9PRG/609iv637pv9KJisd28Wlv68H7beSNp8fj138nzRrimcSPnU7nQGDuHvPI7tKzcgv7Z5yPZ/os1X9GUndPsfZ1tYF8QCmC8osAZKa5jAkyACTABJsAEmAATYAJMgAmYE6gZV4eaNrflDly9Yol0Cpm3dCwtKRzLiL8OxzjCgCyeP8uxQT6/6UJB8uGDhESyRsN+Vy1fRFlXrzpUYXUEVklY2YXzZwnChrEf2mN2ctcefeWnVf+ZU8bT9eu5BQo4z9t27CqZGPtiFvTqFYvp3FlbjHpjfX6+Y+Z681btcjm11ZgI0bJ7hy0CAMr0me6qjf6JY00QXOGYNLN24hxjKlYyq5JlVqtSgoKDqY1I7BsRWda0L+LLI8783WL3D30sVxLivJIZ97t/qF0ocHYeBZHMGA7dqLLlc91/uFdXLl0orqf37z1n5+jNukZNm1N8nfpyyGWL5tnPRX9PqP1BRHA1PJTq4+1POPpbiGcSznujHTqwj2rG15HFZsmMg4KCqV2nblLwM/aFwLl5/VrTBMjq3sO9FRwSQngfGW3dmpV04tgRYzGVFP61pi3uNX3PojGey62b1gth9kauvr5UwEJBAV6tQfEPUN0o20NaJawaxUfabnJnQgGSHjeJbiqPKtSvjF002H12Jx26cNB+tGlX0mj87v/av3tjI7B0AM0faQt1tOfMHnpqxnN5DvvdsOlUrWwte7szGaco4eASqluhEdWveFutxGqDkxetFWX7AE42avToTRWatXDSInfV+o//TiX9/KnFcy/mrnRSckJkVT+6fKmTFnlX9ag/gF7u+Z5siBwEyEUAe6zVH2l4m6cp+1oW5VzPoZCAUEpJP0HDf7Ct5JCNDD9ihKgw8dGfZekqIci8sfBtQwvzrwhXhLBFsO83/EjjttjGMG/NpUyACTABJsAEmAATYAJMgAkwASagE8iPsx+OrqbNbAJDwvLFIjnrKX3ofG+bOQDlrPP0dDlLNiIySu4DM2SXLrT9W1/ttJUI94JZ1RACUsWsbRXypbyY4Y1VAjDMsJ776xTVxf7ZsWsv0cbmYFOzvtEWKxQQpx7CyK9Tf6FrYia8bmXLladO3Xrbi44LZxyEjDKin3IWwsk379epcva9vWE+N/QcERgKqyXABPkmMKMdKyogtMC5qEz1wfFgFUiGYJqdk0Xh4ZFyJYVqN1+Ed7ksVkToVrtuA2rYxDZpFFxw3dPTL1BwUAhFi9nLoWKFgVky7NKl/ajPwAftiX3PnU2lMymnyE8cZ7UatezlViKDfgyFtY3VMjhuGGZZQ0TKSyjA7PYg0Q4WHhElV05gG87ba9dysCktFcmMTRy2qt6dT7WiQPWBwAO2uPZYVQPDtZ49faJY1XL7GFR7dz7hfK5bv6E7XeTsfyvRydWB7kUSY7HCAzZ90v/sK4I6d+8txRGsRsEzCjuctJ+2bFwnt+/UD13YwHNy7Ohhca/7U7XqtRzEJzOhoHf/wXIVFI4dzzLuFYQrwnsEAgTMTNRVQoFsIH6AOVathEdEyhUmKMf9O2fGZDs/1VZ/72HFFMSEmzduUmyVqvKZRrukA3tp2+YNqotPfrJQUEiXDQLA6DZvy705Ewr0wykbVI5+6T9dFn2U+C4tPbpIr/b6doUyFWjCI/+T487dN5/+scLmYLbaEeLsz31uk0yUizZrkpbSO7NepJviP9iw1k/J/7E9JuETmrTxR2x6bC2fH0WV2rRzq//skY+Rn/gF1OvL79zql7xkIW0dk79VEA+3fJJGtrMlg372l0do/+ldFBtehcb+1vYH2ofzXqWHWowk5HlAouOBX7a2PMaS4kW39He26++qiIPB9FBSoxe+SauTbWKF5Y64ggkwASbABJgAE2ACTIAJMAEmwATsBGrF16UmzVrK75iZD4eUK6YLDHCmL1kw25VubrUxCgXr166SIVTUIK3bdZKOe3xfsWQ+nU1LVVVUtXpNys7KohSTUEh16jUkJD+FGZ3SCDMz8EFbWF2z84KTDmFzTonwH3C86tazz0DpqET50oVz6aII4aMMokbXnn3lVzjgMKvXGwbRos/AIXIlAYSLVcswa9xxFQBWDwSJ2cUH9u627xKzzuE8PJqclGtlRGRUOZGA1zbRz8wxqByz0vE8Y5IMiWIfWGzAkQxHI8JD6dZEiEq1bs2i3rxhrZihfHuyKESNnn0HSnED4g5izN9tM5eb3dtGzrbOSyjQzxlO4eat2sqiOTMnm65g0dt7uq0LBUcOJ9Gm9bd9I3p4MIQl2uNiImarY4Go0/xe2zlZtTGWJ65eQQjZlR/r2LWnFPlw30EogMFx3rJ1e7m9YM4M6tV3kNyGWLZGJFa/UwZxqf/gh6RTH6HHlsyfbReJIN5069XP7vA3CgX6ah+EDdu4brX9NBAOqHP3+2Rfs1VculCwf88u2rl9s70vRF21imHFkgXifXnGXldRhEdq06GL/A5BC/tU7ze887BKKqZCrKxHovu7LUSY/URc2GChwAVI3mjiC0JBvei69PWgL+Tpfp34LU3cPsnpqVeJqkHfD58p22BG/Mix/enajdszBuKi69FXj06U9Qt2Tad/L3rL6Xh5VVbt3JWitZhqebVH/eb/+4JKihdQ0yf+4Epze5sUoQAeX5Ng/+7JxtOdX6NBTW1/QGG1ABj95+Gf5WqL7cc30ktTRtLfH/iO7qlii1fZ69MmdpHFbH9TH5tEZYOj6FRGCj3yy2NmTahKeGXqFteVQv1DqGGFhlRXiBCwbae20wuzRjkd33RALmQCTIAJMAEmwASYABNgAkyACRRTArqz32xWvjMscbXrUuN7bgkMwjmdeua0s+Ye1elCAZxtSF6qG0Jr9O5nCykM59aGRNf+jVuqVGkhBjwih4LTFM5TZYjb30+EU4IZnXSqjdlnBRGGB8402NbN6wmhRYxm5ug0tnH3uy56bNmYKGZSH3B3CNP2SvRAmKTli+c5tLmv/wOEEEJWKzIcGt/6UlrEOh/wgI25lRNXPxfssyBCNJkdm6tlviIUzBbiDUQy3ZQDGSIMBIv8GIQkPP/u2P69u4Rwdt6dLrnaqnsSKyJmTZsgZ+f3GfCgFMl2bd9C+/bsJBUqCqHFINbdKVMrdrB/vJfwftIN4hFEJJhRKNBn9s+eLq6lWAGgG4QRtUJpkXDaZ2h5PdR1RqipWdMmOuRvwcqmHkLMhG1MXC3yuxyyD9vjvgEyjwH2NXfmlFwinS503g1hnewH7sEGCwUeQPOkiy8IBY1FuKD/DPhEnt5nqz+n6btsIoDV+fao159e7vW+rf2Sv9GcHY4vU38Rymj2sxtk/YJdM4RQ8KbVUEWy/IVub1KfRg/Kc3vs+17UqFJzerX3BzJB9LAfelPapdP0/qCvRV4H2yqJ3p81pRs3b1iy+Pnh/1KlsEqUmplKQ362/QFhbNy1Vhd6s9toe/GVnCv07frvxbWcYS/jDSbABJgAE2ACTIAJMAEmwASYABPIm0Bc7XrC2d9CNkT8clcTqyKWNRxScP4WpENOFwrgaNy57fbsWHV2ymmNWfRIYGo0zN5Fcs7gkFAKFKE7RJpi2QSOPFjSfhFKY4vt3/WyQPxQzkbMqN2xdZMID5MsneKq3uyzjgjF0qCRbZUCVgzI3Ae2XdlnDmM2sIrNv2jer/ZwSGbjuVqmwrHgWGdM/tk+C9jV/gilEx1dUcYzh/MfkRVgsZWryNn9CNmEY9UNCWWRWBZ26OA+KYogabIzw7l36dFHNsFM6DQISwY+CEGE2dQwhDfBaoa7yXxBKDBbBQOG6tixPW3iOHz4nKlwPGpFh3KYXxKJfeEwxzOA1UBYFWQ2274wTxihuRCiC2YWpkwXFo1CAcQPPJdW7zS9r3FFlBIKsFoAqwZ0w3t70BDbZN8d2zY5rDBS7zysSjoqVqSoZxP9VagjrEyBpZw8IVdiyS8++IOFgkK6aL4gFFSNqEI/Df1REpm2cwb9Z41tdYEVome7/IUGNHlYViNsDsLn6FY5shr98LgtWdP3CZ/SxI0/6NVFfht5CJCPAPbK1CfpvYFfEsSTb1b+k6Zttv3i+fyR8VQnpqHMV9DvC9tsEyswSEqM5MRJZ5PoianmKyRwDXvG96CIoAhCAmQkpoatPLyK3lz0jtXQXM4EmAATYAJMgAkwASbABJgAE2ACGgHd2W/lkNKaO2wioSjib8NWLl0gBIbbISwcGubziy4UWM3SRxgOCAHGmdIQBu5t017GLnd2GJj5j7F102e2q3I4J8+IsEx7xeoDM6e4clqq9nl9eiunQ/fe/WUc+iuXL8twPXntV9XDmYqEzwjR5MzghF0oQrroZszFgDrMYMZ9hFndyHlgND0Ej7HO7DvCJMGZeTeZcrYrR7Urx6afd2GEHrJarVFP5E2odyuCBfJyYDWIr5l61iEIIMQWZt7DliyYYw/zNfihYbIMSZ0Rw/9OWSsRFq2SyGeCY1VhkvRjQdgvhB+CGYUC5bS3ClGm9zUKakoosFphpfggsTkSnMMgSkCccNXutAjj6nFatWOhwIqMl8t9QSgICyhDvz5uW6q46cRmGjXnFacUvnx0AsVH16eTF47SiLG2B1jv0KpGJ/rbwM9l0duz/iRyGCzTq93e9hfLgPzE0kmXTbxwMhE/UsQLC7ml5rvaN0f8ss++dMnV5qbt+jYaQn/q9oasS796gcICI+iIcPL/ftxgewigsSNmU2xEVTonVgk8/F0303FQGB4YTjOHT5X1G0TYopfnvmbZVlVAVPis38ciBJFNpUUf9GVjAkyACTABJsAEmAATYAJMgAkwAecEdGe/MV61s55wMPcVoXmwmsAsLI2zvu7W6UKB0ZmmxlLhfOConjllvCzGMSLERnCw7d/XmBV/+tRJunLlsj2khsrLYJX0FHH2sdoCM+GNdurEcUpcvdxh9n77zt3tyUK3b83736XHj+a9SsG4X7Pvavaxu867Nu272JPcIpTLcZFo9XJmpj1Bc3zd+pKfWcgnHAe4NGrawp70WT828F6zcimhrzL9fkN4pIwM5ysQzqamCuEhTXW/Kz59QSiwchDr4ld+V7Pg2Q8MDHLrmuDZwzOaH9NzkkDogINbXxGkhxQ7InJv4J1xp0ytutHfS/qxWL3bMHsfQgHMmIBc9YcI2rvf/fKrMeeEEgqszt9MKNCFB4i+J084zyWB90R+802oc7kTnywUFBJ1XxAKgGLeb2dRkF8Qnb50hh4ab1tyY4Vo3vNb5Az3DckJNHrG07mavSLCEnUX4YlgCLVzOv1krjbuFPhaMuO2IgzQ2/0/czjF3427X4oFKCwh/pv17Hq5yuDAmd30zHjb6gyHDre+wNn/xQDbWD9v/YW+E+GEXLFONTvSO91tIZ++XT+Gxm+d4Eo3bsMEmAATYAJMgAkwASbABJgAEyi2BByd/akiBv18l1kgnAbCasDQ79zZVJf7uttQd6Yh7BDCDxkNs3Lh6NJnvlcS4Wtate0om6rY5Xo/PQSHlVCg2iNnQfnoCoSwGyrcDuq2b9lIB/fvUc1ITxQKwSK/TlH7wHlsqHjmKm57Hs1ldVBQMN034AG5jVUSq1csdhA9UKFWKlgJBbKz+IF7CSs6qtWIk3HTVZgSCDOrV96e0Y0E0G3ad5bd1iYsl8mg1Ri+8ukLQgGuZ4JISm60vELhGNs7+36nkhnrzxiODys75v061f6sIcwY7lvYvt07adeOLXL7TvxQ9wr2bRbqCc8MVkjAjCKoCp+ElTmrheBmNGd9PREKIPyo/CFmK6yM+3f2XT3/qg1WVNxtxkJBIV0RXxEKPuz9HrWp2lpS6fxtd0s6FUSs/J9G2hL2rD64hN6Z/aJDW79S/vTrM+ukkLA3ZQc9P+E3DvWefPE1oSAmLJbGjbz9B+WkjT/SmARbDgicf+0Y4fx/5BeJYu6OKfTpknctsfStex+93HGUrH9x9ku05eRWy7Z6hb+4DgufsMWhnLpzOn2+5ku9mreZABNgAkyACTABJsAEmAATYAJMwECgdj3h7G+snP2uJ43FjF04ouAcNouBbdhNvr/qQoFVYmE4uODoOnP6lHCQLpb71J2iCPthdFbp8fLzEgr0kyhXPtoe7sQY4qVmfB0pFqC9HgpF718Q2/e0aCVFDIztakiZWOG0b33LaW8WOgpJruGshNMvL6FAPyc/P3/qM9CWXBaxzhGbXVmoiKCAZLSwnduF6LMnt+ij2jr7xCxyrE5QlnHxopx5rb4X5Kdy/t7NoYesEky37dCVKsRWsgyF4w63OyUUVBdiFK6BMggiEEaU6asmElevsJz1jnBQYRERqhsd3LdHrjayF3hho279RlS/UVM50nyRhP2ytroGhfq5GIUClbT58uVMmj9rWq6j0RMlG3PLeCIUYAfqPZp6JkWEdcotNOU6CJMC9XyoKqvjV/V36pOFgkIi7ytCwYB6/ejPHV6QVEZMfpKSzyebEupUuxeN7vNPWYfcBMhRoNuT7V+koS1+K4tGz3iKNiSv1qs92vYTy4f8RPIgl00oc5fTxOwN8cs7WKiR+HTVEHbomlj6lV/76tFJFBddVw4z/If7KCX9dizC57v+lfo1Hirrnh4/lA6e2Wu5u1c6vUR96vSW9T2+v49yrudYtjVWqNwGLBQYyfB3JsAEmAATYAJMgAkwASbABJiAIwHd2Y8wE3AUu2q6I27ZonkFHhpGFwowQ3/WtAn20EE45uiYioSQP7A9u7YTwnDAEDIIiZphC0WS00sZ6XJb/WjXsSvFVKwkv7ojFECQ6D/4YelANzrUyoSFU4/7BsgxEZpobYJ1aGI44I3ihTo2dz9jRRx0hGSBWYkpqIMTPycnG5vy3MEAZpb7Ia52XcHQlmPQHaEA46kVHkahAOfc7/6HxHH4iePIoTkzJjlcS/RV5oyPPpsa7d3Nr6H24cmncoTezUIBzgtJvcFFWenSfsIR/LD86o1wYRAKA9wMPQQB48aN/IUe0p8/3EOzp0+0P0e4ZxBuLDS0jFxhYHxXKBb47Ny9t0PuEndCr+njONsuL8KDdxBJv2HIBYCcALohsbcKa2YUCvR8J8ZriTG69uwrkqJHyeFmi+coOyvLPrSnQoEeimzx/FkyGbR9UG3D2bPZvFVbggijzN28KapfQX+yUFDQhG+N7ytCAcIOzX58hlwJMH//Qvpo+T9MCf2h40v0QLPh9jokK56xdbz8gwAJjiEUwOD8hhO8uFqvBvfTqB62JMKHUvfRX2c+K/MRdBOCzMs935NYzmScose+tyWZMeOkX5OlIs/Du0veN2tmWaaEAlcSVFsOwhVMgAkwASbABJgAE2ACTIAJMIFiQECf6WrmhLJCACcdchPASZiWeloIDAutmnqtXBcKMCgSlCaKsDUQDUKEQ7BLj/vI3z9AOgvnzJgsQ5GgHRL0tmjVDpsixM1x2rIpUSZvxUz5xiKuPmb/KzMKBdhnp2696eCBPZScdNA+JkIQ1RfJYGvG2foaY4NjPOVIxjZihG/fvEE6xfEd3CBOQGzJzrpqGlIE7Tyxrj37CMehLZcC4v/vEDkS4KiHBYs8iEhajBjxm9evlWV68lLM+l27aplIBnte1unJd1FgJhRgxvPplFN06MBekWvAJsJAgIqtXIXg5ISZiVCVq1YXCaY7yPoL58/R+rWr7CIOHJCRUeXEaoF6FF0hVopCsqHhBwsFBiC3vkLAgggDg1N++eJ5hGuL5xZiWlTZ8rIO4aAQFspX7V4RUqyyCC0GU/c6tiFsYaY9DOVbNibKbbMfhSEUYL89+w6SwgW2FXfc50gqjfewMqNQUEasvoHoAUOS9uVL5lOmyDOKvkgir0RQszwEngoFyOfSu/9guU8IYRvWJsj3rSwQP/C+rRlXW77/8HsDOVGMxkKBgUhYVIwsST932lBTNL/+ueWr1LtG7gS/Zmf77w0f0YLDc3JVlQ0qR7/0ny7LP0p8l5Ye9Wx5S66B8ygY3fV16hHXja4LNXPgTw/QpezbCXZU108fGkf1KzZRX00/IRKMmjyCsOKguFrpkqVFQucvqHm1tqYIwPiFScNoX8pO03oUDm38ID3d+o+y/g/Tn6Z9qfst25pVzBkxk0L8Q8gTkcFsPC5jAkyACTABJsAEmAATYAJMgAkURQK6s98qlrnVeesCw9KFcwiO3oI2o1Cg9gdHFgQCZUanPXIQINknHOLK4HALCAyUX1UiVHwxCgV6iBzUw+F+Tcxe1sfCbOaFc2dIJx7aKPPz95ezfXHcytAWppy42IbgsXrF7fj9KMuPYTUD4p3r+wAjOO8hUMCMiVF1hyvqcZy4P9SMYZw3xjMTClSYEvTDygjwDDJER7BacYLcEcghoQyiD/iqa4NylKnE1Kqd+ixXPkaEf+qpvhZoQu1e4h7Sr6V9pyYbZuFl0EwXXubMnJzrnjEZyqMiXShQAxifE+QTcScfiRrnbvrEc9i1R1+H51E/PogjeD/ps+z1emzrs/nxvSBWFGDcmIqx1K5jN2xKwzOF5xHPmG5GoQB1EPdq1Iq3N8PzqT/fGGvRvJmEWfu6eSoUYAw9fBq+49lW7039mK1WHLBQAGqaFTeh4LVWb1DXardfzhqKXJufbfoXzUmamas8KjCKJgywlX+Q+DYtP+q9X5S5dqYVVIuoSv8d+oMsGbPhB/rflvFarW1z+lNrKCQglJbunUMZWek0sMkj9jbZ17Io4eBi+njx24Tt4m4lS5SkV3p9QF3r9nFAcS4zVSSBfoaSUq1DDiHh8bRhkykyKIIOpB2k302zCQYOA+XxZeyQMVQ9sjqlX02noSJB9dVrV/PowdVMgAkwASbABJgAE2ACTIAJMIHiR6Beg8ZyNivO3J04+vkRGPJDGbPhe/ezzXLdtH6NjE2PhKW6bdu8npIO7NOL5DYc/pi9rkJ0qAaYCYtcBpjti/MyJu/EygGE8ilbLjqXQw9jIMHoVrFSADN8zQwOtQaN7qH4uvVN+yO3w/69u72ezBdORDgXMWvfaEj0vG3TeocZwjh3tK9SrYZDcziXsWojvk4DqlipskOSaNUQKycqV6ku+aky9YkwT1s2raNULXa8qlOfOEbsW3d8qjr0P3I4ifbtMZ9sqIe/Qp9t4lokiZUNBWF9Bw5xEDCc7WPBnBmm90TVamJ1S2vb6hZjmBhn47lbp4QCCF8QypBHQLdjRw4TnqEbN27oxT65DVGpfafuMom5fgIIq4SZ+znZthBbep3axvM5aMhv7M8mHPDOwmCpfp5+QthqK8J84XlThn0mitBkHbrYfKobE1fT0SOHVLX9s5ZY+YSVErqTHpUQfJAQHE58o6l71igMqnaDHxomN5HoGQmfjRYeESUSwXcgvD+NhnfD8aPJtGv7VnsYM72NvqIK5ZyjoJitKNBvBl/cfq3zK9S7dk/KzM6k/v8dRDeEUubMQgPKUMNKzehMRgohxA5bbgKlxC+juOh6VDakPO0SyYgvXrEtXczd8nZJ22pt6INef5MFnqwmQMeRLUbQ8GaPyTGwguHQucN0Xuz7lXmvyzL+wQSYABNgAkyACTABJsAEmAATKO4EdGe/uzPaHQWG2fYwNXeCKZyEcOIjOSjC5WDWqzNDyIwwMeP+2vVrdF44EjET1xWDcw4z9TFTHvH9L2dmCqd5utOZysZxIXSEhUdKRx+OF+KCq/s3juXqdxw3nHw49uviXDMyLspjt+oPnuFCfCkl4tjDAWnmfLTqi9n2weJ/jIF+mZkZTvdlHCcgIFDwiSCIM1fETHAIGs5mgqM/VhPA+QqD43LuzClFwvktT8iLP/C84zmBMHD+nOv3vRcPocCHsp/jzRt0Li1NrETJ+9nWE5njALcKAe3QwYL38eGZDI+IpItiJRbuc3cMffGc4Bm7eOFcgb9DcGxgWyYsQoQcCpUrhvD+guO/KBjnKCgKV7EAziEiMJymPjZJ5ip4bf5oSjy6rgD2wkPmReDfff9BzYUAs+LQSnpr8bt5NTet9y/lT693eZW61OzkUN/5W1tSK4dC/sIEmAATYAJMgAkwASbABJgAEyiGBBAXGw5/mFXoCDMscBipBL6IbY4Zu2xM4E4QMM4G37whkZIPHbgTh8L79FECdeo3lCt+cPgQmpDbJC+x0UdPlQ/bggALBRZguJgJFDUCSIocLVYzRAVHEcSDdcfWF7VT5PNhAkyACTABJsAEmAATYAJMgAl4RCBUzKwPCAwSM4yvixnGZ10eAwmAkWQWhrAwWSIRLxsTuBMEcB8igTUMs6vn/jqFnbx34kL48D47deslV1rgFBCKCWGu2IoXARYKitf15rNlAkyACTABJsAEmAATYAJMgAkwASbABJgAEyhiBKrXjBe5DVrJs9q4bjUh7j4bE3CHAGL4I9QVknQvmjuThSZ34BWRtiwUFJELyafBBJgAE2ACTIAJMAEmwASYABNgAkyACTABJsAEmAATYAJMwBMCLBR4Qo37MAEmwASYABNgAkyACTABJsAEmAATYAJMgAkwASbABJgAEygiBFgoKCIXkk+DCTABJsAEmAATYAJMgAkwASbABJgAE2ACTIAJMAEmwASYgCcEWCjwhBr3YQJMgAkwASbABJgAE2ACTIAJMAEmwASYABNgAkyACTABJlBECPw/AAAA//97Ko7YAABAAElEQVTsnQdcFFfXxo/SmzQBQUFQ7L333rHGFmOaiTHV9N5N8pr6pSemmURjYuwNe++994YNrBQRQUBAv3vuOuNsZXfZRYjPzS+7M7fPf2Z35Tz3nlPGNyDkJhVDKhcUJkfJSLtYDKNhCBAAARAAARAAARAAARAAARAAARAAARAAARAAARAAARAAAWsIlIFQYA0m1AEBEAABEAABEAABEAABEAABEAABEAABEAABEAABEACB/yYBCAUOvq/YOeFgoOgOBEAABEAABEAABEAABEAABEAABEAABEAABEAABEDAqQQgFDgYL4QCBwNFdyAAAiAAAiAAAiAAAiAAAiAAAiAAAiAAAiAAAiAAAk4lAKHAwXghFDgYKLoDARAAARAAARAAARAAARAAARAAARAAARAAARAAARBwKgEIBQ7GC6HAwUDRHQiAAAiAAAiAAAiAAAiAAAiAAAiAAAiAAAiAAAiAgFMJQChwMF4IBQ4Giu5AAARAAARAAARAAARAAARAAARAAARAAARAAARAAAScSgBCgYPxQihwMFB0BwIgAAIgAAIgAAIgAAIgAAIgAAIgAAIgAAIgAAIg4FQCEAocjBdCgYOBojsQAAEQAAEQAAEQAAEQAAEQAAEQAAEQAAEQAAEQAAGnEoBQ4GC8EAocDBTdgQAIgAAIgAAIgAAIgAAIgAAIgAAIgAAIgAAIlCgC/gGBFBVdRc7p4L7dVFBQUKLmZ81kypQpQ65ubpR3/bo11fXqFKWtXkcl6ARCgYNvBoQCBwO10J2feznyc/ej3IJcSs1OsVATRSAAAiAAAiAAAiAAAiAAAiAAAiAAAiBw9xGoFBVNterUlxe+ecMauppxxSoIPr5+1LpdJ1n3yMH9dOb0CavalfRKfF2ccrKvlUrDtrP5enp5kYuLqzScX7+ea3G4ytFVqUmL1rLOgjnTKTc3x2L9klLo4eFJtes1oODyoeRXzp/Y4H/z5k3KuJJOhw/uo7OJp81O1cvbm2rVFW2DQ2RbrshtszKv0onjR+hkwnHxXOXL9s1atqWAwCC1L+bJY2RcuUJpqcl0OS1VLSspBxAKHHwnIBQ4GKiF7t5o+R51jupGaTmpNGzeAAs1UQQCIAACIAACIAACIAACIAACIAACIAACdxcBNoDG9RtMHp6elCkMmUsXzLEaQPPW7alSZGVZf8FcYQTOKR1GYEsXyEZw5sFp2+b1lHj6pKXqd2VZ7/5D5PNy5tQJ2r5lg0UGpVEoYMN9u07dyU3sIjCXeHcECwaGqXxIGLXp0EUIKS6GRer56uWLpQjAGd3j+pOvXzm1zPCAn7/dO7ZQXl6eYdEdO4dQ4GD0EAocDNRCdxAKLMBBEQiAAAiAAAiAAAiAAAiAAAiAAAiAwF1NILpKLDVu1koy2LRuFZ0/l2QVD1+x6r57b92CzIRjR2jPzq1WtSvplSAUFH6H/stCQTn/AOras68KgQ31584m0rWsLLnyv3JMVQoKLi9FAhYLtIl3H3To0kPNOplwjC6cPyt2pmSLtoEUU7WaeA8mU0IB7zg4tH8Pefv4yF0IXE8RG/Lz82nJ/NklZjcGhAL1FjvmAEKBYzha0wuEAmsooQ4IgAAIgAAIgAAIgAAIgAAIgAAIgMDdRoB3E/QeMITc3T2ku6Fli+ZZjaBlmw4UUSlKulRZOHdGiTFiWn0BZipCKDADRpP9XxYK2rTvTGHhFeXV7tm5jRKOHdZcue6wSmwN+dyfTDiqV9apWxwFBgXLPHO7UXgHTmpKMmULt1aclB0FvGMgftYUmccv/Jls1rKNOhcea9f2LWr5nTyAUOBg+nejUBDpV5maVGgqSc47Pptcy7pSw9Am1LpiW6rkF0XnMpNo8ckFdDBlvxFtbzcfalOxPVUPqkEx/lXpYtZ5OpJ2mFaeXkqZeZl69d1d3Cmuym3lr2/sPcRjXy+4TuP3jtOreyHrAm0+p79Fqn1kJxHToBydTE+gg6nGc+kZ04dcyrrQ/pS9dPqK8fYzW69TO99NYi65+bnUIqI1Na3QjLzdfOmYuM45x2ZSeu5lvbk76iQ2tBY1j25HlQIrU6hfuBz/3JUztOrwQjp4fo/FYR4e8ahURLkSK58/j/uBrtsR2MXiICgEARAAARAAARAAARAAARAAARAAARBwCoGYqtWpUdMWsu8Na1fSRbH62ZrkJ1yldBMuUzgdP3qI9u7abk0zm+uw2xoOIst+2tlfO8cOCK9YicIqRMjYAWnC4Mo+33nFtWHiVd8hoRWk4dbF1ZXS09Lo4oVzlJJ80bAqsbsYDrrLyd3DQ43XkCT80KcmX9Krn5R4Ss/Fko+PL4WK+QjLCJ0+mUA3btzQq8/9Bglf9TdEEN/TpxL0yvjEVcytckyszOeV6xwXgVeTR1SMpOCQEMq+do0uiF0ePBe2vXBS5sv+/pPOnJLnzITrs/uoC+fO0rmkM7KuI16Ye4VbxnPur26DxnK1O/vS51Xz2pSaconSL6epWYauh5gv9xUaVkHeN67PO1KUa1Mbag7YBVBExSgKEEZ4/4AAysrKlM9E4qmTwiWP7QGGNV3rHXIsgm69+sk8fuZWLVuoV27phO9xx649ZRX+HPHnyZpkTihQ2iqiDJ8vmjdTFRiU8jvxDqHAwdTvRqGgf+wgeqbxC5Lkg/OH0M89JpCPEAAM0+NLHqZTV24Hv6lbvj591O5zk3Wz8rLorbUv06HUA2o35b1CaHLfWeq5pYNjl4/QM8se06syY8B8KufuT8tOLaIvtn6sV8YnS4euk3kT9o+nyQcnGpXbep3a+Y7f+xPdV+sho2vNzs8W8xxJSVcTjcYrSsaUUSsoyCfEbBfLDsXTF0veNlu+ZNlK+YOtVLjv3sF06aLxD65SjncQAAEQAAEQAAEQAAEQAAEQAAEQAIGSQaBs2bJiN8FQ6YedDb7LF8dbPbFWbTtJgz0bdzlAbWEBba3u2KBiv0H3SUM6r6Zm1y916jcyqEFC3DgnjLIr1PyyYnFnw6bNKfqW8V0tuHVw6sQx4fN9q55Bv3krsYAyKtqwqsnztSuX6okNhoZww2C9POcaterKvmZNnWTUp1Z04UDSVavVkAKHYUUWY1iU4aTMl13a8PXUvBWIWtsm4ehh2rNrmzbL7mPtNRbWCfvt17rk0bblVfYcvNcwXUm/LI3yhiIL12N3Pq3FKn9T8QJ4Ff6GNcuFiJRi2KVd5/UaNqFqNWrLtts3b7ApOHeT5q2F4FNVtuXnkZ9La1JhQkG1mrWpXoMmsqt9u3fQsSMHrenWqXUgFDgY790uFJwUQkCMfxViQ/9RsWL+ekEu1QiuRQEegfTk0hF0Qqzm51S7fF36pvNPKv01iSuFiHBS7BCIpM6Vu8v8gpsFdH/8QBGsWKdWerl60agGT6ttWldsR0GewcT1Fp3Q/9HjvuYd1xcVHCkUWHOdWqFAmfTGs+vofNY5ahXRhiJ8K8nsdUmr6aON7ypVivwe5FOepozSqZu8c+BE8hFKy0qhOhENqWFkC7lrggf5cP5LtP74cpPjQSgwiQWZIAACIAACIAACIAACIAACIAACIFDiCVQRBumGjZvLea5fvVws/Dtv1ZzLiVXXXW+tuj52+CDt27PDqnb2VFKEgsyrGWrAVxY1ropzLy9v6Sue583zV1L7zj3ECvtQeXrtWhad5ZX4N25SRGQUcVwFTuxOht3KKIlFgpDQMHnq5uauiga8i4GN2Np05NB+KVooeVpDOIsmRREK+NrYRz4LMLyind3TMG9e6a41EitCgTIH3nXAuxHYmB4VXUXJpiUiMHWW2GFQ1MTBfdm/vpKiq1Qjdlsldzuc149pcTbxjN6zpOXD7QvEzgrelVGQl09RwrDOOyo47dy2SYgex+Wx8hJcPkT4/Net0uc83lXBjFhciawcI6sxK15pn5OTrTSz+10RwLiD+NlTKc8Grxkcm4BFDU6zp/1tcYeErHTrpTChgHekdOnRR9YuKe6HIBRo76ADju92oYARxgv3Qz/t/o7yb+RLomWoDHWN7knbzm+Wbnb4/Pde/wi3RJHSyD962ShKSL+9nSk2sDqN6/a7bGvJiG5rjAJHCgXWXKehUPD6mhdo10Xdj6xLGRf6tedE6TqJ++oxrb3YyKbbZiYvvAgvwWInQYfqPWj5ofmUkZOu11OdiEb09VDdbon4PVPp+1Vj9cqVEwgFCgm8gwAIgAAIgAAIgAAIgAAIgAAIgEDpIaDdTcCG8BVL5ls9+dbtOlOFiIrSEDp/zjSbjKlWD3KroiIU8CmvHl+/epk0oCv9eHv7CONsCCUK9zucwiMqUat2neQxB6HdvmWDarBlwzavTGcXPZyWLpxLLEAYJltjFGgN4UUVCnguLBBsXLdSz72RYoBmNz2ctEIBr6bnXQ43bhTIsnDhsqhV247y+PCBvXRQBMh1dFLc4Zw5dUIyttS/lg+7iFq2aK4UGLiNh6cnxfUbLEUHU65+FCM6iwErly4Uoo1ukTC3ZfGic/fefCjFoC0b18rjorxwEGMWajiZ2v1hqe9efQeRl7e3FELmzphsqapemXKNhjEKlErMiHlzYtdZG9asUIru2DuEAgejv9uFAvbtP2rJQxapNg9vRf8TLoc4/bDza6OV/5z/f52+p/ohDaWQEDe9k0kj+p0UCqy5Tq1QsOfSTnp19fN8aWrSujIaNq+/unNCreCkA8Ut0eoji+njRa+ZHAVCgUksyAQBEAABEAABEAABEAABEAABEACBEk0gtnpNqt+omZzjulVLKfmSdW6E2YjKxlROvLL+wN5d8thZL1qhgA2kbCi1lNi/PK++Z1dIHGDZ0JWN1rjMBnQ2pBumOykUWOvKSSsUrFy6QC8mAF+Pwo3FEnb34+hkr1Cwf+9OOnrotvtwnldrIexUEAJPbk4OLZg7XZ0qxzFgYYfT7p1b6YSIY2CY2nfuLuMzMDdexV/UpHAzZbTneBcsNt1ON+XnhsfmdM/QB2Q572JZHK/vveR2G+OjwoQCHpP75sTxJ5aKXSJ3OkEocPAduNuFgo83j6HVZywrYPfVepAeqfe4JM87Bi4L10K8y4CT8sGsEVSLqgXWkHkjFz1AiVdPy2Pty50UCqy5Tq1QYCruQQshmHCMBk5PLn1EuGXS34alvVZ7jmtUqEvRwbEU7l+JAryDqeytL72edQbK7qbvmEC/rfvKZNeVIiPJUyibMonvxePHb+/4MNkAmSAAAiAAAiAAAiAAAiAAAiAAAiAAAneUAPvw73PPUOnyJf1yqlypbe2E2rTvQmHhEbrdBOyaRazyd2ZSDLfs4mZR/MxCh1KMtbxy/YwILHzLjCTbKbYkDuDMiQP+8sp9w3QnhQIOhrxj60bDKRmda4UCUyvfFePzpYsX5C4Mow6KmGGvULBq2SKxY0I/nkCDxs1EXIaa8pnSGvtr1K5LderpYlKw+ygWEpT7qdzLQBHcmAM/c1q2aB5dzbhSpCvrP3i4DNLMQtP82dP0+hp474N653zCO2qu5+bKfKXcVmO+cq9MiRPKgErf1n4OlHbOeodQ4GCyd7tQoI1DYA6tYuA3V26Y/8aaF2nnxe2G2aT0k5aTSsPmDTAqN8xwpOsha65TKxRw8GQOoqxNDUIb0Rcdv5NZzy5/nI6kHdIW233cIqYDPdH+FaoUWNliHxzMmIMaI4EACIAACIAACIAACIAACIAACIAACJR+AhyslYO2clq7cokIzKtzZ1PYlWl9pRsGrC2srb3lilBgGIfAVH9aA7+pcsM8cwGctf3wanxelW8paV3rFNX1kDYOgaUxFaHAcBW+0oZd8vDuCXZVtGbFEiXbYe/2CgUL580gDsCsTeaCPXPQYyUOgba+uWNb4myY66N77wEyjoWpHQqKsV7bVisUsPjm7u4hxbP4WVO01SweFyYUcMyMvgPvlX3wZ5U/s3c6QShw8B2424WCgXPiKPO65WAqn3b4mhqHNZXkf979faF3gAMdp2brq5Lc6E4KBdZcp1Yo+GTzB7TqzHK9a3WGUNChek96O063S+F6fq4IVryCzqafpuy8a5RfkEctYtpTk8qt5Twe+2sAnUk7oTcnnIAACIAACIAACIAACIAACIAACIAACJQ+Ai4uLtR7gG43Afu2X71cf7GipStq27ErhYaFSx/sC8RKal617+ykCAUc5JaD3VpKWiGDDarnzp6xVF0GJD6XZFznTgoF7GefV88XlhShgI3ubHw3TCVVKLBFSFGeN762vbuNFwYbXnOSiFNhKEIY1insXDvmnOmT1bgP2na16tSnWnUbyCytUKAw5wJTuzy0fWiPCxMK2JUWu9TiZO2OE23/zjiGUOBgqne7UNB/VnfKztdXEA0Rj278IvWL1bm/6TOzC10vuG5YxapzW4WCaf3nUYBHoFjZv5i+2KofxNfL1YvmDlwqxzXlJogLtDEFrLnO4hYKgkQQY44/wOlc+hl6afojlJaVLM+Vl7EDxlGz6LZUIALhxH3X2GTsB6Uu3kEABEAABEAABEAABEAABEAABEAABEoHgeo161DdBo3lZFcvX0xpqfr2AHNXofXtf0j49j9kwre/ubZFyVeEgpMJR2nX9i0Wu3J1dZW++bkS+7Nnv/b2JFuFgqjoKtS0RRs5FPvYly5yNAM3bNKcqsTq3GabMiD7+ZWjbnH9ZYvN61cLgSNR09r04d0gFDRsLLhV03Hj4MAFBQWmYTgwt1HTFqS4plqzYrHYkWH8+TAnFLRo3Z4qRuq8dnBwcA4Sbk0qTCiIqiyer5a65+vgvt3Eu3nudIJQ4OA7AKGgcKGARQIWCzg9tfRRSki3z//9Gy3epc6Vu1PG9Ss0eE6fQu/kX72nUQWfcNp2fjO9ve5VvfrR/lXo1x4TZV5pFQo61ehFb/b6TF7Dm7OfpB2n9X3f+XsF0vQn1sjykynH6Im/B+kx0J6MevxJiq1WTc0a9+P3dPrUKfUcByAAAiAAAiAAAiAAAiAAAiAAAiAAAiWDgIuLq4xNwLsKbHVJ065TN+JgrmysLa7dBEzNFqFAWz/50gVat2qZXeC1QsGOLRuFnUPEOrCQIipFUcs2HWSN5cJPfoaBn/w2HURchwoRsvy/JhTwKv6tm9ZZoENkr2smFglYLOC0YskCYXhPsziOIwo5qDIHV+ZkLhC0OaFAe50nE44JYWuzVVMqTCjg4OEcRJzTqmULRYyHVKv6dWYlCAUOpguhoHChIKpcZRrfUxexfNO59fT++jfN3gWXMi5UcNO0svhY/adoaM3hsm3cjM6UfyPPbD9c8FWnH6huSANKz71MQ+fqtvYoDZ5oOJoGVdf5BSutQgHHJRjU+CF5SabcCv3f4D+ofiWdy6fFB2bRV8vGKJdv9D5t5hwKDg5W8z/+34e0Yrl9P8RqJzgAARAAARAAARAAARAAARAAARAAARBwOIEatURw2Pq64LCmgsqaG5ADxnbqFieLD+zbRUcO7jdX1eH5tgoFrdp2ovCKleQ8li+OJ45DYCpxMFz2Q28qcRkHRebE18rXbCkFBpUXfHrJKtu3bKAzp267b3Zzd6c+wtWTEnz3vyIUdOnRh9jVkzXBsLUGdFtcD2ld7pw/m0Sb1q8yexss3U+zjcwUaOMUrOBnyED4MScU8Bx6Dxgi4xTws8XPn6ngyl7ePpR3/bpw3aWzT1oSCrSfWWvidJi5JIdnQyhwMFIIBYULBYz85WZvUI+Y3pI+B/n9cde3dC0vS567u7hT8/BWdG/N+ykj94rR6n9ZSbz0iIkT/ehEBnYn9Oe+X2Usg5vCoY6p9HSj52lAtcGyiOv+e2iSCKpehjpGdaE3W76vNimtQsHARg/Qkx1ek9ex8vBC+nbFhzI2AbskekvsNFBEAq7w9fIxtGj/LPWaDQ8gFBgSwTkIgAAIgAAIgAAIgAAIgAAIgAAIlDwC7JaHYxPwboKU5IsiIKrOrbI1M23fuQeVDwmVuwnmz54m3p0fm0CZl61Cgbcwwvbsq3Njff16Lm3btJ4uXjindEc+vn7CDVB16QqIV2ebExKUwLS8g2LTupXCRVOK2ZgM2mCz7CN/lYj7kH0tSxqMW7fvTEHB5dXx/ytCgeL6iC+MXUJxXAXmbSrZKxRwX42bt6LomFjZLe/s2LtzmwwWzBn8LIeFVyQ2pl/PzaENa1fKekV9YfdB7EaIE99/DmidfPG8HNfL21uWBQWHyHJtjALOiKlajRo1bSnLDNv6+PhS5SqxVLN2PREb5LbbL0Uo4Pob1iwnFhJYJImoGKnuJOAOTe1WkQPdgRcIBQ6GDqHAOqHA192PxnX7XboCUm5B1i2hwMfNR8miHRe20ptrX1bPtQduZd1oWv940tZXyo+kHaJnlz+unMr3MO8KNKnPdDVP2anAuxYuXbtIod5hsqy0CgVh5SJowogF5FLWRb3GjJx0Kuep28bEAY293Lxl2ZN/D6YTKUfVeoYHM2eLeA6BgWr22I8+oJUrlqvnOAABEAABEAABEAABEAABEAABEAABELjzBNg4WbteQzmRlUsXiJXg1rlxYSN3x6661fL79+yko4cPFOvF2CoU8OS0Lmv4nFd3c9wAD09PdWU/51vacVC1Wk1q0LgZVzNKa1Yska6btAVawznnc6BnFmc4sQHd3d1DHv9XhAJ2hcMucUylwyJ+xUERx0JJRREKeEcGBwlmI7uS8vJ0K/Hd3NyULCkGbViji8epZhbhQBvLQ+mGnyNlZwjn8TwWiUDShkG9+XPGnzdtMmxrSijQ1tceXxOiE8eusPYzq23rrGMIBQ4mezcKBX1j76FnG78kSVoT5FdBzgb6EfVG0eAaw4iPDdOBlH00/chk2nh2vWGReh7kGUyDatxLcVX66QkGpoQCbtQhsjNxEGTteElXE+mVVaNpSr+5sl9lt4E6yK0DW6+T5zal3xzZeuymMbQmUf+LrZ5wg/SlcIfEafTyUXQ07bA8LspLi5gO9FbcZ6ogwH2xQDBx4w9UTsQoGN58lOy+57cN6cbNGyaHKlu2LC1dsVr9kuQvxn59ehkF7THZGJkgAAIgAAIgAAIgAAIgAAIgAAIgAALFQkC7m+DSxQu0frX1LoM7du0pVsSHSGMoxybgVc/FmRShwNbgxP4BQWLldzvyFYGCDRMb7tm3/oG9u4Wx97phsXrOBu7qteqQtzBS8+p1JZkSCtigzb7tg8uHKtWkQHFg7y5yFQZtNhyzsXj2NJ2LbbWSOPAVuxzY3Q2nTcIgfN6KYMbNWralyMoxYufCNVoUP1O21b507h4nFnYGi90jl8TukSXaIocdM+MatetSuPDrr+VjKBRogz3zjhTDnQeKYd0cHzbO16nXiKrVrK3aoLQXwfE2jh4+aBU3bbvCjkPDwuWOBt6lYpj4edy/d6eRSKDUCxe7ATi+Au9AMEwXz5+lHVs3UU5Otizq1quf3EGg1GMOWZlX5W6XFHFtCUcPm3WTpbQp7ncIBQ4mfjcKBUVFyO5/eDV/dEAVYcAvSxeyLtD5zLOUna/7YBW1f8P2Xq5eVCUglvw9/Gl/8j4ZDNmwTmk+d3f1oJjy1SjML4KOJx+mc+lnbLqcdu070JgP/6e2mTtnNn33zVfqOQ5AAARAAARAAARAAARAAARAAARAAATuPAGtT/UVS+aLoLCXrZoUG707dOkh6+7bvYOOHTloVbuSVIlFEr9yAcLlkC+xW6BrWZnEK7SdlXjlu39gkByHObPRF8lxBLx9fIQ7nkApGPC9ZIO64Yp+x42m64mDgAeIe8o7UthVFY9p7X3l50/X1ks8E1mUefWK6jrJ0fMszv4gFDiYNoQCBwNFd8VO4P0PPqL2HTrKcfPFdqs+cT3+E192xQ4SA4IACIAACIAACIAACIAACIAACICAkwiwobLvwGHSsHrx/Dnhx13fi4GlYdnlELseYkPs/NlT6cYN0x4HLPWBMhAAgf8eAQgFDr6nEAocDBTdFTuB6bPmUlBQkBx36pR/6defxxX7HDAgCIAACIAACIAACIAACIAACIAACICAeQLsNjgwSBdMN/NqBuWKoK/WpsCgYCor4huyixReRY0EAiAAAkwAQoGDnwMIBQ4Giu6KncDgIUNlIGPebvXn7+OxsqDY7wAGBAEQAAEQAAEQAAEQAAEQAAEQAAEQAAEQAIHiJQChwMG8IRQ4GCi6AwEQAAEQAAEQAAEQAAEQAAEQAAEQAAEQAAEQAAEQcCoBCAUOxguhwMFA0R0IgAAIgAAIgAAIgAAIgAAIgAAIgAAIgAAIgAAIgIBTCUAocDBeCAUOBoruQAAEQAAEQAAEQAAEQAAEQAAEQAAEQAAEQAAEQAAEnEoAQoGD8UIocDBQdAcCIAACIAACIAACIAACIAACIAACIAACIAACIAACIOBUAhAKHIwXQoGDgaI7EAABEAABEAABEAABEAABEAABEAABEAABEAABEAABpxKAUOBgvBAKHAwU3YEACIAACIAACIAACIAACIAACIAACIAACIAACIAACDiVAIQCp+JF5yAAAiAAAiAAAiAAAiAAAiAAAiAAAiAAAiAAAiAAAiBQsglAKCjZ9wezAwEQAAEQAAEQAAEQAAEQAAEQAAEQAAEQAAEQAAEQAAGnEoBQ4FS86BwEQAAEQAAEQAAEQAAEQAAEQAAEQAAEQAAEQAAEQAAESjYBCAUl+/5gdiAAAiAAAiAAAiAAAiAAAiAAAiAAAiAAAiAAAiAAAiDgVAIQCpyKF52DAAiAAAiAAAiAAAiAAAiAAAiAAAiAAAiAAAiAAAiAQMkmAKGgZN8fzA4EQAAEQAAEQAAEQAAEQAAEQAAEQAAEQAAEQAAEQAAEnEoAQoGT8P4+6BeKKBdBGblX6cLVCzT3YDytPrGabty86aQR0S0IgAAIgAAIgAAIgAAIgAAIgAAIgAAIgAAIgAAIgAAI2E4AQoHtzKxqMf3+fynEJ0Sv7q9bx9Pk3VP08nACAiAAAiAAAiAAAiAAAiAAAiAAAiAAAiAAAiAAAiAAAneSAIQCJ9F3K+tKvh6+FBscSx92e5+83Lwo63oW9Z7Q30kjolsQAAEQAAEQAAEQAAEQAAEQAAEQAAEQAAEQAAEQAAEQsJ0AhALbmdnc4okWo+i+BvfKdp1/6y7cD92wuQ80AAEQAAEQAAEQAAEQAAEQAAEQAAEQAAEQAAEQAAEQAAFnEIBQ4AyqBn0OqN2PXmj7nMwd9PdQSr2WZlADpyAAAiAAAiAAAiAAAiAAAiAAAiAAAiAAAiAAAiAAAiBwZwhAKCgG7r1r9qJX278sRxr8zzBKyUophlExBAiAAAiAAAiAAAiAAAiAAAiAAAiAAAiAAAiAAAiAAAgUTgBCQeGMilwDQkGREaIDEAABEAABEAABEAABEAABEAABEAABEAABEAABEAABJxGAUOAksNputULBQ9MeoTPpidpiHIMACIAACIAACIAACIAACIAACIAACIAACIAACIAACIDAHSMAoaAY0LeJbk1ju38oR/pu4w80a/+cYhgVQ4AACIAACIAACIAACIAACIAACIAACIAACIAACIAACIBA4QQgFBTOqMg1KparSP8Mmyj7OXTpED095zm6Kf5DAgEQAAEQAAEQAAEQAAEQAAEQAAEQAAEQAAEQAAEQAIE7TQBCQTHdgRfaPkcDaveTo53NOEvbknZQenY6bRfv+y8eKKZZYBgQAAEQAAEQAAEQAAEQAAEQAAEQAAEQAAEQAAEQAAEQ0CcAoUCfh1PP2AXRC22epRCfEHWcv3dNpvHb/lDPcQACIAACIAACIAACIAACIAACIAACIAACIAACIAACIAACxUkAQkEx0R7Z9BF6sPH9crSs61m04fRGSs5KoS1nttLeC/uKaRYYBgRAAARAAARAAARAAARAAARAAARAAARAAARAAARAAAT0CUAo0OfhlLMw31CaOnyy7Dv1Who9OHUEXcu75pSx0CkIgAAIgAAIgAAIgAAIgAAIgAAIgAAIgAAIgAAIgAAI2EIAQoEttOys2zKqBX3ac6xsPXHnJPpzuy6wsZ3doRkIgAAIgAAIgAAIgAAIgAAIgAAIgAAIgAAIgAAIgAAIOIwAhAKHoTTfUe+avejV9i/LCo/MeIxOpp0yXxklIAACIAACIAACIAACIAACIAACIAACIAACIAACIAACIFCMBCAUFANsrVAw+J9hlCJiEyCBAAiAAAiAAAiAAAiAAAiAAAiAAAiAAAiAAAiAAAiAQEkgAKGgGO5Cn5px9Er7l+RIEAqKATiGAAEQAAEQAAEQAAEQAAEQAAEQAAEQAAEQAAEQAAEQsJoAhAKrUdlf8f6G99Go5iNlB73+7EvZedn2d4aWIAACIAACIAACIAACIAACIAACIAACIAACIAACIAACIOBAAhAKHAjTVFdly5SlcQO+p5ohNajgRgF1Gd/DVDXkgQAIgAAIgAAIgAAIgAAIgAAIgAAIgAAIgAAIgAAIgMAdIQChwEnYX2r3AlUvX40qB0SRl5uXHGX9qQ30ztL3nTQiugUBEAABEAABEAABEAABEAABEAABEAABEAABEAABEAAB2wlAKLCdmVUtpt//L4X4hKh195zfSx+tGEsp11LVPByAAAiAAAiAAAiAAAiAAAiAAAiAAAiAAAiAAAiAAAiAwJ0mAKHASXegXoW65O7iTpezL1NKVgpl5F510kjoFgRAAARAAARAAARAAARAAARAAARAAARAAARAAARAAATsJwChwH52aAkCIAACIAACIAACIAACIAACIAACIAACIAACIAACIAACpZ4AhIJSfwtxASAAAiAAAiAAAiAAAiAAAiAAAiAAAiAAAiAAAiAAAiBgPwEIBfazQ0sQAAEQAAEQAAEQAAEQAAEQAAEQAAEQAAEQAAEQAAEQKPUEIBSU+luICwABEAABEAABEAABEAABEAABEAABEAABEAABEAABEAAB+wlAKLCfHVqCAAiAAAiAAAiAAAiAAAiAAAiAAAiAAAiAAAiAAAiAQKknAKGg1N9CXAAIgAAIgAAIgAAIgAAIgAAIgAAIgAAIgAAIgAAIgAAI2E8AQoH97NASBEAABEAABEAABEAABEAABEAABEAABEAABEAABEAABEo9AQgFpf4W4gJAAARAAARAAARAAARAAARAAARAAARAAARAAARAAARAwH4CEArsZ4eWIAACIAACIAACIAACIAACIAACIAACIAACIAACIAACIFDqCUAoKPW3EBcAAiAAAiAAAiAAAiAAAiAAAiAAAiAAAiAAAiAAAiAAAvYTgFBgPzu0BAEQAAEQAAEQAAEQAAEQAAEQAAEQAAEQAAEQAAEQAIFSTwBCQam/hbgAEAABEAABEAABEAABEAABEAABEAABEAABEAABEAABELCfAIQC+9mhJQiAAAiAAAiAAAiAAAiAAAiAAAiAAAiAAAiAAAiAAAiUegIQCkr9LcQFgAAIgAAIgAAIgAAIgAAIgAAIgAAIgAAIgAAIgAAIgID9BCAU2M/OKS09XD3puc7vEJUpo9f/hStJNGnzT3p5OAEBEAABEAABEAABEAABEAABEAABEAABEAABEAABEACBohKAUFBUgg5u7+8VQNOfWGvU66Wr5+mB33sY5SOjdBBgASjYJ4Ru3LxBFzLOlo5JY5YgAAIgAAIgAAIgAAIgAAIgAAIgAAIgAAIgAAJ3BQEIBSXsNruWdaUede5RZzWw0QMUGRRDEApUJKXyoFvtfvRq9//JuQ/9tSOlX0srldeBSYMACIAACIAACIAACIAACIAACIAACIAACIAACPz3CEAoKOH39N3eX1K7at0gFJTw+1TY9CAUFEYI5SAAAiAAAiAAAiAAAiAAAiAAAiAAAiAAAiAAAneKAISCO0XeynEhFFgJqoRXg1Dg3BtURsT0CAgIpJs3b1J6+mWbBvPy8iZPT0/Kzs6mnJxsm9qiMgiAAAiAAAiAAAiAAAiAAAiAAAiAAAiAAAj8FwhAKHDSXSxDZahWeANqHtOOKgZECv/0oZSSeYmOJx+i/Wd30cHzu60a2VahwN3VgzrX6E31KzWhIOETf2/SdtqQsIKuXc+ixlEt5ZgrDi+g/II8o/HLeQZQ++rdqUZYHQotF0Hn0xPp6MUDtProEtE+06i+ozI4LkPLKp2oakgNigmOpZz8bDqdeoKWH4qnU6nHTQ5TtkxZ6lC9B9WoUI8qB1WhqzkZdOTiftqUsIrOXUk02aZ9te7k5+lPJ1OOCv57jOr0rDOQXMq60P5zO8X4CWp5hH+kvI+cMX/fdAr3r0QtYtpTo8gWlJOXLevP2zOFCm4UqG34oHPNOGKmnOpVakrtYrvK4782jaPM3Ax5zC8FNwsofs9U9dwRB15u3sKF1QDZ1YaElfLZqx5Wm1pX6Ux1IhrK8y0n18h7e1PETdAmfnZbVe1INQXbaqG15TUy2/XHl1PS5dPaqiaP2VVWk6hW8n5WDKhMqVmXKCH5CC0+MNtpLpeqVK1G7743Vs7nxeefsEks+OCjzykqKpr27t1FX3/5iclrMszs2q071albT81eED+Pjh8/pp7jAARAAARAAARAAARAAARAAARAAARAAARAAARKEwEIBU66W3+PXEKhfuFme18gDM4/rPrYyLhs2MAWoSDAO4i+HPynjGlg2M/8vdOoT/2hMvu+37oI422yXpW6FRvT2AHjiA3MhikjJ53emv2UFA0My4p6zsZ+9t3PAoepNHnrrzRh4w96ReV9Q8Vcf6KY8tX08vmEjfVfLX+flh2cZ1Q248m10nDPZV8sfceofOkLe2Uej8fjKkm7G+DTxW/QGz0/VYrU9xPCED56ynA9AUYZT61k4aD7N/UtlNpeVCkwmv54WMfgw/kvUf8Gw6hBZHOjjn5e8znN2vW3ml/eN4w+6PetFAjUTM3BN8s/oIX7Z2pybh+yyPJQy2fovuaP3c40OHp95ijalbjFILfop8UtFIz/YyLFVKmiTnzCn7/TpIkT1HMcgAAIgAAIgAAIgAAIgAAIgAAIgAAIgAAIgEBpIgChwEl3a/ZTG8nHw1euTD98YZ9Y5X6GfNz95Ir9CuUqylFXipX9ny5+0+IMbBEKfr5/OlURq/I5nUw5RrxiPFyshmdjvDYZCgXBYufBv6NWqFW4Ha/ojylfnZpFt5H5bIDnILxXc66o9Yp6wCv4X+o2Ru2Gxz1+6bBc9V+vYhMpBCwRq9C/XPa+WodXu08auVgVYbj+rsTNFOgdTJ1qxMkdAVz5zdlP0o7TG9V2fKAY7osiFHA/1/NzaY3YZZGdd41YRFDEla+Xj6FF+2dxFZnub/GE2EkSIo9jQ2vJFfp8wvedd3goKf9GPo1bbSw+KOX2vGuFAt4dUTm4qhRRjl06SMmZFyk6qKoUlH5d9yXN2DFRDuHl7kNTxHOgXA/vuth1ZjP5epaj7rX7q/nvzh0tnq21RtN6O+4L9VljRuuPr6DEyycpIiCKmlVuQyxkjV34mmC32KhtUTMgFBSVINqDAAiAAAiAAAiAAAiAAAiAAAiAAAiAAAjczQQgFDjp7g9v/jhtOrFKGuy1Q7Ch+/NBv6mruwf+1Ea4obmqraJ3bK1QUF+4tvm/wX/IthuEgfbDBS8Lf+06lzIsFLARV0mGQsHL3T4QbmrukcWfLX6LVhyer1SlfmIl+uhOb8nzmTv/ol/W/p9aVpQDb3dfmvb4KrmTgA3ur84YabRjgefNuzKm75igDqW9FnZN9MWSd+im+I9TdeEy6dt7/5ZiARvHR03SXZPS2BFCAc915MT+wnXPRdktCxSTH1sux2T3PM/+O1wZTu9duyuBBZf0a2l65Y4+0QoF3DfP7b25z9Lla6nqUHUjGklyB87tknnPdHpT7Dy4Tx4bih7ssunPEfFyRwbPffj4rsQCh5Jqhzekb+79S56ySPX6rFF61+ha1pUeaPkk7U7cKv9X2jnqHUKBo0iiHxAAARAAARAAARAAARAAARAAARAAARAAgbuRAISCO3DX2b/9R/117nRenPYwKYZaU1OxVihQ6nEfw8d3Uw3ZSp9/PbqIlJ0MhkLBoud2SUP3ufQzNGJCH6WJ+s6rzDneARvJ+//YUs0vysGwZiPp0TbPyy6+WfEhLdw3w6ruvhoygdhNEqfBP7cndoukTW/0/ETEBugtsx6d2E/41D+lFjtCKPh9/Tc0dbtOkFE6/qj/9yJmQQdpGGcRwFS6k0IB7wa599dORqy08+RdBHOf2SyzeGfHu0JUMEzae/b81Afo0HmdqyauxyIVi1WcHp3Y16pYBrKyg14gFDgIJLoBARAAARAAARAAARAAARAAARAAARAAARC4KwlAKHDibefdAw0im4lgu1UpTAQH9vX0k6MFepeXwXD55J25z9DWk+vMzkIRAC5dPU8P/K7vQkjb6JcHZkpXPeaM/Y+3e5kGN3lYNtEKBf5egTT9iTUy/58tv9DETT9qu5XHT3d8nQY0vF8e9/mhmXS9Y1TJxoy34z4Xbmp6Snc4vb9vQjcMAuqa604RLcyt3ufg0f/rr7sGQxc5jhAKnhVxCI5c2K83vac7viH4DJfX0uu7RnplysmdFAqWHJgj3De9p0zF5Dvvxvjhvn9lGe/G2JO0TTy9ZeR5mTK6d95VoLixYldJc3ZPVvtS2LK7ohemPqjmO+OgU+fuNPz+EXpdlxVzLOviIvNuFBSI50m3y0Sp9PNP39KO7Vvom+9+JR8fXyVbvru6uqrn+fm3d0lwZnLyRXrrjRfVcuUgODiYAoOClFM6m5RE2dnZ6jkOQAAEQAAEQAAEQAAEQAAEQAAEQAAEQAAEQKA0EYBQ4KS71TiqJb3S/SPi4LCW0pj452ljwiqzVawVCpSYCHuEa5dXZxoHkx3Y6AF6ssNrchytUFCjQl36fpjO4GvobkaZFAsMLDRwGvlXf0pMO6kU2f2uCBvswod3QFiblN0P644to4+EeyXDVEXEVfj5Ad3uBHPG7KLEKNCyU8Z+tM1zNKyZjrm5oMR3UijQxiFQ5mz4rp2fYZmpc3YH9du6r2QRuxVa+NxOeWwYU8JU26Lm9e5zDw0eonORZG1f43/7kTasX0O/jv+H3NzcrG1GV69m0HOjjT9PVneAiiAAAiAAAiAAAiAAAiAAAiAAAiAAAiAAAiBQCghAKHDCTYoMiqFfH5gl3flw97sSt0j/+5ezUuTKefa7r6zuHxP/ghAKVpqdhbVCwfzR26S//22n1tPbc5426o9XvPPKd05aY3eTyq3pk3t+lvnmAs3G1R1EL3R9X9bh1eK8aryoSdkZwP7sn/h7kFXduZR1IRYKOJkzSPPOjUmPLpZ1/to0jv7eors2zlBWvRdFKBjySwe6kn1Z9q+8lHSh4H8LXqG1x5Yq0zX5rhWD2A3UGRGE2FJid1nKzgrtrhStgGCpfVHKIiIqUsNGOjdHSj9hYeHUvkNnebpwwVzKyspUiuT7li0bKTUlmTp07GK0o6BXXD/y9fWT5StX6nO6nJZGmzaZ3/GjNwhOQAAEQAAEQAAEQAAEQAAEQAAEQAAEQAAEQKCUEoBQ4IQb91K3MdSzzkDZs6kYBM2i29DYAT/JckcJBUoMguOXDtPTk4caXdVDrZ6mB1o8KfO1QkFUUBUa/9Acmf/Tms9o9q5/jNre3+IJerjVMzKfg9imZF4yqmNrhhJrICs3k+75qbXVzQsTRGqF15cBjbnDL5a+QywKKGna46spwDuIlskgyG8r2fJd66N/wsYfaPLWX9Vy7Wr70igUFPaM8YW2rtqJxvT9Vl5zYbtcVDCag8J2emiqOuWwuGMUOOUi0CkIgAAIgAAIgAAIgAAIgAAIgAAIgAAIgAAI3CECEAqcAP7n+6dTlZAaZM6PPrup4VXonAoz4r7aYyx1q9VX+r+PE778b5rx5f/ZoN+oUWQLGT9ggDC85xfk6V3Z2AHjqFl0W5mnFQo8XD0pfvRWmb/4wCz6atkYvXZ88nbcF6pv+h7fNjQ7B6OGFjKe6/wO9amvEzS087HQRBb98XA8VQqsTOZiNrBAw0INp5enP0L7zu6Qx/yiiCmmdl1EB8fSrw/OknWdIhSIe8j3kpOjxBbZmZmXSoHR9MfDOpGksGeMu2CmzJaTqYDNssDCi8I2LStZ7FjpSjfFf8WZilso6NK1G3Xv0VO9xOXLltKypUvUcxyAAAiAAAiAAAiAAAiAAAiAAAiAAAiAAAiAQGkiAKHACXfr94fmErsf4tXyA39uq2dYd3Vxo+mPryEfD11A1cKMuMObP04jWo+Ws+SdArxjwFTSxiD4ctn70jWPUo9X0fNqeiUZGuaVlfbX83PJUGTglfazntog3SiZC5Ss9GvLe9vYrvReH52Pe1Mr/JW+fD38KDP3qnJKb/T8lDrXjJPno/+9T7p0UgvFwbjh0yg2tKbMGvJLe+EmKF0tVnYxpF9Lo6G/dlTz+eCJ9q/QoMYPyTxnCAUNI5vT54PGy/5fmfEo7U3aLo+d9WKrUFC2TFma+eR6+Vzyczvk1w5GYpMyV3YBVXCjQDmV7893eZd61xsijz9d/AatPLxQr5xPuJ2bizvl5Dk+6G9xCwXvjflQuDHqpF7jhvXr6L133lLPcQACIAACIAACIAACIAACIAACIAACIAACIAACpYkAhAIn3K03en4ijNm9Zc9/bPiO5u6eTNl516Tbm4/6/0A1wuqqoxYmFNQOb0jf3PuXrM+Geg5Me/jCfnmemZshdxDwiburB80Shl5+58Q7AzadWEUV/CsSxznguAhKMhQK2MDLhl5ObMB+d+5oOV820n8y8Bd1vp8sep1WHVmkdFPk9x+HT6FqobVlP+wX/+e1X6hGZI418EKX94Sbo4vEwoeStAZwNvhzzIRzVxKJDd2PC2M/CyacTMUheLrj6zSg4f2y/M+N39G/W8dTGfFfxxo96c1en8l8fnGGUBDiV4H+Ganzf89xGZhl0uVTlH8jXx3XkQdaToU9Y8q4Har3FLtHPpenLEh9vOhVMcfT8ryM4FurQj0ppjSOamXkLsrP05/+fWy5+vx9s+JDWrx/lozJwYxrRzQUjD8VAZC/pjVHdTEklHEd8Q6hwBEU0QcIgAAIgAAIgAAIgAAIgAAIgAAIgAAIgMDdSgBCgRPuvNbvv9I9G7V5ZT8ndpujGO6tMeIqboWUvpR3FiGmbNOtUuc87Sp9pY7ynph2Uu5y4HNDoYBXevMuiIiAKKU6ZeSkUznPAPX8RPIReuqfoQ51KcOcvr33b3V3BQ/G43q6eqkGZ1NBi1lAiKs3WJ0br4BXdmhwJosyIyf2lyKDWkkcaAMdc76yKp6vX3tPnCEU8HgsErWIac+HRqn7N/WN8oqSYY9QwOMpwbOVsXmXybXrWeqzy/mc1+eHZkoV9Z0Fl7d66YQGJZNdEQX5hCinZC5gtlrBzoPAwCB68OHHZOtffv6OcnNyrO4prnd/iq1Wg/bu3kmrVy+3qt1HYz+h1m3aqnXXr1tL77+rH/dCLcQBCIAACIAACIAACIAACIAACIAACIAACIAACJRwAhAKnHSDOB7A6z0/1jO281Brji6hSZt/UgMIWxM41rWsq4hp8Lx0uaM1upryJc87EEZ3eotiyleTrl7YAL7kwBxKFQGIX+iqW5nff1wryhbGX21ilzBsgOfAvYYpfs9UGrfmU9WwblhelHNvd185LhuZDRPvoPh+1ce04/RGwyLq3+A+erLDa/IatYUHz+8RcR+eJxZmTKUO1XtI90UsDiiJV82/MuMRmjJqpcxSdhso5RwjQokvMPjn9lLMUMr4fUTrZ2l481GST6/vGmmL9I7ZjRPHp+hSqzcF+4Tqzd3RQgGLPhNGzJfjW/OMaSfK9+L5zu/piS9KObNaenCOEKh+V7L03lmgYLFAcf+kLdyVuIW+Xf6h3AGizS+Nx1OmzaSQ0FB16q+89Dzt2rlTPccBCIAACIAACIAACIAACIAACIAACIAACIAACJQmAhAKnHi32MDPq+YrikCxFzPOUULyYacY201dArvi8XDzUgUBxZhtbjW40gfHUODAvhH+kZSUfprOpCY4zT2OMia/83yZU+WgqnJHALvlYWaWEru0qRgYJeZbTQgDqYLvEdnWUhsuY4M9B5v29wqg/Wd3GRn+C2t/t5T7ewVStBCc/MXOkuTMC8TCjTbmgyUO7AKLn6Nw/0qUKnYVJKadsLqtpX5LQpmrqystXraSypQpI6eTmHiGRjyoc2lVEuaHOYAACIAACIAACIAACIAACIAACIAACIAACICArQQgFNhKrJTW59XlvMqcXRCN/Kt/ka6Cdx+woGBzunnTKkO+zf3+hxp4CnGH4wHYmgpErAMWgZCcT6Bj5y707ntj1IGefeYpOnhAFzdEzcQBCIAACIAACIAACIAACIAACIAACIAACIAACJQiAhAKStHNKmyq9zS6n+pXbErz9kyhfed2Un5Bnlw9/3j7l4kDFnP6dPEbtPLwwsK6slg+pu831LpqZ4t1zBU62sWOuXFKa/7cZzbLe2br/I9c3E/P/jvc1maobweBDz4aS23b6WJNnEhIoFEjR9jRC5qAAAiAAAiAAAiAAAiAAAiAAAiAAAiAAAiAQMkhAKGg5NyLIs9EcS+kdMQrzNkFjJLYf/8LUx9UTu1+/6Dfd9SqSke72kMosIzNXqHg2KWD9MzkYZY7R6lDCLRp245q1a4t+1q8aCElJSY6pF90AgIgAAIgAAIgAAIgAAIgAAIgAAIgAAIgAAJ3igCEgjtF3gnjNo9pRyPbvCADGWu7z8hJp2nb/6Tp2yfQTfFfURPHLwjwDra5m4Kb+XTkAly0WALHQYDdXTwtVTFZdjX3inQrZbIQmSAAAiAAAiAAAiAAAiAAAiAAAiAAAiAAAiAAAiBggQCEAgtwSmsR+7jnQL3e7r506ep56YKotF4L5g0CIAACIAACIAACIAACIAACIAACIAACIAACIAACIOBcAhAKnMsXvYMACIAACIAACIAACIAACIAACIAACIAACIAACIAACIBAiSYAoaBE3x5MDgRAAARAAARAAARAAARAAARAAARAAARAAARAAARAAAScSwBCgXP5oncQAAEQAAEQAAEQAAEQAAEQAAEQAAEQAAEQAAEQAAEQKNEEIBSU6NuDyYEACIAACIAACIAACIAACIAACIAACIAACIAACIAACICAcwlAKHAuX/QOAiAAAiAAAiAAAiAAAiAAAiAAAiAAAiAAAiAAAiAAAiWaAISCEn17MDkQAAEQAAEQAAEQAAEQAAEQAAEQAAEQAAEQAAEQAAEQcC4BCAXO5YveQQAEQAAEQAAEQAAEQAAEQAAEQAAEQAAEQAAEQAAEQKBEE4BQUKJvDyYHAiAAAiAAAiAAAiAAAiAAAiAAAiAAAiAAAiAAAiAAAs4lAKHAuXzROwiAAAiAAAiAAAiAAAiAAAiAAAiAAAiAAAiAAAiAAAiUaAIQCkr07cHkQAAEQAAEQAAEQAAEQAAEQAAEQAAEQAAEQAAEQAAEQMC5BCAUOJcvegcBEAABkwTCfMPo5XYvyLIxyz+ia3nXTNZDpvMIlKEy9FH3MeTu4k6/bfudjqUcd95g6BkEQAAEQAAEQAAEQAAEQAAEQAAEQAAESjABCAUl+OZgav9dAhVD3Ol8ynW6cbN4rtHHsyy5u5Wly1fzbR6wnI8LuZQtY1dbmwcrhQ3cXMtQeX9XOp+aZ9PsP+05llpGtaAz6Yn00LRHLLbtUWcARQfH0tn0MzR/7zSLde/GwvK+oTSo8UPy0uP3TKVzVxKtxvBV7y+occVGlJCaQCNnPmF1O1QEARAAARAAARC4OwhEV4klT08vunw5lS6eP1eiLrpW3Qbk4+OrN6ebdJN2bdtCN24U6OXfjSeVoqKpQnhFo0s/duQgXUm/bJSvZLi4uFLDps3FkpIySpZ8z8q8SocO7NXL0oC86gAAQABJREFUw4mOQGhYBQoKDqHc3Fw6mXC0RGGpVrO2/AynXLpI588lFWluJfn7oEgXhsYgUMoI4PfPeTcMQoHz2N6xnj1cPCnYK1gYoW/Qhazzd2weJW3g9T/VopBAt0KnlXw5j9o+dUitt2tCXfIWhvbjSTnU+xXjf/T0bxdInz8TKet/8tc5mrAwRW2rHLCh/qdXo6lRdR9pVC5z69+c1/Nu0oZ9V+n98WfpaGKOUt0h792b+9MbD4ZTdAUPOX/uNL/gJp1Nvi7HW7zlitlxBncKoueGhFFkqDt5eZSV9W4KUeNCWh79MT+Zvp9xUW27/NuaFBnmrp5n596gMxev0+HT2bRyewZZGkdtZOPB/r/rERvotemGUF0uCGN9wrlc+vzv82Z52vscaMeqWdmTvno2iqpW8iR/IaRwYj6Z2QU0b306ffDHWcrIMv/HWd2wOvRD/29lu7ErP6Flx1fIY3Mv0x5fTQHeQbTt1Hp6e87T5qqV+nwXNzcqyLNNcOGL7larL73aY6y8/sf+GkBn0k5YzaJhRAP6ps+Xsv77yz+kNSfWWt0WFUEABEAABO4OAmXEP9zadepOHh4edOniBdqzc6vVF86Gylp16sv6mzesoasZ5v/9ZXWnqFisBHr1HURe3t6UlHiatm4sWf9OUOZmCCR+9lTKu37dMPuuO2/SvDVVjqlqdN1bxH08K+6nueQuPut9Bgw1Kr52LYsWx88yykcGUePmrSg6JpauX8+l+bOtW9jk4+sn0eVkX6OCAvN/OxWVb597hpK7uwedPpVAO7ZsLFJ3ymeuJH4fFOnC0NipBFh89PTykkaDrKxMp451t3SufBYNrxe/f4ZEbD+HUGA7sxLfolt0L3q1+VtynkPn9qP0XPOrJUr8xThwgqdnNiAPd53R21K3uddvUOVBe9Qq5+Y1IrGgntIy8qn2/fvUfOXgqXtC6f1HdStVfhAG9P9N1F9pVD3Skxb8X3Xy89YZlJV22vf5G9LpsU9ParOKdPzOwxE0enCYxT4e++Qkzd+YblTnq+eiaHi3YKN8bUaFvrvU02NT61u8tv0nsum+949TcrrtuxnUQQwOLsQ3MsgxPuVr42s0TPY+B0o/Q4SI8u2LleUzoeQZvj/x+Smau8785+7H/t9RnbDalJ2XTX0mDqACCyu+vNy8ae4zm+UQEzf9SP9s+cVwuFJ97ir+wdTgkcepUuu2VMbFha6LlVpHZk2nhMULdOqLFVc3utNb1K/BMMkx7vsmQrS5YUWr21WmDp9MYWJXwsXMS3Tv5OG3C3AEAiAAAiAAAoIAryBt3KyVZLFp/Wo6f9a6nWssMMT1G0wenp6UKX7fli6YA56lkIBijCiJhsGISlFCwPKUVHlFd8XIyvIYhhLdg8Yr3P0DAuWJp/gc8gpUToUJBWXLlhUCQ6ysyy+x1WuSXzl/glCgIjE6sFUoYKMpfz9y2rZ5PSWeNv67zWgQOzMgFNgJDs0cRqBydFVq0qK17G/B3OmUm+PYRaIOm2gp6gi/f867WRAKnMf2jvUMocA0esVAzO5+eKW7uXQ+9Tq9+uPtPwCLIhSEBLgS70hwddGtfufV/LPXXKbth7OoblVvimvlT7WjvciRQsHYxyvRyL4h8vJ4lfvy7Vdo+bYMyhYCSPsGftSvbaBwQ1SGRn91mmasStPD8Mtr0cQ7JDhx2wXC2L5iR4bYunyT2oq2A0QZr+Q3JRRw/fgNlymivDtVEjsRQsXuDRZYOPFOhtZPHJQ7DXQ5RXtVhALekbFwUzrxDo3y/m5UK9qTgsq5qp1/Ouk8fTPtgnrOB/Y+B9x2YIdAGvdKNB/KtO1QFi0S4/MOipZ1fWlA+0C5Y8SSUBBRLoImD/tLtv9z+0SauHPSrd5Mv9Wv1JT+b/AfsvDtOU+JXQUbTFcsjbnixnUc+zkFmFjpdWT2dDo07V+rrurH4VOoWmhtOi3cB42adI9VbbSV+tSMo1favySzRs99nvZfPKAtxjEIgAAIgMBdTICN/b0HDJGrUTOvZtDShXOtpqEnMKxbVWSXF1YPjIoOJVC9Vh3y9vKhlJRLlHTmlEP7dmRn2ucNQoExWW8fH+rZZ6AsKEwoMGzdonV7KcJAKDAkc/ucjXahoRUoJzeHDlvhnqm0CgWl5fvg9p3BUUkgAKHAuXcBv3+O5QuhwLE8S0RvEApM3wbFQHwt5wZVGbLHdCUTuUURCv58uwr1aukve2VxoN9rR43iEnRtVk4at6et0Dfam5hKoVm8Y+K4WOHPxnw23D/5hfHKdt7ZMHlMVWlAX6ERTNjAfkC49GGjOxv2h49JoLW7r+qNyW6IxoysSK+Puy2kKDsK8vJvUuQ9u9X6HIdhxthYign3kHlbDmZS/9ePqeVFOVCEgnMizkPjR/SNuh8/UYke7aMTStgNUsxg/Xtt73PA8903qR6x+MPpqykX6PN/jF17vXhvBSmwmHMl9WzrZ2hQXZ0xu9/EeygjV5+x7FzzMqTJCBrVTmfEHvxze8rIMd4Foqleqg7DGjamVq+/QzfFVuP1H71Hl48fpaiOXajhY0/K64gfMZwKxB8bhaVFz+0ScTRcaMmB2fTlsvcLq25U7lbWlRY8Mk8GNWbXQ+yCCAkEQAAEQAAEmEBM1WrUqGlLCWPjupV04dxZq8BoBQZ2N7Rs0Tyr2qESCNhLAIYSy+QgFFjmU9ylpVUoKG5OGO+/QQBCgXPvI37/HMsXQoFjeer15uXqRT1i4mTehrPrKCU7haoH1qDWFdtRnfL1xHkybTm3kVYnrjRylcGBk1pVbEM1g2pTNdEmpyCHjqQeovVn11DS1dtGWmXAzlHdqJxHOXlaL6QRtavUQR7/tf93ysy7bYgsEC454o/PVprJd55LtH8VupKbTuuT1uiV8Umz8JYU6h0m4x3suGDskzXSrzI1qdBUtpsn+nYVRreGoU3EdbalSn5RdC4ziRafXEAHU/arfSvzPX75GB1JOyTHaFqhOUWVi6YT6cdp6amFxGWOTPYaiO0VCgL9hOH9n3pyVT0b3tlgzcZ0Z6ZPn4qkEXHl5RAcG2DE/6z31T7+jRjq0yZAtp20OEVvV4WlOZsTCrgN7yg4NbOh3MHA5+2fPmQ2dgCXW5ssCQXcx8kZDdTYCsydBQMl2fsc8E4L3nHB6eT5XGr1+EF5bOuL4ubG2uC57/b5itrFdqWs3Ewa/ns3al+tOzWKbE6BPuUp4dJhGdzYluC9ts7XnvqxobWoeXQ7qhRYmUL9wik3P1cEGD5Dqw4vpIPnbws31fsPpNrDHqDEdWtox7hv1aF6fP8reZUvT2vff4vSjh5W800dhIkdGpMeXSyLvlnxISUkH6ZWVTpSrfAGdDkrlXYlbqGlB+aIsH6WP3uf9fqYWgiu1wuuU/ffdd/bpsbT5nXt1p3q1K2nZi2In0fHjzv2e0vtHAcgAAIgAALFTqAoxv6YqtWFwNBCznnD2pUiCK51AoMtF8muUELDwmWTE8ePELtLCREresMrRgo3KeUo8+pVOn3yOKWmJBt16ybiAkVUjKKAoGDhmiWA2Gfy5bRUSjx1kvLyCvdtXz4kjIJD2K1LkAgS6klZmZmUmnyJEs+cNPI1zu5w2D84B49NSzWeC/+BX6ZMWTHPS5RxxXhBBLvU8SsXQDk52dKvPPuP5wC1fJ2urq6UkZ5OCccP07WsLKPrDC4fSpXE+OwL3VVcM/eRKYSbc8J9VPpl04t0JBuxOtowseCTlmoci8zN3Z2iKleR1S9dPG82DkU5/wB5f7gi35f8fGO3nHxNQcHlKSAwiApEOd+Ts0lnxL3MMJyO0bm1hhI2WDELXh1vyY1WlWo1ZDDfjCuXKVkEgXVk4nsYERFJ/oGBxFz4WjME3zOnTph8BlyEe8rQChFyxbqX2BnAz1Pm1SviHl6mixfOiefv9t+75uZ5NwgF1jzv7CudnxVOF0RgX2v8pSvPTLoI6K39PuEYLHxvtIljY/Dny1Ti7w3FFRQ/A0r8Fnbrxd8f2pSUeMqiexZbvoO0roc40HeF8AgKE//zd+gV8Qxx7AJHfR/wNTCT6CrV5OVw8OSCgnwKD68knuFwcnNzl4HRE44dtnh9/B3AuzTYfda1a5mULOLjcFyNMPE5YHYZV66I7wfj7yMtQ2uPuU9fv3KULWJF8G9VpchoOVceh+/3OfEdZOq7mfsv6mdTebb4u45/H/i7OrxiJXmdHLciTYzPv2/a70t7xoysHCO/N1KSL0qu/Fm5LL7Pjx87JH47XSi2Wk3xexgkv3N5R4x2PC1H/n7m39lA8dvpIn5/0tPS5HcQ92uYlDE5v3xoGFW89btyaP8eEcvj9u/sTbHCk6/RXLLnd4F/GxX3afx55DggAYHB4nc/Uv52Z1+7Jj///Nnj8e1Njvj942eP7zn/Fnh7+8jfA/48Xhb/83eUNfOz9vePr7Oo/ybhPmx5Dri+krx9fClGfDf4+vnJmBUc/D1b/NvlgvjcJV+6IDx53LZbKW3uxDuEAidSZyP5H73+kSN8uPEd6h87kBqENjYa8efd39Oso9PU/PJeIfRB20+kQKBmag6+2f45LTwRr8khmjFgPpVz161c1yswcdJ9Wju93LdajqGOUV0oLSeVhs0boFfGJ+O6/UGxgdXoQMo+enHl00bl/WMH0TONX5D5D84fQj/3mEA+bj5G9R5f8jCduqIzXCvzXXlmGYV5V5DCiWGDjza+S+uSVhtm231ur4HYXqHglfsq0CvDdX+88cr8oe8et3vu1jY8PLk+Bfjp/rFmq1Fea1yv9+A+q2MKWBIKeN7fvVCZhnYJkpcwVeyaeP6b09Zejtl6hQkF7O4pPNhNtu/+4hHae/ya2pe9z8GiL2uIYNTesp83f06iPxcY/6GrDmLmoJyHH817WCfUrUxYTR+u+J+ZmrezJz+2jMr7htG59DPk7uohj2+XkvTL/87cZ2jH6aIF5tL2WZTjKaNWUJCPbkeHqX6WHYqnL5a8LYuq9Iij+iMeo+T9e2nD2DEyr6z4h3XvPycTBzZe+doLlJF4xlQ3al6H6j3o7bgv5Pmao0uIzw3T/rM76eXpj1gUC55u+SQNra/zkzpi+kg6dbnw53T8HxPFD73OMMBjTvjzd5o0cYLh8DgHARAAARAopQSqxNaghk2ay9lvWLNCGgOsuRQ22PcWgVDZ4MzGleWL9f/dbk0f1tSpKgy5DRrr5rd4/izq0qOvHNOwLY+vNfKwgaR1+84m6+bl5dGGNctNGsS5XzYcNWvRRhjZKhoOI8/ZsLNgznRhZMlTy7VGOlOBRAfe+6Cse3Dfbjp8cJ/aTjlo3a4TVYioJA2a24Uv8w5deipF6juPO3fGZPWcD9qIazQ3Ty43t0OEDXSdu/fmKnrJXIwCNsj0HThMiB1lLAY8btOhizR+sdGD56o1CHCw5FZtO0pDjt6gt052bttMp04cM1Wk5llrKGnbsasUmHge8bOmmDSIsTjTtmM32ffeXdvoeCELN9RJWHHAwk0T8QwZGpiVpvwM8LOgJO3KcyXP8H3n1k10SogvltJ/XSiw9nnn76cBQ+6XqNhgeagQN0EsLPQffJ+sf2DvLjpy6Pbiv3uGPiCfey13S8GMm7cSC4mEuGBNWrtyKZkyvhblO4jjIPBzwN+BhsmcOypbvw+4Xy8vb+rVb5AcYv+enVSjdj2j71s2RK9cusCkCKjdyaad58Xz56SIyHFv+Fo4toMjUpv24rtJCCcsHuZkZ0sjqGG/2zatE0LwKb1sR3w2+w26Twq+JxOOSrG3Tv1GemPwCV/3hrUrZL69Yyq/Q4adswDs6uomA9YrZSlCtFq7colyKt9ZTGjYtDlxwG5Tib+fd+/Yqve9bm5MU+1nTZ1klF2U3wU/YXzvFtdf9rl5wxrify+wwGGY9u7aLr7fDxlmW31e1N8/3rHJz7u5xOIkL7YoLKaDtb9/PI5yX8wFN7f0bxJ7ngPl2qrXrEN1Gxjbg5VyFg/37NymnN7RdwgFTsSvFQpOXzlJlf1jqOBmAR1LO0LJYjdBtH808Wr8X/f8SDOOTJEz8XL1pin95hDvRuB0MHU/7bq4nXzd/ah7dJya/+6612jL+U2yDr/cX3sEBXsFy/PYgOpUM7i2PF55eildy79tJM0XQVPH7fpGlikvjhQKTgohIEbsTsjKy6KjaYfF6txcqhFciwI8AunJpSPEboEEOawiFChz4F0F+1P2irZVqXFYU5mdcf0KDRHBmG0NTKr0afiuGIg5WHHrJ81/GXLQYu0KdHuFgl9fj5bxAHgeL313hiYvSzWcksPPk+Y0lPEQbHWvxBNRjO+Xr+ZTreHGf6SZm2xhQkGnxuXo3w+qyuaOcj+kzNWU6yEe6Mys27sYODA133Ml2fsc7J5YlyoE6cSHiv13CwO97cp7y6gW9GnPsXIqE3b8Rfy/pcTCwPzR+j8WRy7up31JO6hjjZ6qaJB+LY3uG9/FYlBkS+M4qixI7HKYMmql7I53DpxIPkJpWSlUJ6IhNYxsId0DceGH81+i9ceXk1+lSOryhW4nwamVyyjlwD6K6daTgmvWpjyxymHhqIfo5i1V3UeswKnaszdFdehMq958mbIu6Nw+PdH+FRrU+CH1ErLzrtHao0vJ081LTzRgl0Tsmshc6i3iFLx6K07Bl+u+pvhDC8xVVfMhFKgocAACIAAC/zkCRTH280rshrcM+OtXLydeZe6MpBUKWAjg1Xhs6OeVmTfECtbAoPIykPKKJfPlan6eQ3D5ED1DOxu/uS0bFXj1Iyc2IC+aN1OuvpcZt16YCQf2ZSMVJ7ki8XySqJdD/mJsNsqz8Xf+7GlitWTurVZF+6OcO1GEAr42NsazYYLH5hWHvKKTr4nnNnva3+qY2j/I2fDF9yAjI13GGggVBjFfsWrVXGBqNvJp/5hnw2ZhIkCrtp3kikhTIgBPiufMBjFOvGp++5YN8phf2EgV13+wrMPnvKr2kvh3jptYNV9ZxHHitpzMCRuyULxYayhh0YWZctq5TRjYTxgb2Fu06aCufo2fNdWqXSayw0JetHPkqrxalO8j7xDgFbf8DLPBnw3/StIa+NmAlyF2pvDKZ09xn7g/RXDYvnkDnTl9Qmlm9K7tx5xR2KjRrYySHqPA1ue9a8++kvUlsUp9/epl5i5b5vPK/fadu8vj1csX6YmIvGuKn19ObIRkI64loYA/SyHiPnPilfWKaMDPPO840iYWJAx3CRX1O0jpn78jWYTg3Q3KriyeN4uc/BnWJnu+D7RCgdIXr+rmnS+8Opy/fzjxDgF+FrWJ58NiHieeCz/TbCRlVrzaWknOEAqUvvn7leOxsCgTFV1FFYNWLVsof1+UetrPlL2fTUUo4F1TvLKcE/8mXRXnzJFXbvP3N/+WcrJ3TMU4zH3w9w6vrufnVUn8WfDx9SUfseKbk+HvWPvOPah8iE5gYkGF791NYQ+IiIxS76ehobdmnfriGnRj8O47vhZOfO+0YjqLxoYG4qL+LmiFAuXfB/w88bPP35/lxG4a3lGzb/cOOnbkoJyXvS9F+f1Tvlv5GU8Wn0kWbjjx9wR/93Di3/CF82bIY3Mv2t+WwmL0KM+CPUKBPc8Bz5l3oHTqFienzwsb+Dc+LS1ZeN7woEDxXPCzdeLYEdq9c6u5SyzWfAgFTsStFQp4GDaGv7f+Dbqcc3uba93y9eUqV16tz4lX5vMKfU5fb/+MFp2YL4/5xc+9HP0ZN1nuHEjPvUzD4wdS/o18tVw5sDVGgSOFAp4Duzb6afd36tzYjVLX6J607fxm4nlz0goFUw//Q7/v/Vnm88voxi9SP7H7gtNLK5+RAoI8KeKLYiAurBtDlz32CgXaFej3vHmMNu3PLGzoIpVzfAK+Rk6XLudR/Yf2W91fpAg+vO33OrK+rW51ChMKKlfwoC2/6YQrDvrb/LEDVs/LXEVzQgG7Ovr19dsulM6n5lGjEfoc7H0OlB0XrA9E9NtlbmoW87VBc3k3Ae8qsJRqhdenb++9/UfvD6s+pnl7dKIit/tu2D9Us4LO9c1T/wyVbncs9efssmCxk4BX9C8/NN8olkKdiEb09dCJcgrxe6bS96t0gkmNgUOo1hDdH87K/DhmwcZPP6LUQwcookVriu3TTy/g8fbvv6akjetk9W/unUS1hZshTimZF+nxSYMoMzdDntcOb0jf3KsTY9gF0eszR8l8Uy/1KtSl7/vpRFQOMM2BpgtLEAoKI4RyEAABECi9BKoKNwQNGjeTF7BOGNLY7YM1SSswsOGLjfTOSlqhgMdg1wW8OlC7Up3dOly4cFZdjdddrDBkYwwbDFYuXSiMc7f/LtGunDVlwGKjR+26ut/c0ycTpJFZa1Tz8PCkBmIHBht5tUaQovxRztelCAV8zIl3JfAf+EpiQzq7WGAjjZI6du0pjDIh8jrnz5lG7A5Fm3hFMRt7ssX/hSUWR3hlp7kdBdxea3zn1ZvsqkOb2ODfpHlrmWW4UrqBEJX4XnIyNNyzAb177/7SkM6GlEXxM/Xur2x068VaQwmLHn3uuVeucGYjPa9q1ibmqeyQ4Ovg63FE4h02cf2HSMM+r6Zet2qpntGRx+DdBuxa6Njh24YrNihXq1FLuJc6oj7Hyny4z179dCJLYcHGtQbG/5pQYOvz3qBRM6pavabcTTJv5r8KTpPvNWrXpTr1dKu8WYzTfua1DRo3byVXW1sSCrT1tSvDeWU8G08LS0X9DuL+j4q/L/bv3akOxaIui7uc1qxYIl2gqYUmDqz5PjAUCliMYUM0J/78sVDDRlpOhivJO3ePk0Zs5syGef6McuLPJRsalXbOEgrYqMyCkOJ6R2vgZLdEvLpbSY74bCpCAffJYjCzYmO2klgcYTFY2c1g75jK75Dynca/V70HDJHDKDsWmLEi6G5ct0oKClwhXIirrW6Jq8ydhV7lc8D3k3fosfsmTksXzjW5S4R/i5uIv2s5LZg73ei7TBZoXor6u6AVCrhbZspis3ZlvrKzht3+FSUV5fePhajrwv0Ou94xTDVqie+eWztMHCWU8xjKs2CrUFCU50D73aX9PlCumV0S8TPpKHdiSr/2vkMosJecFe20QgHvJLh3bn/iVfLmEu8imDtwqSzeImIXvLv+daOqw2o+QI/Wf0LmP7/iSTqUesCozp0UCnjnxKglt1f3Gk3uVoYiFLA/8Htm96S8G3lqVS23z7Z8RCvErghHJHsNxPYKBVr3Nw0e3k8X025foyOux7CPxjV8aOH/VZfZxxJzqJ2IB6AkDsDbs2WAcirfeefEgo3p8rh36wD6/c0YecxBl/u8elSvrqWTwoQCF2G9Pzu3oewiM/sGxQ7dY6k7q8oUoYBjPxxP0q1Y8/UqS2FixT8HcubEuwgGvX2c+Hq0yd7n4Py8RuIfdkT27NZQxn+w8f00sukj8nTkzCeI4xRYSgMaDqenO74hq5gK1Dus2Uh6tM3zsnzswleJXe+U5KS4JVp9ZDF9vOg1darl69SlyLYdyFv8I5BdDV3cvZMqNG5KlTt3ky6IuGJ2ivAhuXAenV69kvLFKggl8Y4L3nnB6f7fu1Py1duGnDLC3/HCZ3fInQwsIgwf301pZvQe4OlPcx6aKfPnCaHjq3U60cCooiYDQoEGBg5BAARA4D9EQGvsN2VItXSpscL4Vl8Y4TixIdTRvt21Y2uFAjbuFObiiP36s0GDE69a49VrholXDvMqPjaCaFfocz3FzYi5lbeGfSnn9v5RrrTXCgW88pFXQBaWFGOeNSsRre3LklDAxiI2MPHqdg54zUYNberQpYd0d8KGMHb3oyStYYpXubJxyjBpjSWGK7q1da0VCrhN3fqNqXot3SKhJfNn6/mp1/azbpUQyYTfZEck7XXs2r6ZTiYcc0S3UtBjYY+TodFVO8B/WSiw9XnnVe3s6orTovhZqmDG4ijv0jkpYm4pBivFZVZh34XFIRQU9TuIV/LyDpkbwsuCkrQG1cJ2pXAbhbWl7wOtUMCfH/4caZP2u3vh3Bnq7i3tM2pKCGD/8i1v3TdT5doxbDlWXA9xm41CCDA02mq/g+fNZHdl1tk1+Hkq7LOpFQpscfFn7vrMjan8Dmld3CnP05GD++nAvl2ySxZJWYBkMYB3f3Hq1qufFGj4t4/vl1aM53KtyH5QuPPiGAeGyRahwBG/C9rnmn/PebcMz98Zyd7fv8LmonV7xi7S2FWauaT93XLWjoKiPAfK9yPP3xqhyNx1Flc+hAInktYavJecXEhfbvvE4mjVg2rSD11/k3XY4L4neZcMIMUZ/OHjxLsKOkTq/oHPLoTmHNMZtmThrZc7KRR8vHkMrT6zQjsdk8eKUGAq7oFbWTdaMFj3j+vf9oyj6Uf+NdmHrZmKgZgDCj/+mfkVC4dP58hgtUr/9goF+ybVIzbQc6o+bC9lZN3+B4nStyPf29b3oxljY2WXB09lU+dnb6+qerBnefrimUi94di9Egf65TS4UxD98FJlecw7H3gHhLWpMKGA+1EM+9oxre3fVD2lP1NlnLdxXyY9+GECZeXcMKpi73OgjFkUsYNFAhYLOD04dQQlXkkymp82442en1Dnmr1l1og/e4uAwInaYmoR04E+6v+9zGPDOxvgS0KqIVbnRwfHUrh/JQrwDhZBrXXfXz3r6HYKTd8xgX5b95XeVDk2geHuAd5ZcG7rZkpYFE9px4zFK97B8K+IicBpw/EV9MH8F/X65JM/Ho6XQZULEwq8hKuiRY/Ey/aLBMfP1vyfUV+GGcHBwWIbYZCafTYpSWzlzFbPcQACIAACIFA6CcRWryWM/U3l5A1Xf1u6IvZdy8YI/iOf/eryin1nJq2xaavwH82uIiwl7cpg3jEgVxbqfqLVvzV49Si7ZOC0bNE81Q0Ar6hnAxkna/yay4q3XhQDja2r95Q+tEYq3h3Aqw8LS+xfn/3sc+KdFiyKcLBce5I1hkHuV2sI4FXayopc3hXADDixL2je9aEk7WpdFntSOGiwwT1hF0S80p4Tu6fQ7pxQ+uF3WwwlvEq3Z1/dv8uOHhYrrIUfdSVxfAY2fFm7MlxpV9i74p+ejVZzpv+jrsgtrJ1SzkYj9qPO7kF4/nzOid15sMsiTtyvoRFPFogXrRH2v7ajwNbnnQOQ9hW7Sjgpvud5pxHvOOKkdf+kGE55l8e+PeZFOuX5t/a5sXVHgSO+g3jlNO8a0Cb+3h4wZLjM4uvT7mbR1lOOrfk+0AoFWsO00keFCCHattPZdLSu4bRuhzYJ0ZADIWsTi9hKfAlnCQWmdo1ojdza+SpzK8pnUxEK2N0R75iyNtk6pvI7pPXJrzzb2tgbvcWuJ3avp/2uVQQF/k4/I3bTKd/RPFfFThdTVbdg05RQzPW0DAszFDvid0ErFPAOwB1bN/I0nJaUzz8PYO3vn3Yy/B3O3+W8st5TujfU/RDy7xqnBBEnZ4+Il2Mu/X975wEnR3Gl8ae4yqtVWOWsVc4RZYSQUE6IYDA29vmMfdiYA3Nng8nGJNsYMMb2OWDLgIlCQjlLKAuUc85pJa2Ecr76arZGNT09Mz1pw+h7/Jjp6a7Q/e+antX7qt6L5vfPjIVo/yaJZxxkqdDKrdt21KeP5xDG3DGVqNusTAl1Xfm1n0JBEsnbQoGdhyBUl7aDP1QZez8c6HCkO81u504V49+E+3GWM58TGXrIzkNg2nd7N0IBkhm/tOS5oCLT7/SFFXln3V/kvQ3/CDoeyw7jII52RnisQsGcN5tJ8/q+mHSDHt0sK7dcnwUdy/lHqpNRvrhsfK+1LuaM3X+XSib8ukoqbJvttG+hznO2Ol+YczWCXcdtO5JQgFn+q1V8f5hbKCC3NiPtM057rCjYvOe8mjFeRBrWTFMx3nw/KOrfH/LQa7vlozm+pZp2e7GOg73j2unVChCa6oxaZTfpeXt0q5HyUPcf6fI/m/qELNmzNGzdd+6fKDUr1pWdR7fKA//y/ePcrjC87d3yo76P613/9d6dsu3IdXHILpdX2xAukDOgdkbgWHP2j2TGSGoMM7kH7NUDZ9U/krdN/lxO7d+ncxJUULkMTh88IDtmTFHhiDb4m+veqK88M+x1/flnn35fVuxZ4j9mNsY/uERKlygjq/cuk8c++Z7ZHfTeuHIj+cvtf9L731ehkf601CfaBhXkDhIgARIggZQmYDv7sVQfoR+8WlZT9Q/Bdr5/CCIRImI2J9NsocDNeePsu/NNPf15CJzH3D7b+RVsB9YyFVMbs2m9Wqz/KDftG6HAbZWDKeN8d+ZiwHHMJsY9RexzhNDwal4cg2jL7tOemWzfJ2diadt55OV8wjlro3GUoC8TrsZe5QAnzcCho/SpRCsIRTp/Exc/Wocg2oWTpUWrdv58BKH6sh1UzjKpLBTYY89cd6TxbsY1hDQkYbWfX8bZbzvzEXIm3PfGOApNXXMeod7ttr2EHkrEMyiUcz1c8lLn+RtuXlcUOEOloT3EX+/V15f3YY76941ZvQFnM/I+wBASzIQd0jtyX0aMuUd/D0Jdi13W67ZZUWA/C+y6dnJzZ26XeL+bRiiw8xDYfbttx9Kn+R2yVzO5iQIQUCFEGvHAHqdu5+LcF2p1n/2sjyQU2GWd7bt9dvtdsIWCROQhcOvX3mc/g7z+/qE+fnO6dOupQwXa7Tm3I8Xvj+b3z4yFaISCeMcBQmYhwTkmktiG8YJE3lhhF0rktsvn1TaFgiSStoWCXy5+SubvnRO2tzFN75bvt31Ql5m8Y4Ls+Tr8H+CYjY+8B07LT6Fg9GeD5fTFU85TCvpshIIZu6bIq8t+FXS8IAkFJkEwQvW0uHdt0Ln+cFSmPP3dWnr/Gx8dll/984DeHvtUQ+nf2Rd78Iev7pJx83OC6iZ6hwmPc+rsFcm6K3jJG/qD0x7Oe1sosMMDRZvfIJJQ0K1VORn3Ypa+VIglEE3iNSMUOAWREb0y5I+P1dchguDQb/nNtUErOWIVCja821oqVfA92KsP8y1NjPY6+jbsI0/f+qSu9vaSP8kHaz4K2UQxNbtlykO+fsavfl/emhO8IglhiRCeCDbirZsEiXzzy/o0GShPDH5Fd3/x8gWVrHiW7D+xW5/T5SuX1OqH3tKxXnd9/Hv/HCl7ju+QWt16SOeHHtX7sHpg3+KFevXAiR3bVSgiVf7Bh4MuZ807f5Ed03xOm+90f0i+0cXn/B/+Vlc5fylwNn9a8VLy+Y+W6TaQ2wE5HkLZLUp0eKrfE/rwW4vflo/Wep/REqpN7icBEiABEih8BGxnmZd41eYKEXJmyEjfaoLjx47qGM/mWLLebQd0pKX2OAckyISzDbZm1fVZ7XqHywtWKCB0D6xO3frSuVsvvW0LCHpHhJdY/lFuN2mEAuQUmKrCpHg1zMps3a6TPwGlXQ8JExFi48yZ0/Zu120vjkFT0VyrHW7EzNB3O397vMFRcOpU+FUPx7Kz/U5F06d5j8ZRgjpYpdCle29d3YT8QDxohAiCIXmkuf96R5wvg1UuAThbQjnSQjXfsLFKDq5yX8AgFmE1DO7fxdy8EwiphZUGsBtVKMC1RzveO3XtoRPVmvthknTCWYzQK9MmfaZXliDZKCxSyJlkCwX5+QzSAHJfvDwP7BUFZsWG3UYoocB+Htgruuy6yRQKQol4iGWP8GkwzEzHDHVYIr6bRihAUnXkaIlksfZpns0rli9RCdy36m68CAVIeN3vtqG6PMT/A/v3hD1FJOB25qhBBdv5H0kosMdBrL8LtlAQ7QqqsBcY5qBh7PX3D3839VermCDMwPBcR74IJFs2TnOTKwrO9JVfhp5kGc3vnznPaISCRIwDrFRpo/4mqVm7bpDojecuVoaGE2PDoE/4IQoFCUd6vUFbKHhm4eOyaL9vlvz1EoFb3Wv1lGd6+JyBzyz8uSq/ILCAx0/RCgU/6/qk3FJvgBw/f0zunjAyqJd3Br8vNcvVFrcwQSiM5MtIwqy3Px0g5y4HOuv0AcdLYRIKzEzyE6euSLN7gp3vPx5TTZ74tu+P0xfHHpDXP1RLhpU9+71a8sCITL39wazj8pPfhRd+dME4X7Z/1FbKliqq/ogWnQvALfSOm1CAbs11Illv/dtXycVLasODRRIKfnZfDXn4Tt/S7wkLclTYp10eWg1fJJRQgFqvPVRXvtG/sm5g8uIT8t1f7QxoLFahYO7vm0uzeqV0W994ervMWfF1QLtePtSqUEvevfsfuuikTUokm/+bkNUaVW0mb9/7oT7+9ryXZdzKd4PKmpj/Zy6ocFFv+5zwQYXyYEclFQII5wI7cGKPPPLRd+T4meyAnl8Y+QfpXL+nXLl6RQa/0UEncS+pljj3fPJZ2TVzuuyZP0cuqyR9sOLqR3TIX8ZKEfXHw75FC2TPvNlSo3NXaXCr7w/UaQ/+p5xTMwJfvv3/pH2drgJhYujvffGg7U4Rtgnhm2CvzXxGpqwL7Vz4Tqdvy7c73KfLPjzxUVl1YLXe5gsJkAAJkMCNQyDQ2Z+tnP1TPV98k2YtpVXbDro86h0/Fvg76LmhKAraQkE4B6lp0k7aOf7j9/QMe3Ms0rsdCsGZcDdSXeOMQbxnxH22zY7F7BaiA2WNUACnPuLpR2u4rwhpgITHdeo18IeKMAksI7XnxTFo2sCKEjh5YIiFXqx4MYGDHOYWu9qOFe+cqasrRfESjaMEzdpxpQ+qVZyLF8zxJ3k8mn1YEHYrkWY7ou08DZH6MOMHM9VnqHxVFy74/l409eB4aaySHcPCfQ9SeUWBYYF3r+PdTrA9/uP3VY6Nu1Uy2Yt6xQ1CZCBES1k12xdJj91ELrtPbCdbKIjnGRSLY9B5feazl+dBrEIBHIg39eijuwqVH8SsfkjGigKsQsFvg9PsJK52ItZEfDeNUBDJEWzOKdY+zRiIViiwf6MizWo35+j2Ho1QkIjfBVsoWLJgrhI4AkMYu51jvPui/f2rpcRqI0SaFRz2OdhhwSKNj2h+/8wYiuZvkkSNA1wffnsRaql23frSoFGWIDwhDKGt8NtYEMIRUSjQtyQ5L9EKBbXL15G/DfI9mP+65o/ywaZgx6CXM+1ff6A81sU3M/aez0fL0XPh/6Hyk44/lSGNRggSCw/9pF9QFxNvnyUli5W8YYWCnR+3ldJpRSVUbPrHv1VTHrqjmub2s7f3yjuTj+rt1g1Ly4zXfeF8og13FHQTPO745IUs6dGmnC79uw8PyUtjDwbVDCUUzFTn2kqdM+yFfxyQNz/2CR5BDTh2RBIKNr3XRiqWL6ZrfeeFHTJlSfiZUo7mXT+GEwoQfmj7h211mCAIJm2+tVayT1z2txOrUAAxCKIQbPnGMzLsf7b424xmA3HwEQ9//eEN8uD4h0JWHdx6jDzc7yl9/PVZz8uktR8FlG1eo428fte/9L6xS94W/O9mdevWkwd/fL2fHWq2/p/e/oNb0Zj39W06SH4+6GVd/+fjfiBf7V4U0FZ66Qz56IF5el+oMEp2hcrqH3u9nnlBLqhZBVMe+I7/UN+Xfivp9erLirff1MLCuB8ukrJp5SSUUPK7u8ZKixpttTgBIcW54sDfsNrASg+s+ID1/+sguaRWQUSyfrf2lwG3DfQXmzljusyYHhj31H+QGyRAAiRAAgWeAJK7IskrLFzSWOeFIFYynBBw0LnFwHaWT9TnaIWChllqZnYH38zsWdMmyckTxz2fSvHiJbQjERXc/nEdrqHbVCgbOBwxUw7hS2zDP5YRkgaWLKHA7g/L/wePGKPvFf5RDsdyJPPiGDRtlK+QrhNf4jNCXMABgFn6MDtprN6hXuy48OvWrJAtG9ebQ1G/QwRBeCkYQmYhzFIksxN/QqgwCW6XLJznOis2UnvhjiOkionj7XW1gu2c2bRhrR4jzj5MAm7sDycUYDYnHEQwN6eUPhDixcy+hwPHa34FrJ4wohGaPXXypI79H6KLpOwON97tMFPggXGKmeLgfNuQkSp02mEVJqOEXlVg5ywIdaLxCAVu4Xmc/cTzDDJO4mhmEDv7N5+9PA9iFQrSK1ZSs9eH6K7cxmgF9Xy5VSXWhSVDKEC7E8epPDCOpLe2EI6VJmdOn9IhVODkh8Xz3YxGKIjneWDGQLRCAa7PnKM9Ux77o7G69RsKniOwKRM+0bPmQ9VPxO9CfggF0f7+YXIFxhbMLTeGLQ5GEgqi+f2L9W+SRIwDt3t+862D9GQGHJs+ebycPhX9hFS3duPZR6EgHnoR6kYrFBQtUlQ+GTlZypYoK2cunZE7xg+Ty1fdnVXFihSTK9euuJ5Bu8wO8srNr+tjP53zY1mTHT6e+j3NvyX3t/5PXd4pLHSs3kVe7O2b9XyjrihY/teWUiezpOaDUDbHTl53OmPnxFebSKdmZfXx/j/ZJGt3XF9RYecpeO2DQ/Lyv4Id9+nlikm96mmyZttZ3UY8Lw1qpMniP/tmMWE1QZfvrQ8631BCQfsmZWTKb5rq7iGKoC7CLTkNSZMXrLkeXiqUUKDSBsibj9SX22/O0E3sPXJROv9H7P/4sc8jnFCAcr96oLZ8d2hVXWX6spPyred3+KvHKhSUKF5EdqgVG3iHADH68a2CxM9OQ76HwzmXgribcs8PeEZ6qZn1EOYG/m2oXL121RwKeH+0/7NyW8tRet/iHXPl6QnXnf0IS/TG3e9KVqbvXo9+u6ecvuD+g9LnZhVS55nn/G3n5ByXMaNG+D8nYgN5CW7v8C3dlAkrZLf76zF/kza1O+ldU9d/Kr+d8Yx9OGi7asvW0uMXz8qZQwdlxn8/6D/e7X9/IdXadRCEHzo6b5F8/IP5/mP3vzNUr2YwOxDm6MVRf9QfP10xVv44/1VzyPX9o3vfl6pqZcSWo1vk+5/+l2sZ505wBV9jCxd8IU/94nHzke8kQAIkQAKFiIDt7Ed4AeQY8GoI1WKcwXa8aa/1Yy0XrVBg/yPezCAP1TdmvDlntZl/XKMOQgBhlrHT4My7fDnw3y9mJjmSJyPkgm32DMS8EArQN8JIIIxAMoQCtG84wVGPEC5w+pw8kSPII+E0cB6qksqiHEIPTFLJmk3IBbeyzntil8moVEX69h+kd3kVHWyHlGkLs4rhcA/Xlykbzbs9Wzqc2ATnNma2wyC+IdQK7JBK7LpIJXi1zRaasD+cUIDjZjZ2tA6/Zi1aS4vW7dBEyNjx+qD1glUscAAZizbniakX73u48W4cX7jXGIsmga6ZcWv69pJDIFqhAP0hOShs84Z1sn5t5NCu5ruFOtE8g4yTuKALBUhWjOcBHOJ4XiK5r/08sMW2ZAkFbvHsByjhqFy58noVGmY845wS9d00YzCSIxj3PJ4+zRiIRSjo1rOv1KhVG6cgzjwzemfui9vvpjletVp16XVzf/0Rq7UgxIWyRPwu5IdQgOsx31Evv39t2qvVYE2aawxuDvIevW9RYeVq6eORxkc0v3+x/k2SiHGgL8bxYgsmM5RQcIpCgYNQin2MVijA5fep00+e6PaMJrEtZ6v8asnTsu+Ub5lQESUkNK/UQm5vepd0qNZZRo27PpNVV8h9qVomU94d+on+tPPkDnlxybOqjT1KdAh2+qJQlxrd5Je9XtHlvzq0TJ5WYY/gxGxYsbESHH4nFUqm62OpIhQgdv3Tf92vr8ntBU7gf045qmYhqw1lj95dXR671xfPFbH/v/nsDlm64bRUrVhc5yYY07eSLnfy9BVp+o01etu8dGleVia80sR8lE/m5qjQRIdky97zUrdaSfnWwCrywMhMmbb0pHzvpZ3+cvFsTPp1E+nY1CdcQCx45I09Amc5chIM6V5Rx/CHs9vOUWD6++IPzSWrji+8DsSCR9/01QULCATP/kctfdyO0W+EAuBCAuFGtdIEzvKbWpYTiCDGbn9iqyxcE+xYN8ejeY8kFGAFCM6reDGfU7/VfdcFHiMURDsOcH6//H5t+d4wnwCB631R5aP498xjesVC26wy8t93VZeBXdPlgVd2yfgvclwvqUPN9vLboT6n9fOzfyWztgXOrDOV/u++cVJPJdiFIVzP85MekcXb50pG2cry475PSI/G/fSxD7/8u/xlwWt62+0lL4SC0e2/KT/o8z+6+9mbJsvrs57TuQkQkuhxtdLAiAQoECkEEMqkqdkyg/70d2zKyj//QYUf+kILBF0efkzvm/vEY9LoSjW/EICdC7fNkjdVDoITZ4+pXAjd5Lnhv1dJrovpsETf+vvgoFBIuqHcl3Y128rvhvoE0ZfmviJTt0y3D4fcplAQEg0PkAAJkEChI2A7Ar3OxsZFwqGD3ARwYCQjXEs4kNEKBWjLOPOwDafZmhXLtYMan3EN+Ec5hI+LKryLc/a/HVcbTm3E+McKChgcXHXqNpB2atY4ZkvaM1Lbtu+sw5egHJyBcArC7Jjj+JxIoWCAint8WE042LF1k/8f3RCDatau459171UQ8jKDGOdvzBaOzL5VK5apc9lsPga8I/xAl9z8D0heijjFZkYhHEZwgGSp1ZaZ1WvqsAQBla0PGIvDRt+tHb4QQcAT8fyvqf+uqM+4Z25mHMnm2HbFbLUaF8mwWwYMVjPUfSFCEXt7rcqVgXOFITRQ+04q55aKT71i2WJ/97bTGrkUkPQUjm3MNu3Rp58/bAMqRBIK7JmbuM7tWzbJ5SuX5Zr6w94Z0sh/AmrDTtR5Ws2mhjPVJKC9pHIlQFxxWl4KBbGOd9sRh/M3IclshzT2R5oBjTLm2eI1mTHqGOct+C3+YrYK2XbUPx5w3GmxPoNMPwVdKMD12s8PhLBDXPbz589Jg4ZZfrEK5ZIlFOC7hfBC2UcO62cJwlCZ0F5Y8QQR0lgivpvRCAXoN9Y+zRiIRShADH0kOYZhfC9fvED9vhzQn/FSVokoDRs3Uf831au5kPfDaaVVG4Ny28Bx85y3hSC7Try/C/klFNjj11xPqN8/e5UFJi+s/GqJzouDvycQUg6rII1FEgqi+f2L9W+SeMYBVpNABN+6eYNfJMLvO34PsSoOf3/hu4eVFQXBuKIgiXchFqEAp/Nk9+elV+2b/WcGp/3Zy2ekYppvZjYOhAoTZCo9rxz/XZUA4GYDPuwVsLuIFJEPRowPah/hhrBqAU7KVAo9FHDxIT44Vw6YWfimOMQE9b0OsFBx65Hs+Knv1Aoo76w/ceGJhAkF5csUk8lKLDAOf3OSzj73HL6oVw2Y43hHst7przWV2rkrKOxj9rabUGAft7cRdukHr+7SYoW9P57tSEIB2v7DT+vL6D6+78xUJcTc/8sduksjFHjp3zkOsEri7080lNuUGGCbk204oQD1Pvnmh1K5TCXZlbNL7v/Il4zXbg+i4OQff6Ud3fZ+fBfh/Db22ar35A9zXzIfXd/7D7hNfvb4L/zHjh8/LneMHuH/nIiNahVqyjv3Two4t6/Pn5AKpSrq5pFkuXSJMnr7B/8aIzvUrP1I1ub+70nD2wYHFTuo/lhe+puX5d6uD8i3uz0YdNxmhH4ffO9u2ac4h7NXB78kndWKBzxXh/x9uFwKIao623j+hRele4+e/t0LvpgvTz/5hP8zN0iABEiABAoHAdvZf+TwIe0k8XrmtsAwe/okgaM3rywWoaBEyZKC5LoIBWTMOJAxq90YnCBwyjrNznOAY/iH7cULFwRhXYw5Q1fYseFNHbzjH8lYlWASGSZSKDDOJ9MfkvKWLuP7WwT7YG6rP+zwNL5SoV/RJkLoOA0hZ0xeAnMsUrJpxGlGvGZjcJxeVo59myv2ucUPN3XwntWshcCx57RwIpYdOxv1Zk6ZIF+r8I/JMKxqgbPeHmtwvEHEgaME5gxzY8eexnFwwLjD9xaGBKzm3kYSCuxZp7py7osXB01PNRs4U80KdppbiBiUqVK1mnYAmfLJTHIe63i3k6bCKW3yslRTohREGBieD245JczMYXN94d6nqtwiZ10ShzfKaiYmWamzfqhk8rE8g4yTOFqhINbnQayhh8AA34U+/Qb4BTWbi/1dSZZQYPqDgIfvJJ7TMIwD5IjBORhLxHfTjN1IjuB4+zRjIBahAH3bofvwGc8MrPrAGDGMsD/cioPuvW6R6jV9M+RR1rZPPxhrf9Tb8fwu5JdQEM3vH3IQDFShCVHHmGGKz/iNNce8jA+vv3/x/E0S6zgwuZbMdeLanGNnjRLOt23eaIrk6zuFgiTiRwJgJAKGRZuc+Oa6/eQnHR/TYYicp4gVBtN3TpZ/bwqtNpUuXlrubn6f9FNJiiuXriIIVWTMKRRgf/30hvLrvm/4Vw9gH8If4by/3/ZBycpoKuuyV8sjc36EQwE2rPEo+XGHR/S+ER6TGX84YoIWJqbtnCS/WR7s6Jx+5xe6vb+v/bO8vzH4oRlwAh4/mFwDXoq3uHdtQNgdzIz/42P1pW+HCkHVsZIAiYrhjA5lXVuUUw7mBtoR7yyDJMn/q3IbhJqB7izv9fPvH6knI3pl6FA5dh3MhH9nUrb84s/7VNgb+4hvG87wv/y8gfTvnB5UFw7xZWo1xYifbfVX3PzvNpJe9vr4QpnT567IoWOX5MtNZ/S1eU2M7G80woYRCvZnX5SO313vWjqjfHHZ8G5rLdDgnOqOXiVYRRDPODAdQfz5H7XKBCsXnLbz4AW16mS7bN9//Y8oZ5mRLYbLwz19oYQeGPdfsjk70HFeXSU9/ud3p+hqmIE/rM3d0jizmb8ZJAqGSPDv5X/17wu18fgTT0q//gP8hyd+PkFe+41vRYN/ZwI2ujboI48PftkvCKBJOOr/sej3UkHlKLiniy+82cDX24UMtxRwGuqP0sZDhuv/S6nwAMhXsHv2TNn4sUrwo/6B+PTQ1/SqihNnj8tbc1+UJwZfvyaIBRsPrpZXpj0hh74OvXoI/VUrV00+uOdd3fV7q/4tf172l4DTCPfh3x9+IlUzM/1FfvrIT2TliuuzbPwHuEECJEACJFCgCTRv2Uaat2qrzzGa2P3xCAyJAILZi+06+nIORHKQ2v3BqdGydXvtVLYdHKYMVgls2bRBDu7fa3YFvFdXqw463dQjYCY3CsBxgpAyiM3vnCVZWznBO6tZ83Z/mDWPEAzIGQCzVxvoHbkvZrk/ZnJPV/GxvRhmN9euU9/vTLbroN+VXy2VbCUKOa1UKeXkzz0f5zHn51AOVJSzZ857FZ8wgxQz6m0nuukT54z48Zs3+lZjmP1u73D8N1VhHBEqxFi4UDtwBprwPugHISCSabg+XCeu12m4x6u/WhYwWxdlkD8EY9YePxAMIC7hPZrvAVYitOvYVSeTNOKEF6EAs1wRYgwrZ4zzCucWKsyTc2YtVmlgFUMyLNbxXjGjkhYOcU62kwrXijEB3kiCimSoTrNndjuPOT+buPbO/fiM8Yr7i5wJ5n5gfyihAMeifQaZc3WKUGgLZkJSOZ9BsT4PbGcpZo7v27NL92NebBHJbQUbuGPWM8RDOBMxPvFcxuoCI7R5cZya/iK99+jdT60mq6lXMmGMts3NZWPqIXTagnkztWPc7DPv8X43jVAQTaLgWPq8LhQsll07tunTh6CLe2XPeDcC2LrVKmfMpkA/A3JIdO3eS4eTM9dv3iGg4D6vX6N8Drmh08wx846/GZo2by116jcQiEn288xNKEC9WH8X8PxHyCjYYvX9DfV7rgsk+CWa3z+Ev8OKOjyLbMOqiwVzZ+prADev48Pr7188f5PEMg7w9xp+E4yobV8r/pbYoFZbbt/qvurQLptX2xQK8op0jP2kp1XUTvz0tHTJPntEDpzeJycvhHZIx9iNrgYxoV56falVro5szdksh84cjKe5lKyL2frIR9CmcWk5knNZO83DOYSdEBDyp1fb8tK2cRnZp2L2r9x6VrbtO+8sltDPtaqWlAFd0tUPkcj8Vaei6g/hkW5VgkGaShC8afd5WbL+tA5ZlNATLMSNQUCCoMneUdQAACwSSURBVFJbMd6q7iNEFDtxcqhLK6puxgf3vKdj4n+xa4E8Of2ZUEX9+6uWry5Nq7WSzYfXSfap4H/Y+gs6NmxnNmamDRsyUM0EuegolZiPJYunSYMqWVKtfE3Zlr0pIGdAYnoI3UrxosWlpQrrhIG+fv+KkKHWnC38pMePZFTLkUrUOCejxt4h5y97+z7iD5apM2b7/8Dbu3eP3H/fvc7m+ZkESIAESKCAE7Cd/aFm0Ye6hECBYaKOQx+qbEHdj5l1FdIz9O8ZZvwiSaUJBRPpnJGoFzHi4chC3VNK1A9XF6zxD+ySaWlyTOWBsGemRuor1uNYOQEHJM4RMxXPnDmlzvVMrM3lSb20tFKaKzidUysu4DzHqo1kGWbJY7Y8zHaYJas/0y6cZHASYZUBQiOdOnUy7L3B+MFYhaMFjkuIGgXZ7CTLGOuTx38cJKAl+vwL43iPh0G0z6B4+sqvuhDW4Eg0ZkQNt1wCpky077ZQAKEQ302EziqhnvE5KhxUuLBc6Cs/vpv50afhir7LV6ioQg6V07Pe8fvnlrPHlE/Ee17/LiTinKNpA+GbkKwboeAw5sL9LRFNu+HK4j7G8zdJLOMAf4tAxCmlhCL87p1RYwe/ZRADC5JRKChId4PncsMTgOMZcfWjNczYR/6EwmKV031LhaM9X1xjolcnRHsOiSrftU4XeXnQr3Rzg1W4m7Nq9n2iDbOBps+a63dmf/rxR/LW799IdDeFtj0INlO/O0mHVnt1/m9lksqv4NVuvqWfPPnUM/7iP37wh7JhfeRZfv4K3CABEiABEigQBLCSAA5/WLiQAc6TxT8QTTz4wwdVmJ75wWF6nHX4mQQKIgGT2BGOCoSYyQsHTUHkkMhzgqN15B33+v8Gt8OdJLIftnVjEahRs7Z069VXXzRyyBw+uD8hAJxCQUIaZSMkQAKFlgCFgkJ763jiqUhg32ftYhIKMIu9tUrYWxisg0q0jBwKsZidayCW+jdand69+8jTz/1SXzZmogwdNID/+EvQIHj2+RekZ6/eurUd27fLf/7H/Qlqmc2QAAmQAAnkJQHM7EpT4WauqrB1OcePee4aYnxGpSq6PGaDRZpx6blhFiSBPCCA2amY0dioSVOp36Cx7jFUWJY8OJ2U6wLPhr79B+nrwkoW5LIoaDNGUw56Cl1Q/0HDdRg3hHJDcm9Y5SqZ0r33LTo0GfJyTJ34acLGFIWCFBo8vBQSSAABCgUJgMgmSCBRBGIVCo6evCytvlk4hAKEbpr4amxCwTSVB+LbuUmJE8U8ldt58EcPyajbfXF//zX2H/LO3yLnNEhlHom8th49e0nzFi10k1OnTJZ9e93jOCeyT7ZFAiRAAiRAAiRAAokgYMKXmLbgzJ457XPXGOSmDN+9E6jfMEvlYeiqK3y5dKEg8SyNBLwSsL+fRmDCKhVjiN1+5HDiwkRTKDBk+U4CJAACFAo4DkigABG4tXMFKVvqemJgr6d26PglWbr+tNfi+VourWRRGdg1PaZzWL/zXFQ5FmLqhJVIgARIgARIgARIgARIIIUJGEckVpwi0fEqldz5/LlzKXzFvDQSKDwEuvboI5nVagQkNodgcPxYtny1bHHC83N0V+GMqquwRkggixB8NBIggRubAIWCG/v+8+pJgARIgARIgARIgARIgARIgARIgARIgAQKEAHkwkGYsCtXrsj58xTyCtCt4amQQEoToFCQ0reXF0cCJEACJEACJEACJEACJEACJEACJEACJEACJEACJEAC4QlQKAjPh0dJgARIgARIgARIgARIgARIgARIgARIgARIgARIgARIIKUJUChI6dvLiyMBEiABEiABEiABEiABEiABEiABEiABEiABEiABEiCB8AQoFITnw6MkQAIkQAIkQAIkQAIkQAIkQAIkQAIkQAIkQAIkQAIkkNIE8kwoSGmKvDgSIAESIAESIAESIAESIAESIAESIAESIAESIAESIAESKKQEKBQU0hvH0yYBEiABEiABEiABEiABEiABEiABEiABEiABEiABEiCBRBCgUJAIimyDBEiABEiABEiABEiABEiABEiABEiABEiABEiABEiABAopAQoFhfTG8bRJgARIgARIgARIgARIgARIgARIgARIgARIgARIgARIIBEEKBQkgiLbIAESIAESIAESIAESIAESIAESIAESIAESIAESIAESIIFCSoBCQSG9cTxtEiABEiABEiABEiABEiABEiABEiABEiABEiABEiABEkgEgTwXCj59s4n06lhBLly8KmfOXZXZS0/Kk7/bK0dPXE7E9bANEiABEiABEiABEiABEiABEiABEiABEiABEiABEiABEiCBKAjkuVAw/a/NpWPLsgGnuO/QRWk7ck3APn4gARIgARIgARIgARIgARIgARIgARIgARLIWwLFihWXFq3b6k5379wuX588kbcnkEe9VUivKPUaNNK9bVy3Wi5fLngTWOs3bCylSpWWnJxjcvjggTwik3rdNG3eSkqmpUn24UNy6OD+1LvAJF9RVtMWUqp0aTmWfUQO7N+bkN7SK1aSrKbNg9o6dGCf7Nu7O2h/YdxRokQJadayjT71Xdu3yqlTXxf4y8hzoSCtRBGpmF5c2jYtI79/soFUrlhcQ7rl/g2yetPZAg+MJ0gCJEACJEACJEACJEACJEACJEACJFB4CdSuW1+a5zpvliycJ6e+PunpYooUKSK9+g6QNOVwPKIcjqtXLPNUr7AVSitVSoaMuEOf9ldLF8nuXdsL2yV4Ot869RpI55t66rKTJ3ws58+d81QvLwsNGna7lC5TRjtOly2an5ddp1Rfw0bfLXDa7lTO2pVfLkmpa8uLixk8fIwWCvbu3inLlyxISJd4Dnfp1iuorV07tsmK5YuD9hfGHWXLlpPbho7Sp47fmgP79hT4y8hzocAm8s3hVeT1x+vrXf/94m755/hs+zC3SYAESIAESIAESIAESIAESIAESIAESCBhBODsh9MLzvDTp0/J9EmfeW4bs7s7dO6myy9eMFcOJmhmrecTyKOCFAryCLSHbigUeIDkoQiFAg+QwhRJhlBQpkxZqVajlr/Xdh27CJ7PFAr8SPJlI1+Fgs6ty8nU/2umL/x3/zgoz7/N5T/5MgrYKQmQAAmQAAmQAAmQAAmQAAmQAAncAAQCnP1fzJGDKsyFF4MDa8jIO6RkyTQ5rcJHTJ883ku1QlmGQkHBuW1NmreUMqXLytGjR2Tfnl0F58QK2ZlQKIjvhiVDKHCekblHFAqcZPL2c74KBa2blJG5/2yhr/j1sYfkube8/UDnLSL2RgIkQAIkQAIkQAIkQAIkQAIkQAIkUNgJ2M5+hBuaMWWC50tq0ChL2ne6SZdf9MVsOXQgdSc6UijwPCxYsJAQME5ohh6K7YZRKIiNG0MPRcmNQkGUwFicBEiABEiABEiABEiABEiABEiABEggJgINGjVRzv6uuu7C+bNVclhvzv54BAavJ4pEqzVr1ZGMSpWlTJlyUqRoUfn6RI6cOHFcr3q4dPFiUFNly5WX6rmhO3Zu3yLmc2a16jox7zE1C3371s1y7dq1oLpmR/WataVatRqSnpEhJ3KO64S56DOZOQrq1W8kxVW8+Jzjx+T4sWx93jVqqfOoXlOuXLkix49my45tm12TC1eqXEWqZlbXnIoVLy4njqtzPnRAjmYfNpcU9F60aDGpq/IRVK6aqeL9l1UJWQ/LfhUrPL1iRsgcBZWrZAqSHV+4cN41rjhCpiB0ytkzp3X/QZ3m7ihfIV0yc/mWK1dB5UE4KyfVfd21c5tcOH8+qBri6NesXTdoP4St48eOBu3HjmLFikn9hln6GFbIXLlyWWrUqC2Z1WuouPwldSLk7Vs3ufZnGqyhxgHKgwnuCxIng2mdug1EiohOAnz27BlTPO73cuUrCO45GIPjFZVIGuMvR/2PZLbhxmwsndtCARJX16pTT9+Xa9eu+ldrOHNUVFXfowoVKupzwXgMZfjeYlzhO7pn945QxTztr1K1mr4HSCAOJzPOE9zR/6mvv9bJf6uq8YRxt3XzhpD5VfAdqZpZTSpmVNL94p4irwqeCeEM5Wuo66lcparO2YHv1n6VWHjg0NGuOQpwjpnqeytyTZD4/OrVqwHNYzxVqlxVrqrvdaRcJ+YeRVpRkIg+y6jzbqC+M+XKl9fXdeHCBTl35oxOdJ195FDQdQRcVBQfnEIBVqPVUt/vyuo+n1P3Fcmh96i8D1evXomi1eQWLTArCt4Zly2PvpwaWa2Te8vYOgmQAAmQAAmQAAmQAAmQAAmQAAmQQDQEiirH+5CRd+qEpnDCzZz6uefqDRs3FcTPhi2cNyusY9hzo1bB2soZ2KV7b2tP4OalS5dkwdwZ2oFrH4HDvWPX7noXEoyaxLx2GTil58yYHOT4gvjRqWsPQUJfp+1Q4kLDrKZ6dzKSGQ+//RtSXDn5IW6cVc65lm3aO09BO6oXzp/l3w9nf7tOXaR+g8b+ffbGrh1bZdVXy4KuE6sjeqsE1HDYOw2OSzCEOZMZI8kqkq3CeYxjTrtlwBDthIXjdd6sac7DOtZ6i1btpGmLVkHHzA7cUzhvbYOjFm07bZ9y1oZKZly6dBkZNPx2XWXd6hWqz9Z6nNttXFaO+NnTJ+mwWfb+cONg66YNktXMFwUkkeMAK3OwQieUncg5JhDy3ISUUHUi7TdOaDi+4biGIGMbBKr5s6er79h1MSaraQtp3a6jLoZjbmIUxjHGMwzCI847HsNzAM8Dp+H84OyvosQuY7ink8d/rAS1S2aX4HvSofNNUrd+Q/8+ewPf7dUrl7sKMbaQatfBdUPQQdg1ZzJj+xk06bOPtLBm18V3u2lz33fg0w/G2oeCts09iiQUxNtnk2YtpVXbDkH9mx0Q1VavWG4+xvVuCwUQB92eX/g9+kI9CxI53uM56XwVCiqWLybbZ/h+EHbuuyCdxqyN51pYlwRIgARIgARIgARIgARIgARIgARIgASCCMDx3a6Dz9m/YO5M5aA9GFTGbUc8AoNbe277TN4EzKKGsxEzhy9euiDp6RnaWW3qTJ04Ts8kNp9thxn2wZm4b+8uuXLpstRtoGbtKycmbMXyxTpBqP6Q+wIHKByhMDjD9+7ZKSVKltSOcziPjSXSQWzaNEIBZtdiZjkMzrJT6jOc3lg1gPuD+2Ss9y23+Z2kmGGNWc7Xrl6TmnXqSjm1sgLm5uC7deAw7eTEcTigDx88KOXT0/XqDewzlmihwHb44r4cUCsYcH04V6ycgICxbPEXQXkHcP22ExNiBe6HV6HAXM8BlWj7jErWjdnhhg+YLV003xTR7+gLjlPYxYsXZO+unVK0WFHlaG6kVyroA+olkeOgq3KGY6Y8HKPZygmN1RIwzIDHjHpYKIFGH4zhxTihTVU9w/7QQT02sLIBhu/fxHEfCIQ5GBzjQ0fdqbdD8cdKDjjmYdGsUtIVXF7scYPvBEQACBvGkIAd4hpWDcFwP3FfjXXo0s3vjAZfnDe+zbXr1dfXg3JYibB21Vemin7HmOzRp5/exniFIHBZccD4K1W6tL9sYRcKsGKrb//B/us8osbA8ePZUrJEmmSo5w6EGIgpq1Ys819zPBu2UGDawWqm0+oZX61GTf+KD6ymgZBXECxfhQIAOLywoxQvVkR9IUWaDlolx05cLghceA4kQAIkQAIkQAIkQAIkQAIkQAIkQAIpQMB29mOG/axpEz1fVaOsZtK2Q2ddHrM+sx0zwD03FKYgHIEI0bFHzXCHk862jEpVlGNrkN7ldITbQgFmF8+YMl6Fsziry8IRjbjicDLDKYpVBcaKFy8hw0bfpY+dUSFMZk2d6J+VjJnD/W4bqo+hfCIdxKZ/IxTgs9tqCYSiQeiTvXt26SoIi9OtV1+9DUfll0sX+mdE4/q6975FO99RAEmmIUDA4HjupVYTwJAIGI55Y5jZC6eqsUQKBTj3Pv0G6qbdZgtjPDZr2UYQ4iTSeBo07HYV1qZMVEKBvVIBfCCWmBUV9qxuexxg3OB7AbEABgGn/6DhSRkHmO1+UYV6OeQS+guzz80Kk0TmArGFAoTI+WrZIn2deLFn0iMs0cb1a/zHuvXsq0MkQUT4/NN/B4XDwncF312MYxyP14xQYLdn8gPg2TD+4/d0FwMGj9D3yH4mwKGPsjAICnOU49kWPXCuGEu4Fsz+N/ca5c0KGRzDOMC4hWHlxS2qHhzesMIuFOB716JVW30t9vdE71AvCEmUllYqYGWJORbLu1MocIqDN/Xo4w81Nm/WVBUaKjuWbhJaJ9+Fgp9/v5b89Ls19EVdunxN1m05KwezL8mG7efkxT/vT+jFsjESIAESIAESIAESIAESIAESIAESIIEbi0DjJs2kTftcZ/+c6cpBGzqevU3GFhjyc8ancQoiRv3cmVP8p2gLBevWrJAtG9f7j2Gju3KuIwcBZhZPGv+R/5hZwYAdCFkE559tCGeEtmHJFgq8hHKCwxqObjg2EWrFGQfdDtezQTl6N+U6es3MdVyHUwjAPuOAdTseT+ih3rcM8M+Mt4UL9BOtRSsUQHz4Ys6MgG4aqdU0bXNX04Df+fPn9HF7HHy5ZGFQfH3k84ATHZaMcaAbdrwUK1ZcRozxhfKBwx6O+0SYLRRM/OxDLVTY7WLlAFYQOL8riPXfq29/XXTF8iVqZc5WfzXbCYzvHr6D8ZoRCuyQVj1vvlXnU8CKmNnTfYKfcTDbjvtmKuRUi9bt9CksXjBXDqpVJbbVrddQOt3UQ+9arWbMI38JrEzZsjoHAbb37NqhhThsG6ujVhV0VqG4YHZ/+Gw/gwpD6CF7xQWeibjfyTR7jECUnaZWhdlms3eytcvl5Xa+CwW42G7tysnfXmgkmZVL+K/9aM5lvcLAv4MbJEACJEACJEACJEACJEACJEACJEACJBAFAcTshhMQYXhsR5uXJho3aa4Ehk66aKgY5V7a8VoGM4IzM2toxx1m/hYpUlRXrVm7jnZiIkTLjCkT/M3ZTro5M6YEzYLFSgisiMAs4XEf/stfzw43M+GT94NmSSNBMmbpw5LhIDYrCjCLfcrnn/jPK9TGqDu/qWe2Y9XEHjUbXMdSyS2MGfMw49A+dGC/YCY6zMz2xuzq6ZM+0/vsl7ZKPGqkRCSYU0iIRygwTmckap47c6rdZdTb0QoFG9aukk0bAsN6V6+p7mcv3/3EbHGsqoG1bqvCT+XmIHAbB3Y4mmSMA6xeQZgpzOIupVbAmBsLAQO2fYuKFa/i6SfCjFAQakWR7UC2V12gbyT2xgodZ91WbVTYpua+sE1TP/9UJx2O91yNUIBk0iZHhxEFkCsAzyEY8pEgv4idF8EW+PB9x/feNiS9HjHmHr3LXomAMEY9b/aJIW4CA56hI+/w1XM6s+1nUGEQCjDeMe5hEGPWr1mpZ/E7WekCCXixhYItm5SYpHKIOM18x50rv5zl8upzvgsFD9xVTV54uI566CMemIqVtfu87Dl4QdZtPSfP/2FfXnFgPyRAAiRAAiRAAiRAAiRAAiRAAiRAAilGIDAh6TSVkPSIpyu0BYZkO3DgwEOC11AJSM0JOx3etpPO6ehGnVCJRLuqcBe1atcNEhBMPwilAic7LBkOYiMUOPMQmP7tdzucir0/1DZCpphE1cY5bDtY7Xr22HDyi1UowCqUkXfcq7tB8tIVyxbbXUa9bZyIoWLko0E7mbHb/bJDMNmCknFAO4Ukc5Jw5CNsEcytXVMu2ncIA1269QyIve/WRiJjxZuxcOjAPiUkzQnqrrkKSdM8NySNcyzY4WqmKcEJuR9g1wWhwJU+QY1HscMIBchpsWThPF3TTRRAXgTkR7DHtsnjYYctcnZtRDdbULPzLCBOPlZPOc3UK+xCQYkSJXXib5O/xVwnnhtIrr5z+9agFUumTCzvtlCAvAcY0067+dZBWjBzrmZxlsurz/kuFBz4oqOklfApwMN/uFkWrvR94fIKAPshARIgARIgARIgARIgARIgARIgARJIPQJwwA8Z6VtN4AzbE+lqbSfyvFnT9OzTSHViPW7ioKM+nHz7VGJhJCzFDHoYZsEibr8zdIUtFEQzmxezhzGL2I55rjvKfbGdW4l0EJs+jFCwa4dypKtEy+HMFi0g8hzYvydccc0NTlaYcW4ePqRmZ8+bFVSvQaMsLdDggNM5HKtQgPjmQ0beofvaukkljV0dmDQ26CQi7IhWKFiu8jCY3A6m6VBCAZLXYtVAqHFQHnkKVCx8WKLGAb6TaBPjGYZVMpg9f+7cWb+D1uQEgeN25ZdLdbl4X4xQ4HR0m3bt3AhYtWMSLOM4VhNgVQHMJAK2mbox14VjeDFCARLeLnUIBbZzH8Iixq8tFJjE3eFW6hgO9moXe5Y9RDaTn8A+fVPPyS/WZ5Ddttk2fUR6LsTbJ+5nm3addG4AjEfb8PxFHgGs1EiEeXmWmlBlob6HiTiPaNrIV6GgfNlismtWe32+R45dkuZDEhN7LBoALEsCJEACJEACJEACJEACJEACJEACJJB6BJo0aykIswNDCBg4x7xYoMAQf/iYcH3as8GPqETJC+fNDAoZYhyAiRIKwoVZwbkiHAxmucIS5SDWjeW+GKHAiyMYM39RHhbtDHPjZA+1IsSeKe4UCsws7vPnzmkRIffU/W8DhoyUcuXKawEJQpJtRqDYv3e3LF003z4U9ba5Bq8rCtyc1rZT215RYOcgcAtVU7lKpkrKfJs+50SNg1p16glyR8AQ9mXzxnV627zYYW68jA9TL9K7cULjO4Yktk6LFI7L5AmAI3niuA90zP7a6lrg3EUSY2feDGf7Xj/HIxT0QFJvFTYsnMN59F336VOxk3vjOtAvLJQoauo5hQKsgurU1Zf3wC3mf7uOXaRh46a6bWdIJ73TejH3KJJQkKg+EbYMq2ZqqxwMEF2QowIGgRb3NBHhiGyhAGGHEH7IaZFCpDnLJ/tzvgoFrZuUkbn/bKGv8d3Pj8pDL+xK9vWyfRIgARIgARIgARIgARIgARIgARIggRQngKSoCA0Cp7+dGNTLZSPuOOKPw5A8GKsRkmU1a9WRm3rerJufPzs4NBJC2SCuOJxaiRIK7KSnU1VyzbMqyaZt9Rs0FogJsEQ5iO32oxEKUM+Ud0vUa7fr3I4UisU4ZVHPKRQYJ3oopyvuSaixddvQUQIHYSiRwXme4T4nUyiwhbQ5MyarHBfHAk7FTgKeqHFgO+TdxImMSpWlb//B+jySIRSEuifI4YBcDqHCMCEpOJKDwxASCGIHvpOJPEe0bcZkLCsKTE4StOOWsBmrOAYOG43DOo8F8lnAMipVUcx9wqAzYTOOl1b1BuXWcwoFNVUIM4Swgs1UKzG+VitEbDOrVrAvklBgkovbqyTstsx2Ivs0beLdhADCdrxJyNEGzBYK3BJFo4x5vnkJxYbyybYCIxS8PvaQPPcWcxIk+4azfRIgARIgARIgARIgARIgARIgARJIdQJ2KBF7FnWk67YFBoS6gfM+mYYZwJgJDHOLYW07axMlFFRVYYd6qfBDMCS+NQ5DvUO9wFELhy0sUQ5i3Vjui3GMeXWy2qGZQoVGQdNw3NqzgG2ntFOEwUoFzGBGHZhTKLDFlCkTPtGhcXRB9WIn+XUToYzIgPLLlywQOFedhn4hNJjwUs7j5nMyhQI7B4FzxQLODyGCsGoClqhxgOTgSBIOc3PGmlnxOO51fKBsJDOz1VHOKYoUL15COWvv1k2EClEGHkNH3SUlSpQI6CrceAwo6PFDPEKBHZLHbbWGnXzZTlpsfxfcVt+0aN1O8H2AOYUCW2T4culCgTPcWImSJWWoCv1mvmORhAKsXsEqllBijWk3kX2aNvFuPy9mTB4vp059bR+OadsWCtxWn2RWq6ESSd+q2964fo1sXJf/kXbyVSho26yMzH7Ht6KAQkFMY46VSIAESIAESIAESIAESIAESIAESIAELAJwfCE3ARyxkWanWtX0pu0gdjoUnWUT8dlO1nv27BlZrBKtnjyRo5u2HX/YkSihAG2Z0DnYXjh/lo4TD4ceEroapyCOJcpBjLaMRSsU2DOhL168IMsXLxDkHTBWVjmzGzZuokOc4J6ZGOt2bHkkCp2jVodg9QTGR/fe/aRK1UzTRJBQUF0JON1zBRz0tWTBXB3SBTkTevXt7w9T4iYUIITJoOG36/GHDlZ+uUQQTsWIGHCGdlbJfBGKBCFgwlkyhQL0a+KjY3v7lk2ydcsGKVqkqLRq11Gw2sVYosaBHTbm4P59svKrJXrlBVbOIG58wyxfmBr0myyhAKsKsFII3zeMBThqK1Wuqi/VfBfMddvvtiMZ+08rRzLEjkRaPEIBvr/Ij4Hxh7G2eMEcQV4DmB1eyC2HgR0iCM5qOK1hWGWB1RbGnEIBkgMPG32XPgyu+I6dU1xxDvj+IIyZsUhCgZ1QGjkCNqxbowS6M7o6vr/m+xNPnwiThPrINYHfBhi4VcyorL8L+M2IJFToSh5fbKEAVexnCZ5bWMlh7hfyzOD5lt+Wr0LBoN4V5V+vNNYMnnpjr7z1nu8m5TcU9k8CJEACJEACJEACJEACJEACJEACJFA4CdjO/tnTJ8mJnOOeLsQWGELFMvfUUJSFjHPQVEMcdJwLHFhwWmHWOWYyJ1IoqFajplrJ0M90qfuAkwx92pYoB7HdZrRCAerCgdyuQxd/M+AC5yHEAPucnTO8W7ZpL1hdYgyOODjmnOZcUYDjSGCL9o1hRrBxJCImPbbdhAKUR9xzJES2DY5UCEPGkDTVFgpsYcOUCfVuh9Cx81xEk6MAbSNh8c1qBYlzpjyOQXDBqgNYosYBchAMVKGZbA7mPqIfm1GyhAL0A3OOBTvBr69E4KstWOHImpXLZZsSVxJp5lkQS+ghnIdz3GHMwjBWjS1SYuShA4ERXXA/BgweqZ87KIfvF+riOWSbUyjAMZP425TD88rUsxlHEgpQZ9DwMa5j0SnaxtonwkchjJQxjDfnM2TNqi9l2+aNpkhc706hwDRmc8E+W5wxZfLrPV+Fgvd/kyUDeqTra7/z4a0ya0lgLKv8gsJ+SYAESIAESIAESIAESIAESIAESIAECh8BOJvMaoJonf32jNZZ0yapmf3eBIZ4KeGc23e6SerUaxDQFJxJmMme1bSl1KhVW06fPiXTJ33mL2PPzp447sOg2agmZEioGbJVqlbTs36NUw8NQ6RYomYi9+o7QPfz5RIVTmT39XAi/s7j2DBCQbTJidMrVlKx4XtJOeXcdhpYwem+fs0qdQ0XAw5nNW0hrdUMedtO5BxTM9a3au7YP3n8x3L+/Dm7iHaSY8a9LSwYPmgPs5DDhaeCE76zEgsqZlQKaBcfMDax0uCMuqfGSpUqLYNHjDEfw77jPJBwFWavSnGKDziO+4zrgDkdrtiHfjuqnBRVMqtrhzLaxoxuhKVCIm0Y4vIf2LdHb8f7gvsHR6+TC4SJBXNn6tUuGJPRjo9w52VCD0F8gFhRr0GjgOJwgH+1bFHEpMQmsTgqf66SGl+6GDjWAhqN4YNxgNuhoDALHt91OPfh5IeZ8FZuzzislEHeE3vcog6c4lhl4MxFgWMwCE5YLWN/v/DsgEgEwa10mTJBoYdQDyGG4IDHShljqIfwR8WVwAnhNtQzyJQ373Da41lYVY1FW7xyCr6x9onEyhAOcS1Ow7jfsHalbN+62Xko5s9lyqq8EEN9eSEwvvAsMuKbaXT1imUJ7dO0G+t7ngsFLz1aV4b3zZCKFYpJWsmi+rwvXromDfuvlHPnr8Z6HaxHAiRAAiRAAiRAAiRAAiRAAiRAAiRwgxMIdPZP9IfxiYTFFhgQHmLhvFmRqiT8OJxk6WoGdzEVMx2zmzHTOi8MjkGE1DmpVl5AjCjohntVvkJFKVvOlzAY4YQQRiac+cKLVNLO0GNRsEU9OPbA6IRK9otVHdEaZnOjDcwuhhiBhK8XL+R/iBG364AD1ji/bYHBuVLDrW60+xB6pUKFdLl85bLkqIThkfI1RNt+uPIYQ3BsY2VIznFvfSOXAcLsYEzYTvtw/eTnMQhIFZW4dk39h1VVXp8neA4hFBOEBQhqcPJ7MYzvdCWK4fuI8Gle63lpO1SZWPvENSL/RikljlxRKyDwvUYoqbw4Z/SNsZeXnELxc9uf50LB9L82l44ty/rP5cy5q/LTV3bLh1MCs6v7C3CDBEiABEiABEiABEiABEiABEiABEiABCIQgPPPJKg9fFA5+1Xsfa+G2PwQGWDJcIp6PQ+WI4GCQqCtCvXUKDdnwIRP3s9TR35BYWCfhx3SbMHcGXpViH2c2ySQCgTyXCjo0b68NG9cWvYfvig79l6QzTsDl3alAlReAwmQAAmQAAmQAAmQAAmQAAmQAAmQQN4SQELUjEq+5JmYHXrhgvcZ+ZhdmqZCsFy9eiVkaI68vRr2RgLJJ4DwPwj1sn3rJhVaaK8SAy7pGfMIzdOhczd9Ant27ZAvly5M/skUwB4Q/qZkWimdDBihvLCaAKtXpn7+aQE8W54SCcRPIM+FgvhPmS2QAAmQAAmQAAmQAAmQAAmQAAmQAAmQAAmQAAnEQ8AOL4R2TMJm0ybitk+f/JnnsDWmXqq83zJgsM5FYa4HoWnmz56uk1ibfXwngVQiUCCEgn5dy8n/fud60ouX/35EZi2NPu5bKt0YXgsJkAAJkAAJkAAJkAAJkAAJkAAJkAAJkAAJJIsAYrx37Npdx0zHbHljyBeA5MWrvlqmVxmY/Tfa+823DlLx+qvo2PXHjmarZLerVALrwzcaBl7vDUQgz4QCiAFuzn9bJFiz9by0ySql8VMsuIFGIS+VBEiABEiABEiABEiABEiABEiABEiABEgg3wiUKFFS0tLSdMgurCSgkQAJ3HgE8kwomP7HhuJ0/tsiwdhJOTL28xy5b1iG3DckQ98JZ/kb7/bwikmABEiABEiABEiABEiABEiABEiABEiABEiABEiABEgguQTyVCjApRjnv5tIYC7VFgsG/GCH2c13EiABEiABEiABEiABEiABEiABEiABEiABEiABEiABEiCBBBPIM6HAdv5/Pu9rGdangr4Us5LAeV2mPIUCJxl+JgESIAESIAESIAESIAESIAESIAESIAESIAESIAESIIHEEcgzoQCnbJz/5vRDiQTmOMojHBGNBEiABEiABEiABEiABEiABEiABEiABEiABEiABEiABEggOQTyVChIziWwVRIgARIgARIgARIgARIgARIgARIgARIgARIgARIgARIggVgJUCiIlRzrkQAJkAAJkAAJkAAJkAAJkAAJkAAJkAAJkAAJkAAJkEAKEKBQkAI3kZdAAiRAAiRAAiRAAiRAAiRAAiRAAiRAAiRAAiRAAiRAArESoFAQKznWIwESIAESIAESIAESIAESIAESIAESIAESIAESIAESIIEUIEChIAVuIi+BBEiABEiABEiABEiABEiABEiABEiABEiABEiABEiABGIlQKEgVnKsRwIkQAIkQAIkQAIkQAIkQAIkQAIkQAIkQAIkQAIkQAIpQIBCQQrcRF4CCZAACZAACZAACZAACZAACZAACZAACZAACZAACZAACcRKgEJBrORYjwRIgARIgARIgARIgARIgARIgARIgARIgARIgARIgARSgACFghS4ibwEEiABEiABEiABEiABEiABEiABEiABEiABEiABEiABEoiVAIWCWMmxHgmQAAmQAAmQAAmQAAmQAAmQAAmQAAmQAAmQAAmQAAmkAAEKBSlwE3kJJEACJEACJEACJEACJEACJEACJEACJEACJEACJEACJBArAQoFsZJjPRIgARIgARIgARIgARIgARIgARIgARIgARIgARIgARJIAQIUClLgJvISSIAESIAESIAESIAESIAESIAESIAESIAESIAESIAESCBWAhQKYiXHeiRAAiRAAiRAAiRAAiRAAiRAAiRAAiRAAiRAAiRAAiSQAgQoFKTATeQlkAAJkAAJkAAJkAAJkAAJkAAJkAAJkAAJkAAJkAAJkECsBCgUxEqO9UiABEiABEiABEiABEiABEiABEiABEiABEiABEiABEggBQhQKEiBm8hLIAESIAESIAESIAESIAESIAESIAESIAESIAESIAESIIFYCVAoiJUc65EACZAACZAACZAACZAACZAACZAACZAACZAACZAACZBAChCgUJACN5GXQAIkQAIkQAIkQAIkQAIkQAIkQAIkQAIkQAIkQAIkQAKxEqBQECs51iMBEiABEiABEiABEiABEiABEiABEiABEiABEiABEiCBFCBAoSAFbiIvgQRIgARIgARIgARIgARIgARIgARIgARIgARIgARIgARiJUChIFZyrEcCJEACJEACJEACJEACJEACJEACJEACJEACJEACJEACKUCAQkEK3EReAgmQAAmQAAmQAAmQAAmQAAmQAAmQAAmQAAmQAAmQAAnESoBCQazkWI8ESIAESIAESIAESIAESIAESIAESIAESIAESIAESIAEUoAAhYIUuIm8BBIgARIgARIgARIgARIgARIgARIgARIgARIgARIgARKIlQCFgljJsR4JkAAJkAAJkAAJkAAJkAAJkAAJkAAJkAAJkAAJkAAJpAABCgUpcBN5CSRAAiRAAiRAAiRAAiRAAiRAAiRAAiRAAiRAAiRAAiQQKwEKBbGSYz0SIAESIAESIAESIAESIAESIAESIAESIAESIAESIAESSAECFApS4CbyEkiABEiABEiABEiABEiABEiABEiABEiABEiABEiABEggVgIUCmIlx3okQAIkQAIkQAIkQAIkQAIkQAIkQAIkQAIkQAIkQAIkkAIEKBSkwE3kJZAACZAACZAACZAACZAACZAACZAACZAACZAACZAACZBArAQoFMRKjvVIgARIgARIgARIgARIgARIgARIgARIgARIgARIgARIIAUIUChIgZvISyABEiABEiABEiABEiABEiABEiABEiABEiABEiABEiCBWAlQKIiVHOuRAAmQAAmQAAmQAAmQAAmQAAmQAAmQAAmQAAmQAAmQQAoQ+H/XYUaJ22mO7AAAAABJRU5ErkJggg==;" vertex="1" parent="1">
                    <mxGeometry x="368" y="230" width="430.21" height="120.21" as="geometry"/>
                </mxCell>
                <mxCell id="7" value="" style="endArrow=none;html=1;entryX=0;entryY=0.5;entryDx=0;entryDy=0;" edge="1" parent="1" target="9">
                    <mxGeometry width="50" height="50" relative="1" as="geometry">
                        <mxPoint x="180" y="320" as="sourcePoint"/>
                        <mxPoint x="610" y="550" as="targetPoint"/>
                        <Array as="points">
                            <mxPoint x="210" y="300"/>
                        </Array>
                    </mxGeometry>
                </mxCell>
                <mxCell id="8" value="&lt;h1&gt;CALL STACK&lt;/h1&gt;&lt;div&gt;&lt;br&gt;&lt;/div&gt;" style="text;html=1;strokeColor=none;fillColor=none;spacing=5;spacingTop=-20;whiteSpace=wrap;overflow=hidden;rounded=0;fontStyle=1" vertex="1" parent="1">
                    <mxGeometry x="90" y="340" width="160" height="40" as="geometry"/>
                </mxCell>
                <mxCell id="11" value="" style="whiteSpace=wrap;html=1;aspect=fixed;" vertex="1" parent="1">
                    <mxGeometry x="70" y="390" width="220" height="220" as="geometry"/>
                </mxCell>
                <mxCell id="13" value="&lt;h1&gt;&lt;font style=&quot;font-size: 48px;&quot;&gt;EUCLID'S GCD RECURSIVE ALGO&lt;/font&gt;&lt;/h1&gt;" style="text;html=1;strokeColor=none;fillColor=none;spacing=5;spacingTop=-20;whiteSpace=wrap;overflow=hidden;rounded=0;fontStyle=1" vertex="1" parent="1">
                    <mxGeometry x="20" y="80" width="800" height="60" as="geometry"/>
                </mxCell>
                <mxCell id="14" value="" style="whiteSpace=wrap;html=1;aspect=fixed;fontSize=48;" vertex="1" parent="1">
                    <mxGeometry x="360" y="400" width="440" height="440" as="geometry"/>
                </mxCell>
                <mxCell id="15" value="SPACIAL COMPLEXITY" style="rounded=0;whiteSpace=wrap;html=1;fontSize=15;" vertex="1" parent="1">
                    <mxGeometry x="360" y="400" width="200" height="60" as="geometry"/>
                </mxCell>
                <mxCell id="16" value="&lt;i&gt;&lt;br&gt;EUC_GCD_REC (int, int)&lt;/i&gt; takes in two integers for parameters. On a 64bit system this will require 4 bytes per variable. There are no other variables declared within the function (aside from the counter, but that would not normally be there). The function itself will require 8 bytes of memory each time it is placed on the stack, for a total of 16 bytes per placement on the stack.&amp;nbsp;" style="text;html=1;strokeColor=none;fillColor=none;spacing=5;spacingTop=-20;whiteSpace=wrap;overflow=hidden;rounded=0;fontSize=15;" vertex="1" parent="1">
                    <mxGeometry x="590" y="410" width="200" height="280" as="geometry"/>
                </mxCell>
                <mxCell id="20" value="&lt;font style=&quot;font-size: 24px;&quot;&gt;O(log(N))&lt;/font&gt;" style="text;html=1;strokeColor=none;fillColor=none;align=center;verticalAlign=middle;whiteSpace=wrap;rounded=0;fontSize=15;" vertex="1" parent="1">
                    <mxGeometry x="400" y="490" width="120" height="70" as="geometry"/>
                </mxCell>
                <mxCell id="22" value="&lt;br&gt;problem is reduced by modulus division each function call" style="text;html=1;strokeColor=none;fillColor=none;spacing=5;spacingTop=-20;whiteSpace=wrap;overflow=hidden;rounded=0;fontSize=15;" vertex="1" parent="1">
                    <mxGeometry x="380" y="570" width="170" height="60" as="geometry"/>
                </mxCell>
                <mxCell id="23" value="TIME COMPLEXITY" style="rounded=0;whiteSpace=wrap;html=1;fontSize=15;" vertex="1" parent="1">
                    <mxGeometry x="360" y="690" width="200" height="60" as="geometry"/>
                </mxCell>
                <mxCell id="24" value="" style="endArrow=none;html=1;fontSize=24;" edge="1" parent="1" target="14">
                    <mxGeometry width="50" height="50" relative="1" as="geometry">
                        <mxPoint x="360" y="690" as="sourcePoint"/>
                        <mxPoint x="410" y="640" as="targetPoint"/>
                    </mxGeometry>
                </mxCell>
                <mxCell id="25" value="" style="endArrow=none;html=1;fontSize=24;" edge="1" parent="1">
                    <mxGeometry width="50" height="50" relative="1" as="geometry">
                        <mxPoint x="560" y="690" as="sourcePoint"/>
                        <mxPoint x="800" y="690" as="targetPoint"/>
                    </mxGeometry>
                </mxCell>
                <mxCell id="27" value="&lt;font style=&quot;font-size: 24px;&quot;&gt;O(log(N))&lt;/font&gt;" style="text;html=1;strokeColor=none;fillColor=none;align=center;verticalAlign=middle;whiteSpace=wrap;rounded=0;fontSize=15;" vertex="1" parent="1">
                    <mxGeometry x="405" y="760" width="120" height="70" as="geometry"/>
                </mxCell>
                <mxCell id="29" value="&lt;br&gt;This algo will complete in logorithmic time since the problem is reduced by modulus division each time the function is recurisvely called" style="text;html=1;strokeColor=none;fillColor=none;spacing=5;spacingTop=-20;whiteSpace=wrap;overflow=hidden;rounded=0;fontSize=15;" vertex="1" parent="1">
                    <mxGeometry x="590" y="710" width="200" height="120" as="geometry"/>
                </mxCell>
                <mxCell id="30" value="&lt;font color=&quot;#190033&quot;&gt;main&lt;/font&gt;" style="rounded=1;whiteSpace=wrap;html=1;fontSize=24;fillColor=#E5CCFF;" vertex="1" parent="1">
                    <mxGeometry x="90" y="570" width="180" height="30" as="geometry"/>
                </mxCell>
                <mxCell id="31" value="EUC(8,12)" style="rounded=1;whiteSpace=wrap;html=1;fontSize=24;" vertex="1" parent="1">
                    <mxGeometry x="90" y="530" width="180" height="30" as="geometry"/>
                </mxCell>
                <mxCell id="33" value="" style="shape=flexArrow;endArrow=classic;html=1;fontSize=24;" edge="1" parent="1">
                    <mxGeometry width="50" height="50" relative="1" as="geometry">
                        <mxPoint x="179.41" y="630" as="sourcePoint"/>
                        <mxPoint x="179.41" y="700" as="targetPoint"/>
                    </mxGeometry>
                </mxCell>
                <mxCell id="34" value="" style="whiteSpace=wrap;html=1;aspect=fixed;" vertex="1" parent="1">
                    <mxGeometry x="70" y="716" width="220" height="220" as="geometry"/>
                </mxCell>
                <mxCell id="36" value="EUC(8,12)" style="rounded=1;whiteSpace=wrap;html=1;fontSize=24;" vertex="1" parent="1">
                    <mxGeometry x="90" y="852" width="180" height="30" as="geometry"/>
                </mxCell>
                <mxCell id="37" value="EUC(12,8)" style="rounded=1;whiteSpace=wrap;html=1;fontSize=24;" vertex="1" parent="1">
                    <mxGeometry x="90" y="811" width="180" height="30" as="geometry"/>
                </mxCell>
                <mxCell id="38" value="" style="shape=flexArrow;endArrow=classic;html=1;fontSize=24;" edge="1" parent="1">
                    <mxGeometry width="50" height="50" relative="1" as="geometry">
                        <mxPoint x="179.41000000000008" y="960" as="sourcePoint"/>
                        <mxPoint x="179.41000000000008" y="1030" as="targetPoint"/>
                    </mxGeometry>
                </mxCell>
                <mxCell id="39" value="" style="whiteSpace=wrap;html=1;aspect=fixed;" vertex="1" parent="1">
                    <mxGeometry x="70" y="1046" width="220" height="220" as="geometry"/>
                </mxCell>
                <mxCell id="40" value="main" style="rounded=1;whiteSpace=wrap;html=1;fontSize=24;" vertex="1" parent="1">
                    <mxGeometry x="90" y="1222" width="180" height="30" as="geometry"/>
                </mxCell>
                <mxCell id="41" value="EUC(8,12)" style="rounded=1;whiteSpace=wrap;html=1;fontSize=24;" vertex="1" parent="1">
                    <mxGeometry x="90" y="1182" width="180" height="30" as="geometry"/>
                </mxCell>
                <mxCell id="42" value="EUC(12,8)" style="rounded=1;whiteSpace=wrap;html=1;fontSize=24;" vertex="1" parent="1">
                    <mxGeometry x="90" y="1141" width="180" height="30" as="geometry"/>
                </mxCell>
                <mxCell id="43" value="EUC(8,4)" style="rounded=1;whiteSpace=wrap;html=1;fontSize=24;" vertex="1" parent="1">
                    <mxGeometry x="90" y="1100" width="180" height="30" as="geometry"/>
                </mxCell>
                <mxCell id="44" value="" style="shape=flexArrow;endArrow=classic;html=1;fontSize=24;" edge="1" parent="1">
                    <mxGeometry width="50" height="50" relative="1" as="geometry">
                        <mxPoint x="179.41000000000008" y="1290" as="sourcePoint"/>
                        <mxPoint x="179.41000000000008" y="1360" as="targetPoint"/>
                    </mxGeometry>
                </mxCell>
                <mxCell id="45" value="" style="whiteSpace=wrap;html=1;aspect=fixed;" vertex="1" parent="1">
                    <mxGeometry x="70" y="1376" width="220" height="220" as="geometry"/>
                </mxCell>
                <mxCell id="46" value="main" style="rounded=1;whiteSpace=wrap;html=1;fontSize=24;" vertex="1" parent="1">
                    <mxGeometry x="90" y="1552" width="180" height="30" as="geometry"/>
                </mxCell>
                <mxCell id="47" value="EUC(8,12)" style="rounded=1;whiteSpace=wrap;html=1;fontSize=24;" vertex="1" parent="1">
                    <mxGeometry x="90" y="1512" width="180" height="30" as="geometry"/>
                </mxCell>
                <mxCell id="48" value="EUC(12,8)" style="rounded=1;whiteSpace=wrap;html=1;fontSize=24;" vertex="1" parent="1">
                    <mxGeometry x="90" y="1471" width="180" height="30" as="geometry"/>
                </mxCell>
                <mxCell id="49" value="EUC(8,4)" style="rounded=1;whiteSpace=wrap;html=1;fontSize=24;" vertex="1" parent="1">
                    <mxGeometry x="90" y="1430" width="180" height="30" as="geometry"/>
                </mxCell>
                <mxCell id="50" value="&lt;font color=&quot;#663300&quot;&gt;EUC(4,0)&lt;/font&gt;" style="rounded=1;whiteSpace=wrap;html=1;fontSize=24;fillColor=#FFB366;" vertex="1" parent="1">
                    <mxGeometry x="90" y="1390" width="180" height="30" as="geometry"/>
                </mxCell>
                <mxCell id="51" value="&lt;font color=&quot;#190033&quot;&gt;main&lt;/font&gt;" style="rounded=1;whiteSpace=wrap;html=1;fontSize=24;fillColor=#E5CCFF;" vertex="1" parent="1">
                    <mxGeometry x="90" y="891" width="180" height="30" as="geometry"/>
                </mxCell>
                <mxCell id="52" value="&lt;font color=&quot;#190033&quot;&gt;main&lt;/font&gt;" style="rounded=1;whiteSpace=wrap;html=1;fontSize=24;fillColor=#E5CCFF;" vertex="1" parent="1">
                    <mxGeometry x="90" y="1222" width="180" height="30" as="geometry"/>
                </mxCell>
                <mxCell id="53" value="&lt;font color=&quot;#190033&quot;&gt;main&lt;/font&gt;" style="rounded=1;whiteSpace=wrap;html=1;fontSize=24;fillColor=#E5CCFF;" vertex="1" parent="1">
                    <mxGeometry x="90" y="1552" width="180" height="30" as="geometry"/>
                </mxCell>
                <mxCell id="54" value="&lt;br&gt;Base case met at a stack depth of 4. Return a (4) and unwind stack. No calculations done during unwind, though.&amp;nbsp;" style="text;html=1;strokeColor=none;fillColor=none;spacing=5;spacingTop=-20;whiteSpace=wrap;overflow=hidden;rounded=0;fontSize=15;" vertex="1" parent="1">
                    <mxGeometry x="460" y="1376" width="200" height="120" as="geometry"/>
                </mxCell>
                <mxCell id="55" value="" style="line;strokeWidth=2;html=1;labelBackgroundColor=#B266FF;fontSize=24;fontColor=#663300;fillColor=#FFB366;" vertex="1" parent="1">
                    <mxGeometry x="300" y="1400" width="150" height="10" as="geometry"/>
                </mxCell>
            </root>
        </mxGraphModel>
    </diagram>
</mxfile>